<mxfile host="app.diagrams.net" modified="2021-09-25T15:12:50.967Z" agent="5.0 (X11; Linux x86_64) AppleWebKit/537.36 (KHTML, like Gecko) Chrome/93.0.4577.63 Safari/537.36" etag="GQ-uiq5LRIn5xUH_REx9" version="15.2.9" type="github">
  <diagram id="tSZYGcLfCxNiXTKzfh7A" name="Page-1">
    <mxGraphModel dx="1082" dy="1655" grid="1" gridSize="10" guides="1" tooltips="1" connect="1" arrows="1" fold="1" page="1" pageScale="1" pageWidth="1600" pageHeight="1200" math="0" shadow="0">
      <root>
        <mxCell id="0" />
        <mxCell id="1" parent="0" />
        <mxCell id="wC8_cDmadlpLExYwXLmD-1" value="" style="rounded=1;whiteSpace=wrap;html=1;" vertex="1" parent="1">
          <mxGeometry x="70" y="30" width="660" height="240" as="geometry" />
        </mxCell>
        <mxCell id="wC8_cDmadlpLExYwXLmD-2" value="" style="shape=image;verticalLabelPosition=bottom;labelBackgroundColor=#ffffff;verticalAlign=top;aspect=fixed;imageAspect=0;image=data:image/png,iVBORw0KGgoAAAANSUhEUgAAAOAAAADgCAMAAAAt85rTAAAAkFBMVEX///8XFRUAAAAUEhIPDAwLCAjq6uoRDw8KBgb6+voGAADR0dHx8fHc3NzW1tYVEhLLysrm5uZFRERcW1vAwMBVVFS2trZwb29paGhkY2OlpKTa2tqysrKZmZnv7+92dXU7OjoeHBwxLy89PDwoJiZKSUmNjY2dnJyBgICqqak2NDTEw8MkIiJ0dHSJiIh9fX2ZaVQFAAAKVklEQVR4nO1daXerNhANAxjwvuEtJo7XxM6r/f//XcHYDTZoRqAFt9X90PNO44O4aKRZNXp7MzAwMDAwMDAwMDAwMDAwMDAwMDAwMDAwMDB4IbQb3cnXebbf+HCDdQpX0WI8+AjqfjdhtJarcHcl1XQ920ph217K1f8cHcaDut+xKto/h8+EhetZLNyIzhedf91UDhahB+AwqT3QbAJspuN/EcdBFEulb9PUfuElEzlp1/3mPAiOewC2VCJoQm/aqvv1KXRX8aKrwu6KXrzBLj7q5oBgHMZvKAYP3O9G3TwYmOzAF6SXwAaYvdfNpQCTz2orrwgA01fTjv0Tp07gpnh5JUFtzOXSSyl+1U3rjiCCpmx6VrIW1/26qV3R3YjunCx4MH0B82YlXzp/ATCumd77SdX0pbDhUiu/L5XTlwLWndroBXO105fCgWNN/DprHfwSMV3Vwu9HvXjeAcMadtMISjl8ggwt7QvxrEc873BAs6eoZXvJwoPJf5pf4gxrZLjXzy/ZTLWpi1Ed/GLomsOwJn66GK5q4xdLqQYH6rs+fgnDrmp+xzr5xfrQVRwc/qmXn2X5J6VW24dO+6wYMFPILzhVj1rLYxipIzgtFlD3muuTFhWNYTtporTwb+rM0iWD3/64XJxHG950GYVeTG04jY7LqHg8DxQtwwFjAd6+aNBZbCvmlbLwAabjW9CXITGqluFncebB2f7+pBFtxKYRIMxYK33Gnq3GKv1ijXbO/iqYbKrnz+LJe0i7tNfFMmODAm3YYWmI3JofD6smQHP5CIaMWs1QPsEhKzUG+d9OrKev0fPcJmTR9B2v9/ATB0b5sARjW1NhdjNNNGdY9PPfdEWSfQfnFM7/OkTHyTjGchF9z0bDa3WJf2cJ2yI7usMa1Za9kwZrltQ9LsF/0AjB85JZ260YFT/txvsyCq+FJnaTpb2ZliF8S2T3hvkQzB1t7KznC1onN37OewhZifkTczWD1Dhbg21js120NvdWx851zpiJObn7zAwhqDTZfKjyZcvjHXGSQGmqmWGtJXD38oYZsTO4dlNpXcsC+7Q/skZhbtb1EszaiGJAVmBs+isVUZZ9mE6hpFXI8iJuo9S1BuONdC5nEDyOpjbOdcHHlqML8TiM2mDsEHW+5JgzRKAQDjIGYYEI4kmxSPe4e+cq8Fz+wYAiuBQfA9MR6SDiYzDBdJfuX1eCskeMpRtBafo2jzlVIybBUCRDvTCVwKQYdJxZPEjapSbQU6kIMUMmHX0nOgRVbKA434PrQUuCKtwSUUBYSCHCxJAI0YmOT+2hMJLDg4kGsQxFtRSh5Xu+8sJjYhn2BBOGI7yOXkfhAyGkgloK/3yeJYkEBlb8/k5QyFQklISeqgfcVvQ2Is/Gl6DYs7lBTaHIs1m5gdujFauIO3BVJeTXE+6YpuNwaNxCaKP7aGJKyFfpKGWBhJ0tMVsYV/P6iuN2WDpOxGXC3TG1Me0sUJfNXldfKWhMy1NbkpMFXn4k4M5MMX+zqbIi5xHEIqy+jX5im6jaaNMDgg22CAUCM3jEV+OxohAzZgS8elWSURrsNKElEh0lRF/jUQY0uO5XjuATalDjGVRUTxSXQfCghRPU2LcA11d/qj4WN+N1EkStUbuyPzHGCWpsWYDOYHWHiSD4KmtQGcFX2UWVEVRe4f+Lv2ohqFHR40kYVQRfxVSrTpDwUvS1YghQq786QUIPSq73Q9Be95AXsZtVn4tbMr7qtMQv8Ex29eglbovKKzQigYtSdVv0A32urc+UweOGAvVAREhZ28FoIv5cXHPMAzQsqnEbxXu0CbwHvjtr22Vwx1skJkOcZlVZIZMFUS0jsFRwL0WbsUZUywi4NROCoJ4uIW0PXYLerrrnTZQgeH+0xLaJzyySm2hbeImDHnubqAYUkiM8P2i5lW2IEiArDkWSXLijqcfpJd9BxN6gyhllVU0jwCvGLUFlRReLKtcUVGeX6qb2FRRBR3WhBe6yWcJJLjTrcX2+wlPtb0nijDoSLChDZOsKW230kGwNYvfEAuzUHh0Lqa1Q2xM63pJg8ROa0FJaUflOt84QLvUg7O3rGKqS9QOO09zCCQSyZttSZnQP/tA9BySUyzFPJ2cZqqh5avH0VJBQLscho0nzQemppiNP65qehGIkeh9N4EouHW3PuFrzSIma4HmBO2yYS8z4jjk7e0r5rHgKJjMYHCRpxC5vM4zqyesHPAvLrR1FfmJhHUmg2B1xtzMRiIhm8bTNwHfsBAbdRZjvru0BrMTa1H8sN/wN821J9Y6PZzN67v3/d+YFkgSwjapyDCYzt0y/HWne6GN49O5BT77e+ruC9ekA+JfJoKSwfvSjLQAeSs99TFmXGjxqCu/WjnYVe2JBcSPOpO3UaR6N+RyNQX8xHfrlW15JbIXwmPzwbrHy9yD3p+yv0g45J8ICOKQ7llOhIZ3E5M9z5AJGqc5rjFpEM046sFi5mafUmvjnY3yQ+tFdgDZ6togn8XOq2MZL2gpM0H7+zF56Jmqxb2O2nPPJ8Wwy6sLgJzeglzO5M71M2Qfg+FYJ1iqDCVk68I4gd3TBu2Wwx623LUNIOVcJ1q2GCekV43mL1E+LEABarFOavKmLsPxlP15PMr+i3S6NGA5jf54RAOc1hSt0nVWQ9mn4uWKc6zIIogGjDILbkiJS1EX8VJzdz+8lmWhTUWt//nCCgxUyFUBJb8NCIb0lly7neI0y/0oDLxPJQ1FespEzhW9C2AYYJXcvZZwL2wXYc39mrrhPhp+q5hL5nfQWlfxOLJq3zuXPtS/j9T/7rxJ6isrSPcJZK+JX0Hjhro1aqTTGbvBhOrscFv1yVV6lmlsrbS6xf3LibftXDPsPl3kthzN+j5Anuvz7USU0yWGi/ezDZ65Figkmxk3/tIsS/wNKnOAn86zZEdV1d0nQzUWgftNz3Sj59yqmFgvrOSwRcy5BUEkQPYvnhJZtP20mwfGrdJSbn6DbU16a87ylO4541J7b3PY8DeeGn7dSdy28q/ES1HAbQ4Jnu8MTLhzlJNjTVf2X81CLOxDzg4+gre+kRo6hA5ulwFLkItjTeRIlbx17AOHh574FBJ3+Ysqf2eYhaKvs35ZHQbcsO72C3V2vb9kZ/hIkDkvG0303GPNuNzvG9R8Of+CZDqz5Og/zpVhSKViZBGFbw628LSLPVaJKjiIIYS23uTaGsk7c4ARtjU0lnjDFxFQWQV/vxXyPmCDZZkkEYVjrBfWDLXMSnS33wmGfLnPqE887DqxJLHH8jkkQTpq1XxE6jEkUJ+hKqqIQxtEpesESLZEKCdowrO8O5Sd8rAoubC9BsCCqZkOdm2cenXluKQoRBJBRUyQV/e2TZVOdYDx73zWYZiT64UN+wttUIxjTO9eq+hC0Zpn8RAlFn3GX3Fg4X3H27mgcdndJLaGig51zn7z9S20tRQjGo+RiLB/KVFP/APjJLYbnl1EMKILjPByVK6YeXMLworG9iYGBgYGBgYGBgYGBgYGBgYGBgYGBgYGBgYHB/xJ/A+HljiNdQqEOAAAAAElFTkSuQmCC;" vertex="1" parent="1">
          <mxGeometry x="50" y="15.329999999999998" width="80" height="80" as="geometry" />
        </mxCell>
        <mxCell id="wC8_cDmadlpLExYwXLmD-3" value="" style="shape=image;verticalLabelPosition=bottom;labelBackgroundColor=#ffffff;verticalAlign=top;aspect=fixed;imageAspect=0;image=data:image/png,iVBORw0KGgoAAAANSUhEUgAAAOEAAADhCAMAAAAJbSJIAAAAkFBMVEX///8AAADz8/MEBAT09PT+/v719fX9/f38/Pz39/f6+vr29vYnJycDAwFBQUE/Pz/k5OTe3t7IyMjS0tK1tbWrq6vs7Ow2NjZ5eXnCwsKWlpZVVVXR0dGcnJwLCwuBgYEhISGJiYkVFRVycnJJSUliYmKtra0wMDBXV1dra2t9fX2ZmZmioqIcHByNjY27u7sfPuPsAAAWgklEQVR4nN1dh3ajOhAFYkwxwTTjbsdxTxzn///uUSQhCdQoSfZxzm6IM0Zz0YgZaa4GTSsP06ydaKyT4WX7vVxx2Hb5q4mdlH+xqhNLLGuxZTWGLBRRkVVRszxcp/zYdN3yY8t1gZxjUydKsq5QFl5OgyJI1mbKqqhZHs6k/Nh0JuXH1sQBrUzAJVx4gsmaUFajZW0oCzSqLucwLqc1NM2SxZuuqWlTssVVnRH4bTwqW7FH4/KbrgFacQxwiQmUHY3AxY2JxpAdA1lLLIuatmDTNrtpFTULm4W4M6XF3zRoWWPMBGioAGTJOlC23vSI2TSSLWwWWm51G41eAWK9zZI12TejDnBcNS1Us7BiEzx7zJFRAzihvqmgtEwPTiqAVNN2renq3layoqbN0haB18B75fdMtA6QaaJiNVHT1DcljPsfGYNQFrQiNtGex2CDiUqMwbqakgD7fXAMNwZbqAla+TU3wfGZXBOVVtPKf5jOMAAlggIlN9EKYB42mu5kkDHY1URrAFuMwdLX267w+dvzGOSFajL3VqRm1fQ4/4sJJhn/QzcBQlvg8f+RUK2VmvCbPSj9N0I1Wk342/8kVMNkJzjAXxiDRguAbdQ0iVb+P6Eaarrw+Nbkp9zEj4Vq6HJ2vqBjus7/ZUZfVxN4/L8cqqnM6OtqAo8PFeHYyV9wEx1GkvjW9Byq9eomJJoWA/xHxyAFcGA3gcn+kJsQ9WDfs4kJWroHTTpwoVw8Brs938zy44FMdFz+xU7D7IiWyeyx3W4fj8cs+V6GYZBmEGD6pOdQDckWa6UoQdAzQM0N4mi2P5/mb3rz8TY9nfezKE4zWZPVdKcxWKRwLMdV/6Zo1ulGl4/5jgL08kKfwGM3X1yi4nvjLjP6upqlx7cZSrcag9okjT/POwLXKwPgK4V0d15FaYd7Wx/+xf0yaYBdejCN9muI4qUG8JUB8AVHejtkKGHyr6dJT3eAZqFIMFujvmsCyOrBmuzu9Ahh031ElCyl5U3UnNha+PwqlOwBYHF8PTOQ415cMPPWSAPU3HA1FyitAhB+MF+FrKZryRfOmjMToLSJurO1hNLCMVi/GdlxS+yuJmqWH7cHOF696/JKqwAsT94/DbuLNwMev/UYDI7odg8DMD+OQbPxyFAJiigReXzlHizwtVBaQva1OgEYVUI1JOsUXgd6fDWAljbaN2vUxxisXW6fum36YVxknqw2ADXt0dbsWsnq+raloaFDaQyOtXA6IMAmg9D1aagpzbUpgEq3xrFX8kr3YKJQdmW5rXtQBeDEDXxVpXuSnYIQoBNAoYlO7GWfSivJ6vpSVk006khem1QPbgcFyDRRIPuQ84MIoNvMa+P14P7XerCUPWhjhUkPyWuTAagdfxlg5v41+Xn5mOS1SRj3L/Rg7aGc9aKkiVqjCYPXxgb4GBSgaAxC2YdkDzJ4bTw/GP14DzbLbgYCOHZ2fwOgvnPEs/8aQPEYHIGnzA+aKCsw0u/aAD1oaPGQAJVuhq7HsgApXhvfuNd/BWB2cuMDREYJeW1SDib+YYD82D2WWyQmstyix9Ni2F5RlF3IZxgQr00A0N39GRPNj50xkljmL0RMyRgo/lMAdT1ipVsakmBSALXtnwL4on/2DTAbhjKK9Dij518uG4g9A9RO+iC90vpmnBrVrM8dS16bRJBnX/8OwELkKteDdslrk5iHWPPBe4UW4Vv8XA4g4LWJAY60q1DpHxuDxclVKhsMPL4IYGHcXv892OlmeJpELpHitfE9qPe3AOqeLe5BIoUojIG8PxCq4R7f08QA5VhR8JuezlOkRQK0282ACPsDmCPsU+n2bgL8xesbYPGkGbRXlAC+lgglADJ4bfVv2h5bkR9yE6TP9OQAMnhtDc9f0Id/4SlainhSGUEGr63x1ni/DJAW8aRyiUSWWxAieIP2imoPZghNiXoGJa/NkgKYI/wzY7BAaEtkg/EUopBP5f2RMUh5fIkNOnI9SHr8H11Va74cQCix+0EWIO7xf30MIo+vzmtjT5Urj69TuH7BRKHHlwFI8to4z1/k8XXv5dcAvuo7D4p4cht0mnltTd9EHl8/pdMeAaqMQV2fpqfK48vsX3FKXpstBuhAj/+q+5r9URnrD/agrn/Yml95fAmAZQ0imwLIeP56UBE/+wQQTn4SYPYvylr24b31LIm91ASvTRQDeVCRDOHYdY4/AhCn0hwLtafw3nqW9CY5OYCFPywU8ctaFvFpeDdR+Xf9VGYMJxVCTWSicA+ZJMAcYamID6tMJXArzOAmqr8loHtGPuxTrx1ADt3I04EiU5BPNd3RbFCAVQ8+gA7jkYUodV6/JqpVHl+f4pv/L3Nd73d5oyYyh/gK3q4PZT0BQNgPBK+N52Aqj++Tst83XVrpFgBvS8fF3bUPZT0pE7VoXhv7+Vt5fJ+8GY4dPCnV+hmD+f/PQLNHRDziQ1mPCxAaJVG9RRADeVARX6tvUl7edXj0lADNjvtSq4fMPpT1NIm91ASvTRQDoYDQb9qkrKXfd4+vtEqopnv35QTvFfSoqDy+LVH2Bue1CYM8zOM3bVLORMabA0wyduvB0x5s0muY9ND+kDcGFVlRaAbs110K2uLqBMme3DCqEvXkx9v+27Bd1tKROQIIXyFCjokaOECJeQiaAU85JY8K87Cj7e2KEIpNFPzUr7dtQT/gLd+Op+ByACEP4FgOIGoF+cN3Q2P0IKSL58uwweayP0/pfbJYD75WH+6m532yCS1W0xhA+x3eL69Rtl7PoPhfppaFWc3xUwHAqtqdEaRx8nlY3Obvev14n98Wh9UlTtP8e3D7Oj9PayCD8JoBGhTAktc2kahlUa3q6xcRQGQn8EGbzUNN0zKCeBNvNps4DMPALZ9wMAkoyxe9IIv3pEyUrN7CDREqj69PtcYxKLF1vFZ9V4F1X46kKRrSHidUqwBSvDZuDIQ8fknRHbiWBQPghshyC92ELK+tNG7k8TN/kblSFsBu9WREdEofz3LX1azVtyt5bRr4TRADeZjjempMpbuUHROmMVeYDtDjS5S9YQCk+75a886e899AhGmiChVipceg9l0BRFnuhlCNLiYtCbDy+IWdbPgAB6mOtsEAQoRsPyjitdWnytAfgoGwxGVtUnaYCoVLHCBAKGGiJvEbx8FAf4hG+icMHgeql0X34JYEWCCUACjktaG+BzENNoG7uwyASnVeJQHmq5dk7O7xTRSm8fm8NjwGKq2UCKC9qDtAyTEYeTTADCE7VBPx2pr7vonXdjSsMaV0z2Mwj0U149gw+0K8Nl51NKJ6C2+qPGbx2vSVUVOaBbDNJuU8tHA+G+5txWuTKWTLBCjmtWUNPcYDuomJNXq8kcOf8vjc6mgCgCxe27tOZoPfn6kGYveeTVQzgyeaD4LjHeL0oJqsZSYGQPbzF3n8U7zDAebHOYKyIqWVQrXlmfJQ+i4+gaZLhDIVCptbqT9/sTVv07gRAPPm3/KCOfDVIb24ifBZS4votxSueZfrNBw3QWe5RSaK8dqK9dJZ3i61kOTvI5bSStv9c+ibgw9vKAbwgda8S14btwQjnFoTvDZeiECteQdIA3yl7P2YpMWMvj1A2w6S4zv2SEEA/aLcgA+Nx5MyUZLXxo+BEK+tQOjaILdWWxfdHWdBob87UnATZWeMg9lxR14OAny72GjNG/LaajP6GsBmXhvj+Yt4bT7oFefZoEiZgntZfyRxiJoT9mB2l4Mw+VhX5kBf92mAyMuHq3RNvLaaxTfy2lgVYhGvzUdmlx6YGuXH9XScLTchWL7GikLCk/wibrBZPo4nsL7KWAU/pBrcqebDNKZnCx09Wt0EvwliIMRr87F1UYixYWW7Gp0Z1PPHavu4JN/fyyhafn9/J8nssVqcT1cdPxqW+fMPDgbWPfSqvkQhW7oHWY+nalUfK6ORXeaB5Ug5GTb28cpO1Oh5fnRCjFcqyy3dg4IxCBCWF59SdULM6Ix0VU6A8jJR2XGPci1wOiWZ5VYGyKkQi3l8ekbvuEbRkfT8pmOqLeu+MqwnFhOILLdMIVuL7EG2g6Gz3HSF2OCBRkhLfi0p629BtR0qosSz3DLFpMFbyWoz+vqtoTx+fbqk2WFyfiO7sgXA/Hg7J4HGmJdjWe6mUI3uQeqtZEzP7FRZ7ld9brKnS6PwExIX2ploFsV/htkDzGTErea8ynJLvNgE8NosCJAdIuC8Nt3mrapl3i6cHdGgletBcHjHRyzIEdl6xWuTqHdOvJVMNFVGWW491sTxpR1dDrcpnlNronLB4316OySxjWWiWIt/cTUDNsUAyZd2iQqJI16bfrDEM/oyG5iG8ey5uK8b04d5AnF9XzyTolKyJrfEuIchTY3XJgTIGYNlK16Vtq0msaL5IIjQ3HEaBOEmi2ayWKYIbTZhEKTj0vDg0q3M+g0yfZrXJgYoDNMRr+1FX0FZpiL0jN4ao2EKF77AIp3MzANFlNazGtskr03eRJnF/LG9a7oeakMlX7gpFDfGdCh5bcK5tojXVjkYLMudhTXub7yaxjGmmA6eVA9CXhsrVMM8KJblzo6zNv6p10MhE53YNwwgzmtjJ8EoXhs/BsKy3DlEeqG8j+QLdww6zhkHiPHaOPeWyHKL3jeBZblzws7NaFa6ffKFK2u66ZoAiGe52Xna4nJMXhv1TY+KTubBD45BzQqvJECU5eY0DR8V5RWEr+erstzw5KIN9FKFmolqsBQeNjmmstwNY5B87Zo4ivVqE3l9Haor3Uo2XNMA6Sw3594yWqlz1agsd8niXTlyrXQC6EA/TwwTTwAQmqgpCdC0vIZWdP1rll10GDcBZWdfTQALhNx7C54vJa9NYh5ieU0A82NrKCstPwYdOABrTXtSxsPgtTU9f6ss9/SMA8x/PIPmVrqNwUyk4MgTz7fztOK1SfQgg9fW7GAwJjtGTYJ7BpIUxLl9jUFHGyc3rOPKkxXBZBeOQZfitbG5avnMA2eyY1vX0Gz2viyu0w/lxDS+j4RlFicvEcFkF7qJauGBAtj8TeTx/azvjTtolliKOV9StBrewUTNdHbT9TrAnN5i15jssu+0Ekex1Zp3MWdZXhsXXKYfy+JNBgr1RTFqSPZBsPyoUocVQF2/5rsvbMhkR7w2CcaZCCBcv0Ee3y+TJPYWUwTLBmco77Nlqg5QC6LZHRDVKYDZsS0eGSOHXPNu04M1E6V5bfoUfjNY0AAxjb7On0lsQFdZm9GbY4grJ4+5cfJ5hm6v6XIfRqmmA9e8Ea9NOAZJXhsnTEe8NrDmXTzO00WTRjg1xL8fVpdNGAYlWJirzG6ckaZpsLk89/fKKhkAjxh33gcAAa9N2IN09RYmwIrXBhCC3k6fmGoUQGI59OVtfjqt17dzdtzWJ3/uEWuKnH0mhxA3NB/KelJj0CV4bdzX81Ue38cAZn9KZ8Tsn7eyXTvEyarrLCWfzr6OeG0y3HmC18Yeg8U3Ea/N14gHRyYSL3ZySisWQtktYq0qkFuOJNzji8Ng6q1k7KkywWvzG27GJAGvWusJYA7vvswUqiVfMI8vH+eLAI5A9ZZX6PHrvZ1FR8Zy0Wx/rQAulvnTs4FOSXt8GUodCyC1SHxFHp8d8W5WPktpybIQRQOriLU25lYe/0o2zaHUkb+xR+8JmscX03lbE1tzo891lXlSAVh0zPozcjX4EKuvrIycL3iVU7OabU00O47Q/sDOLs7NMOLkcMYTbFyAENzt8F1QcCY8OqWBLrdoVLMOkOS1cXa+uCukUSIAWJKhHCN+PO9zXXzM7898AxtQiE1pzpVO0P3aSrLISo/PchNYDOTCmvPAPmRqpZU/gyiZPfb322nuvX19vb+/f329efPT7b5/XJIlfD3euO6CmxYeTsggYl6oxuS1sabK+Tfzet5g0MRqK2UuCoFN+qdjk7KiPG2MAO5cmamo6K1kpHEv0FPhpElw1VqtbIvolKj+TjYMZZjXzW8lY+XosZLlWwVvq5J8Eb3w+VE9szaO2ERpXptQ6XVVBWtJK91L8kWUp40qgGu7j5d2UR7UjtCjv8yR9p184VGa85MY8zqRIwQo6sGGnS/oHSV5K1H/Y5DrJoge1O+WeAwyAHJ3n4HHadnKxRr3mXwRmugFA7gDzlNm9wOR5Rb2ygaPjj96NlGumzD3eNOAMi/zfAO8NuFUGX7zga8SzWO5VtTGYOPGkHiOA3xoAjWZvDZxmG7tsadNzh3S2K0o5DEEO1+sg44D3GvwckITnZBvJZPYpDzSFhjA/HYO7SZGxeYOHOARARTfW9Zbybi35oABzBq9Jm5bgLwxiBaSjO+rzuhB6XtLARQa90Mns8HXx6ie7u4nVNPSz6tOAvzUJNUU0r44DuZbxwEWQWLMAMiJeiRMNIbrIhXAcpu8TKhGAVSKL+1ySxCxicTbpprSLhkhwHSL5tAI4BQtnaqa6JgTyTTdGnPVsC66/oxtRitKbiKfKYbbtY45JnDyhJVxFEyUeiuZ/CblEK154btkpod8icwdsx79EqFa1nnLA8X8LwFOY5jpVAEI3komPQbRuNKcLQUQKnI9JCCmUjFRUErE+D4gZhB13YfjiL1ZbfjTbyVjAWw0O/Be7qal+935uUyDkcYAWHMTWbcY6fJ5rpbO6evuDYXpEqt6izqdEnt3fAPr/v10PyRxGMCdXajWLVrVyOfRbhrGyf58etdJyyQAHgNQZEtVzTKnDNY622xS1uIjw6awSldv89N58XwkyXcUbeI43ERRvr0reTwX59Mcr33GWCTO3x3fqewN+ZtafOlq49U7hkdlRxfW/yyAuSWsxqrerJZcVr815Liyk3Wlq3Blu7Z9mAvwlthUr4jUZL2VrBOl2XKCz7kkQJW6kfOCiaQUUTaoCXht3SnN4RPRz7oCLES+nptql4KKN6PULDy+NemF5KqFs/WuM8D82K1nQZHmkbq3XDVJXltHxm9+8TQ6oEHZEuDtUBS+7FiZCVF0cI/fESCceThpvD3j9RIlAMK+O68iYWJLSU3Jt5Kp0SlLETt6LOZkXUieJ9nNPy553UtmZaZuJTeESrdZ2S7MI42jx8f5NH2rQSqPt+npvL8sowBet4PxqL/Tqp9WrFzUMtIgC2WWyeXx2K4+H3lWbRPGYVrG3RJVJjp5sx4B8nKJExhjwycvrObJI2SJ18baAxxq54vEJrmeTRTw2pRDtYGSL4oAJTbJMd5KNtTuM1HypbHpTmOQ8VaygXa+tDJRlYWHBjVV3krWA0B+8qURYEfjoXhtQ5uouOxYzyZahcydAaolX5R6sI+IsrXSf8FNyKjZ3Erfm5TZyZehR8fPtCJTdmyoMQh4bcPYiZSJshx9TxUKm99K9u+HakiWfCvZPxaqyagp4rX9q6FapWYzr+1vhGqipuW8GZYjHWqT8m+EarWloyFb+c1QrTtApVBNouxYt1U1eYD/WKgmNFEmr21wN9Eh2JYagxAS/Vay/0uohtQkeW1/w030uQCv9lYyZYC00j/vJiwmr62HVn7ATcj3wzAA24Rq/boJCiAqjQHLjrnwxBnDKBZta5nUZGmRCSQNqclqQtn65epqUk2X33Rg2Xi4smjDE7fiiFiysiYi90BZu5K1a7J9Nq05tGz5mw1rRcHsFjqxqxPwTZeWrYvAjKSUrI1khU23UtOq/sdOTPA2YfyEElGRbRIxFS6nIltT0/wP90UvxVMpC5oAAAAASUVORK5CYII=;" vertex="1" parent="1">
          <mxGeometry x="155" y="89.16" width="60" height="60" as="geometry" />
        </mxCell>
        <mxCell id="wC8_cDmadlpLExYwXLmD-4" value="" style="shape=image;verticalLabelPosition=bottom;labelBackgroundColor=#ffffff;verticalAlign=top;aspect=fixed;imageAspect=0;image=data:image/png,iVBORw0KGgoAAAANSUhEUgAAAOEAAADhCAMAAAAJbSJIAAAAkFBMVEX///8AAADz8/MEBAT09PT+/v719fX9/f38/Pz39/f6+vr29vYnJycDAwFBQUE/Pz/k5OTe3t7IyMjS0tK1tbWrq6vs7Ow2NjZ5eXnCwsKWlpZVVVXR0dGcnJwLCwuBgYEhISGJiYkVFRVycnJJSUliYmKtra0wMDBXV1dra2t9fX2ZmZmioqIcHByNjY27u7sfPuPsAAAWgklEQVR4nN1dh3ajOhAFYkwxwTTjbsdxTxzn///uUSQhCdQoSfZxzm6IM0Zz0YgZaa4GTSsP06ydaKyT4WX7vVxx2Hb5q4mdlH+xqhNLLGuxZTWGLBRRkVVRszxcp/zYdN3yY8t1gZxjUydKsq5QFl5OgyJI1mbKqqhZHs6k/Nh0JuXH1sQBrUzAJVx4gsmaUFajZW0oCzSqLucwLqc1NM2SxZuuqWlTssVVnRH4bTwqW7FH4/KbrgFacQxwiQmUHY3AxY2JxpAdA1lLLIuatmDTNrtpFTULm4W4M6XF3zRoWWPMBGioAGTJOlC23vSI2TSSLWwWWm51G41eAWK9zZI12TejDnBcNS1Us7BiEzx7zJFRAzihvqmgtEwPTiqAVNN2renq3layoqbN0haB18B75fdMtA6QaaJiNVHT1DcljPsfGYNQFrQiNtGex2CDiUqMwbqakgD7fXAMNwZbqAla+TU3wfGZXBOVVtPKf5jOMAAlggIlN9EKYB42mu5kkDHY1URrAFuMwdLX267w+dvzGOSFajL3VqRm1fQ4/4sJJhn/QzcBQlvg8f+RUK2VmvCbPSj9N0I1Wk342/8kVMNkJzjAXxiDRguAbdQ0iVb+P6Eaarrw+Nbkp9zEj4Vq6HJ2vqBjus7/ZUZfVxN4/L8cqqnM6OtqAo8PFeHYyV9wEx1GkvjW9Byq9eomJJoWA/xHxyAFcGA3gcn+kJsQ9WDfs4kJWroHTTpwoVw8Brs938zy44FMdFz+xU7D7IiWyeyx3W4fj8cs+V6GYZBmEGD6pOdQDckWa6UoQdAzQM0N4mi2P5/mb3rz8TY9nfezKE4zWZPVdKcxWKRwLMdV/6Zo1ulGl4/5jgL08kKfwGM3X1yi4nvjLjP6upqlx7cZSrcag9okjT/POwLXKwPgK4V0d15FaYd7Wx/+xf0yaYBdejCN9muI4qUG8JUB8AVHejtkKGHyr6dJT3eAZqFIMFujvmsCyOrBmuzu9Ahh031ElCyl5U3UnNha+PwqlOwBYHF8PTOQ415cMPPWSAPU3HA1FyitAhB+MF+FrKZryRfOmjMToLSJurO1hNLCMVi/GdlxS+yuJmqWH7cHOF696/JKqwAsT94/DbuLNwMev/UYDI7odg8DMD+OQbPxyFAJiigReXzlHizwtVBaQva1OgEYVUI1JOsUXgd6fDWAljbaN2vUxxisXW6fum36YVxknqw2ADXt0dbsWsnq+raloaFDaQyOtXA6IMAmg9D1aagpzbUpgEq3xrFX8kr3YKJQdmW5rXtQBeDEDXxVpXuSnYIQoBNAoYlO7GWfSivJ6vpSVk006khem1QPbgcFyDRRIPuQ84MIoNvMa+P14P7XerCUPWhjhUkPyWuTAagdfxlg5v41+Xn5mOS1SRj3L/Rg7aGc9aKkiVqjCYPXxgb4GBSgaAxC2YdkDzJ4bTw/GP14DzbLbgYCOHZ2fwOgvnPEs/8aQPEYHIGnzA+aKCsw0u/aAD1oaPGQAJVuhq7HsgApXhvfuNd/BWB2cuMDREYJeW1SDib+YYD82D2WWyQmstyix9Ni2F5RlF3IZxgQr00A0N39GRPNj50xkljmL0RMyRgo/lMAdT1ipVsakmBSALXtnwL4on/2DTAbhjKK9Dij518uG4g9A9RO+iC90vpmnBrVrM8dS16bRJBnX/8OwELkKteDdslrk5iHWPPBe4UW4Vv8XA4g4LWJAY60q1DpHxuDxclVKhsMPL4IYGHcXv892OlmeJpELpHitfE9qPe3AOqeLe5BIoUojIG8PxCq4R7f08QA5VhR8JuezlOkRQK0282ACPsDmCPsU+n2bgL8xesbYPGkGbRXlAC+lgglADJ4bfVv2h5bkR9yE6TP9OQAMnhtDc9f0Id/4SlainhSGUEGr63x1ni/DJAW8aRyiUSWWxAieIP2imoPZghNiXoGJa/NkgKYI/wzY7BAaEtkg/EUopBP5f2RMUh5fIkNOnI9SHr8H11Va74cQCix+0EWIO7xf30MIo+vzmtjT5Urj69TuH7BRKHHlwFI8to4z1/k8XXv5dcAvuo7D4p4cht0mnltTd9EHl8/pdMeAaqMQV2fpqfK48vsX3FKXpstBuhAj/+q+5r9URnrD/agrn/Yml95fAmAZQ0imwLIeP56UBE/+wQQTn4SYPYvylr24b31LIm91ASvTRQDeVCRDOHYdY4/AhCn0hwLtafw3nqW9CY5OYCFPywU8ctaFvFpeDdR+Xf9VGYMJxVCTWSicA+ZJMAcYamID6tMJXArzOAmqr8loHtGPuxTrx1ADt3I04EiU5BPNd3RbFCAVQ8+gA7jkYUodV6/JqpVHl+f4pv/L3Nd73d5oyYyh/gK3q4PZT0BQNgPBK+N52Aqj++Tst83XVrpFgBvS8fF3bUPZT0pE7VoXhv7+Vt5fJ+8GY4dPCnV+hmD+f/PQLNHRDziQ1mPCxAaJVG9RRADeVARX6tvUl7edXj0lADNjvtSq4fMPpT1NIm91ASvTRQDoYDQb9qkrKXfd4+vtEqopnv35QTvFfSoqDy+LVH2Bue1CYM8zOM3bVLORMabA0wyduvB0x5s0muY9ND+kDcGFVlRaAbs110K2uLqBMme3DCqEvXkx9v+27Bd1tKROQIIXyFCjokaOECJeQiaAU85JY8K87Cj7e2KEIpNFPzUr7dtQT/gLd+Op+ByACEP4FgOIGoF+cN3Q2P0IKSL58uwweayP0/pfbJYD75WH+6m532yCS1W0xhA+x3eL69Rtl7PoPhfppaFWc3xUwHAqtqdEaRx8nlY3Obvev14n98Wh9UlTtP8e3D7Oj9PayCD8JoBGhTAktc2kahlUa3q6xcRQGQn8EGbzUNN0zKCeBNvNps4DMPALZ9wMAkoyxe9IIv3pEyUrN7CDREqj69PtcYxKLF1vFZ9V4F1X46kKRrSHidUqwBSvDZuDIQ8fknRHbiWBQPghshyC92ELK+tNG7k8TN/kblSFsBu9WREdEofz3LX1azVtyt5bRr4TRADeZjjempMpbuUHROmMVeYDtDjS5S9YQCk+75a886e899AhGmiChVipceg9l0BRFnuhlCNLiYtCbDy+IWdbPgAB6mOtsEAQoRsPyjitdWnytAfgoGwxGVtUnaYCoVLHCBAKGGiJvEbx8FAf4hG+icMHgeql0X34JYEWCCUACjktaG+BzENNoG7uwyASnVeJQHmq5dk7O7xTRSm8fm8NjwGKq2UCKC9qDtAyTEYeTTADCE7VBPx2pr7vonXdjSsMaV0z2Mwj0U149gw+0K8Nl51NKJ6C2+qPGbx2vSVUVOaBbDNJuU8tHA+G+5txWuTKWTLBCjmtWUNPcYDuomJNXq8kcOf8vjc6mgCgCxe27tOZoPfn6kGYveeTVQzgyeaD4LjHeL0oJqsZSYGQPbzF3n8U7zDAebHOYKyIqWVQrXlmfJQ+i4+gaZLhDIVCptbqT9/sTVv07gRAPPm3/KCOfDVIb24ifBZS4votxSueZfrNBw3QWe5RSaK8dqK9dJZ3i61kOTvI5bSStv9c+ibgw9vKAbwgda8S14btwQjnFoTvDZeiECteQdIA3yl7P2YpMWMvj1A2w6S4zv2SEEA/aLcgA+Nx5MyUZLXxo+BEK+tQOjaILdWWxfdHWdBob87UnATZWeMg9lxR14OAny72GjNG/LaajP6GsBmXhvj+Yt4bT7oFefZoEiZgntZfyRxiJoT9mB2l4Mw+VhX5kBf92mAyMuHq3RNvLaaxTfy2lgVYhGvzUdmlx6YGuXH9XScLTchWL7GikLCk/wibrBZPo4nsL7KWAU/pBrcqebDNKZnCx09Wt0EvwliIMRr87F1UYixYWW7Gp0Z1PPHavu4JN/fyyhafn9/J8nssVqcT1cdPxqW+fMPDgbWPfSqvkQhW7oHWY+nalUfK6ORXeaB5Ug5GTb28cpO1Oh5fnRCjFcqyy3dg4IxCBCWF59SdULM6Ix0VU6A8jJR2XGPci1wOiWZ5VYGyKkQi3l8ekbvuEbRkfT8pmOqLeu+MqwnFhOILLdMIVuL7EG2g6Gz3HSF2OCBRkhLfi0p629BtR0qosSz3DLFpMFbyWoz+vqtoTx+fbqk2WFyfiO7sgXA/Hg7J4HGmJdjWe6mUI3uQeqtZEzP7FRZ7ld9brKnS6PwExIX2ploFsV/htkDzGTErea8ynJLvNgE8NosCJAdIuC8Nt3mrapl3i6cHdGgletBcHjHRyzIEdl6xWuTqHdOvJVMNFVGWW491sTxpR1dDrcpnlNronLB4316OySxjWWiWIt/cTUDNsUAyZd2iQqJI16bfrDEM/oyG5iG8ey5uK8b04d5AnF9XzyTolKyJrfEuIchTY3XJgTIGYNlK16Vtq0msaL5IIjQ3HEaBOEmi2ayWKYIbTZhEKTj0vDg0q3M+g0yfZrXJgYoDNMRr+1FX0FZpiL0jN4ao2EKF77AIp3MzANFlNazGtskr03eRJnF/LG9a7oeakMlX7gpFDfGdCh5bcK5tojXVjkYLMudhTXub7yaxjGmmA6eVA9CXhsrVMM8KJblzo6zNv6p10MhE53YNwwgzmtjJ8EoXhs/BsKy3DlEeqG8j+QLdww6zhkHiPHaOPeWyHKL3jeBZblzws7NaFa6ffKFK2u66ZoAiGe52Xna4nJMXhv1TY+KTubBD45BzQqvJECU5eY0DR8V5RWEr+erstzw5KIN9FKFmolqsBQeNjmmstwNY5B87Zo4ivVqE3l9Haor3Uo2XNMA6Sw3594yWqlz1agsd8niXTlyrXQC6EA/TwwTTwAQmqgpCdC0vIZWdP1rll10GDcBZWdfTQALhNx7C54vJa9NYh5ieU0A82NrKCstPwYdOABrTXtSxsPgtTU9f6ss9/SMA8x/PIPmVrqNwUyk4MgTz7fztOK1SfQgg9fW7GAwJjtGTYJ7BpIUxLl9jUFHGyc3rOPKkxXBZBeOQZfitbG5avnMA2eyY1vX0Gz2viyu0w/lxDS+j4RlFicvEcFkF7qJauGBAtj8TeTx/azvjTtolliKOV9StBrewUTNdHbT9TrAnN5i15jssu+0Ekex1Zp3MWdZXhsXXKYfy+JNBgr1RTFqSPZBsPyoUocVQF2/5rsvbMhkR7w2CcaZCCBcv0Ee3y+TJPYWUwTLBmco77Nlqg5QC6LZHRDVKYDZsS0eGSOHXPNu04M1E6V5bfoUfjNY0AAxjb7On0lsQFdZm9GbY4grJ4+5cfJ5hm6v6XIfRqmmA9e8Ea9NOAZJXhsnTEe8NrDmXTzO00WTRjg1xL8fVpdNGAYlWJirzG6ckaZpsLk89/fKKhkAjxh33gcAAa9N2IN09RYmwIrXBhCC3k6fmGoUQGI59OVtfjqt17dzdtzWJ3/uEWuKnH0mhxA3NB/KelJj0CV4bdzX81Ue38cAZn9KZ8Tsn7eyXTvEyarrLCWfzr6OeG0y3HmC18Yeg8U3Ea/N14gHRyYSL3ZySisWQtktYq0qkFuOJNzji8Ng6q1k7KkywWvzG27GJAGvWusJYA7vvswUqiVfMI8vH+eLAI5A9ZZX6PHrvZ1FR8Zy0Wx/rQAulvnTs4FOSXt8GUodCyC1SHxFHp8d8W5WPktpybIQRQOriLU25lYe/0o2zaHUkb+xR+8JmscX03lbE1tzo891lXlSAVh0zPozcjX4EKuvrIycL3iVU7OabU00O47Q/sDOLs7NMOLkcMYTbFyAENzt8F1QcCY8OqWBLrdoVLMOkOS1cXa+uCukUSIAWJKhHCN+PO9zXXzM7898AxtQiE1pzpVO0P3aSrLISo/PchNYDOTCmvPAPmRqpZU/gyiZPfb322nuvX19vb+/f329efPT7b5/XJIlfD3euO6CmxYeTsggYl6oxuS1sabK+Tfzet5g0MRqK2UuCoFN+qdjk7KiPG2MAO5cmamo6K1kpHEv0FPhpElw1VqtbIvolKj+TjYMZZjXzW8lY+XosZLlWwVvq5J8Eb3w+VE9szaO2ERpXptQ6XVVBWtJK91L8kWUp40qgGu7j5d2UR7UjtCjv8yR9p184VGa85MY8zqRIwQo6sGGnS/oHSV5K1H/Y5DrJoge1O+WeAwyAHJ3n4HHadnKxRr3mXwRmugFA7gDzlNm9wOR5Rb2ygaPjj96NlGumzD3eNOAMi/zfAO8NuFUGX7zga8SzWO5VtTGYOPGkHiOA3xoAjWZvDZxmG7tsadNzh3S2K0o5DEEO1+sg44D3GvwckITnZBvJZPYpDzSFhjA/HYO7SZGxeYOHOARARTfW9Zbybi35oABzBq9Jm5bgLwxiBaSjO+rzuhB6XtLARQa90Mns8HXx6ie7u4nVNPSz6tOAvzUJNUU0r44DuZbxwEWQWLMAMiJeiRMNIbrIhXAcpu8TKhGAVSKL+1ySxCxicTbpprSLhkhwHSL5tAI4BQtnaqa6JgTyTTdGnPVsC66/oxtRitKbiKfKYbbtY45JnDyhJVxFEyUeiuZ/CblEK154btkpod8icwdsx79EqFa1nnLA8X8LwFOY5jpVAEI3komPQbRuNKcLQUQKnI9JCCmUjFRUErE+D4gZhB13YfjiL1ZbfjTbyVjAWw0O/Be7qal+935uUyDkcYAWHMTWbcY6fJ5rpbO6evuDYXpEqt6izqdEnt3fAPr/v10PyRxGMCdXajWLVrVyOfRbhrGyf58etdJyyQAHgNQZEtVzTKnDNY622xS1uIjw6awSldv89N58XwkyXcUbeI43ERRvr0reTwX59Mcr33GWCTO3x3fqewN+ZtafOlq49U7hkdlRxfW/yyAuSWsxqrerJZcVr815Liyk3Wlq3Blu7Z9mAvwlthUr4jUZL2VrBOl2XKCz7kkQJW6kfOCiaQUUTaoCXht3SnN4RPRz7oCLES+nptql4KKN6PULDy+NemF5KqFs/WuM8D82K1nQZHmkbq3XDVJXltHxm9+8TQ6oEHZEuDtUBS+7FiZCVF0cI/fESCceThpvD3j9RIlAMK+O68iYWJLSU3Jt5Kp0SlLETt6LOZkXUieJ9nNPy553UtmZaZuJTeESrdZ2S7MI42jx8f5NH2rQSqPt+npvL8sowBet4PxqL/Tqp9WrFzUMtIgC2WWyeXx2K4+H3lWbRPGYVrG3RJVJjp5sx4B8nKJExhjwycvrObJI2SJ18baAxxq54vEJrmeTRTw2pRDtYGSL4oAJTbJMd5KNtTuM1HypbHpTmOQ8VaygXa+tDJRlYWHBjVV3krWA0B+8qURYEfjoXhtQ5uouOxYzyZahcydAaolX5R6sI+IsrXSf8FNyKjZ3Erfm5TZyZehR8fPtCJTdmyoMQh4bcPYiZSJshx9TxUKm99K9u+HakiWfCvZPxaqyagp4rX9q6FapWYzr+1vhGqipuW8GZYjHWqT8m+EarWloyFb+c1QrTtApVBNouxYt1U1eYD/WKgmNFEmr21wN9Eh2JYagxAS/Vay/0uohtQkeW1/w030uQCv9lYyZYC00j/vJiwmr62HVn7ATcj3wzAA24Rq/boJCiAqjQHLjrnwxBnDKBZta5nUZGmRCSQNqclqQtn65epqUk2X33Rg2Xi4smjDE7fiiFiysiYi90BZu5K1a7J9Nq05tGz5mw1rRcHsFjqxqxPwTZeWrYvAjKSUrI1khU23UtOq/sdOTPA2YfyEElGRbRIxFS6nIltT0/wP90UvxVMpC5oAAAAASUVORK5CYII=;" vertex="1" parent="1">
          <mxGeometry x="155" y="180" width="60" height="60" as="geometry" />
        </mxCell>
        <mxCell id="wC8_cDmadlpLExYwXLmD-5" value="" style="shape=image;verticalLabelPosition=bottom;labelBackgroundColor=#ffffff;verticalAlign=top;aspect=fixed;imageAspect=0;image=data:image/png,iVBORw0KGgoAAAANSUhEUgAABLAAAASwBAMAAAAZD678AAAABGdBTUEAALGPC/xhBQAAAAFzUkdCAK7OHOkAAAAYUExURUdwTHLfzwNATABASwJATXLf0ANBTS6AgTW2NsAAAAAFdFJOUwCAxT+FfVq5sgAADXxJREFUeNrs3d1O4lAUBlBCG5+jUdPrBkmviRKeY4Kk7/8Ig86o0B9o7dmOY9a6JNSL45e9N4dDu1gAAAAAAAAAAAAAAAAAAAAAAAAAAAAAAAAAAAAAAAAAAAAAAAAAAAAAAAAAAAAAAAAAAAAAAAAAAAAAAAAAAAAAAAAAAAAAAAAAAAAAAAAAAAAAAAAAAAAAAAAAAAAAAAAAAAAAAAAAAAAAAAAAAAAAAAAAAAAAAAAAAAAAAAAAAAAAAAAAAAAAAAAAAAAAAAAAAAAAAAAAAAAAAAAAAAAAAAAAAAAAAAAAAAAAAAAAAAAAAAAAAAAAAAAAAAAAAAAAAAAAAAAAAAAAAAAAAAAAAAAAAAAAAAAAAAAAAAAAAAAAAAAA/O8euiwK85VN296iIFgIFoIFgoVgIVggWAgWP8iDYBGhKQSL9JZNUwkWye2a5iBYpJa9xOVOsEjfCY82gkXyTjicF8FiTic8ehYsUrp5S0whWCT0EZ1KsEgm/4jMQbBIpj7JzJ1gkb4T9u45CBZzO2FvaASL2Z2wb89BsPiUdmwKwSKBZSc3lWAx366Tm4NgMVvWdN0JFuk7YXvPQbBI0gnbyREs0nTC1p6DYDHdjWARoewP1kawmCPvz5UZi3nq/mD9EiwiOmElWAR0wsNCsAjohMXZm9w1mamaEZ0QQjohTLYb0Qlhsqz3U6F1IaIZPlsWIj4XbqwK85U2qfiSZqgTksRKJ+QL9hx0QlLtOQwfbIAZlr7OIboZ+jqHkGZYWA0imqFOSEQz1AlJ2wxLnZAIuYMNjDH5oHrt6xwigvV6xcbCkTpYua9ziAjWYqUTEhGsxU4nJCJYmWUjIlggWAgWggWChWAhWCBYCBaC9ebOOhIQrFqRIyBYuZPKRASr9NsKAoJV+zUYAcHK3cmBiGCV9igICFbtblkEBCt3fz8iglW6NzcBwardfoaAYOWef0JEsEq3+CMgWLWbkhIQrNxxGyKCVbrxOwHBWnlUBQHByj1wlYhglR6MSUCwVh7lS0Cwcg8fJyJYvY/yNb7zbr1texpx1bL/sfa2spgn6w+W8Z2Zdv3BMr4zz0AvNL4zk15IiNr4ToR8oGRtLA2z9O9kNb+sDLPcqFhE6N/KckMjhjrafmA7oV2LdmZ3Jgfr5nqwlhohKSpW0b5UIySiYnW3sjRCEsxY3a0sjZAUFat9rdNYJJmxWunTCElUsTKNkIAZ63wrSyMkVcU6jZ9GSLIZ63QrSyMkXcX62MrSCEk4Y71vZe0rK0nCivV2uUZI0hnrbwA1QhJXrEwjJGDG+rOVVVhGEleslwT6lSrJZ6yXrSyNkPQVa1FrhATMWIvMGjKrYqlMfGXFgpAZC0I+FYKKhRkLFQvMWKhYmLFAxcKMhYoFZixULMxY8GbgsXJ55+VtZbEAAAAAgJ/loevl5az7cnXh7dAy8Uvo7svuNcOEYN0IFioW/3PFKgQLFQszFiqWYGHGQsXCjCVYqFiYsVCxBAszFioWZizBQsXCjIWKJViYsVCxMGMJFioWZixULMHCjIWKhRkLVCzMWKhYYMZCxcKMBSoWKhYqFrybfdfkyhoCAAAAAAAAAAAAAAAAAAAAAAAAAAAAAAAAAAAAAAAAAAAAAAAAAAAAAAAAAD9G1rwrrAaChWAhWCBY/KvQbG/LY2D2t9sHwSKVdfmRmWa/rQSLBPLTWL1G60mwmO2x6TpUgsW84WrX9NlXgsWcXJVNv/1GsEifq75kCRbz+uBANxQsRrqUq+MEL1h8yqq57E6w+EwjbK6pBIvUjbDbDAWLMZbNdYVgMVU5Ilh7wSKgYJ0nSLBIVLDOS5ZgkapgNc1GsEhfsFQspslHFiwzFpPUnQjdPz0cs7N+9KmQz8uGT/Zlj/0TlmAxfXQ/+1ZwbeedT2p9m/M0MIBtJgcrW7/82md/O/SDjJN3bh9vj3/p9v76W08ver1myiV8pYunGN4L2vNiYrBO2+j9xX/+2e+CDtW1QbBo//l70fr+nwmfu29Y9RxuuB6sdXmpDg6/8ZiTMcFaXzuUz7f6TNj7Lyp7AnctWKsr57l6Px5cKlrnwVpdPNPDd1AOnmA4qWlTjyavrp4U/PtnyrE/CzoL1mrMFXyfzYb9UFErFpOCtRxxBvU1suXvdu5mt20jCsCoYQvapyiyTptCawMBtC7SQG9AaevYpfQEJF+/SRrEssz5UyiHpM9ZupTkgh8uh9Q4eRuhT8JaZL2C8SyxQuvw+6uisBbJrxpj86o/wuOwVqndYvx6y/TAurq6LQor1Mt9dlc9i6ajsNY5b86InmI9nHUFfRe9HYjccsa2Qz+E3/R9/yvunMvRrt1vBwnrJncOFfztRqRWI2v0a/f7q0HC2uT+QUb0DzgeSsOyyhrt2v1ukLAW2XNoGe2kOCw3hmNyHbtrOyusdfYcWpQMoHRYnpKO9abwdoiwbgpOfskAygjLtXBE1meufoNhrQtO/qbgWpgR1oPTOcqnDQ+DhLUqWAgtc/90Iy8s94XjfNpwN0RYT9dNf324vfrwMXgtjC+y7krDssgakTPX7sGw1j0z58kT9ne9n/7np08fPn2MLbJywvrb+RzjY6zbIcJa9Z3nm9BC6PuF+J/vH/303367j4Z1/+VFNyd7ue6c0LmGddP/RfIisCZfnm6/2gSvbOv+cbaxeh+lRfiJ5FlhXQcGzia8yHp/lZx4z8P6cZl8cpn1iHSMYd0PEdY6vaY/WWS9D5ceXrwd1XnttnDkYf07RFir0EneBBZZD7m3qevQdq3VuUOXC7oeNqyb4Hrnuv9zFs/eeBl4i3Vo9bX0vGH+YS2Ct/43uWNlkRHWQ+j+w/OGCYW17L009Yd1Hc5nlTtWAr/ROtjPSlizD2sdfrd17tlfpcMKLd+ENdewNuFnlde5mxA2/ev/dfA3XdrfMJA3w/nt6F49cMjbH0d8Pvrp748v/OPxp6veY08+6XP8V3rb/xsdzaXPoRcc/yoDeHVhVcPZPZ6UQ+CQ7Y8j6uMfP76wSfzw9JPq+K/0+Hn7wI/r4P9DXQ1JWL8grP6zGQmrSn5QPKw2+N7CGndY+0EnVsTzsHZd23tkoLcmlKywph9W75jYnRPWrgseGZhYlbBGH1Y16MQ6J6wucmTGFVJY4w+r+RUTq91nhmVivY6wfmJi7XO7MrHmEVb9QhNrX+W+oH9iHYQ1gbDa5POGS06s/NFmYr2SsAZZY7V7E2uuYW2Tt4UXvCvcm1ivIqzmhSfWdm9izTasXXL1frmJtTex5htWtU9dCy82sXZ7E+uVhNVccHdD/Cq875r83Q3CmkJYbepaeN7uhrrsk0t2N5hYkwhrm7oWnjexDkVhNUX7sYQ1hbCerHTqn5xYbUlYgQpNrHmEVcW3SpVNrDa5V6I3zaYyseYXVpsYWSUTa1uwet8FSjGxZhLWdh9fZZVMrG3BIqswLBNramHtEvuGSyZWxobUnvc9mFhzDOvkAXj9MxMrugunbbLCak2smYR1ssegCf7n9MSKPcffnZz2wrBMrMmFdfrVSpP1XWL/8W34qhpeSx1CH2hiTTqsKrIpvQtdJQMTaxsstD097+lFuok18bCe77frum/xdJHlV6Cf0Oxrc0dQa2LNJqzMHcU5E6sKbGRoz7mvNLEmHlZyi3DBxNo+m31ftH1N9P91f2s/1ozC2g43sRLTL/BooulP3MSaeFjVcBMrMf0O8Z1grR2k8wprO9jESr1VE0jw693Cs38axMSaeljVcBOryv77+nTNJtbkw9oNNrFSdwIln2liTT6srBvDKmti5S/fTaxXEFbGyAp91VOXLNjqkphNrOmHlV7x1FXexIpPoqbkI02sGYSVmh+H4ISrCxqt0wXWrYk1q7DiZUXOZlPwThkFNq2JNa+wdm1BV/F/qjhrmdZ/3KEysWYWVmQBf4i102S/U51xXFOZWHMLK3gN66Lp1LmNHjI+sK5MrBmG1VvWoYk/q28yr6tdxgceqsrEmmNYPaOmSx1X5zXaZBx2qCoTa55hnXwVfOjS3y42OTcDXU7KXVWZWLMN6+uW5G97kg/hqrIj/f+Nui7jqK6rRkZYCEtYwhKWsISFsIQlLGEJS1gIS1jCEpawhIWwhCUsYQlLWAhLWMISlrCEhbCEJSxhCUtYCEtYwhKWsISFsIQlLGEJS1gIS1jCEpawhIWwhCUsYQlLWAhLWMISlrCEhbCEJSxhCUtYCEtYwhKWsISFsIQlLGEJS1gIK+wNL+IKAAAAAAAAAIAxsaHFtpmLsAXPRj9hCUtYCAthCUtYwkJYCEtYwhIWwkJYwhKWsBAWwhKWsGybwb82AwAAAAAAAAAAAAAAAAAAAAAAAAAAAAAAAAAAAAAAAAAAAAAAAAAAAAAAAAAAAAAAAAAAAAAAAAAAAAAAAAAAAAAAAAAAAAAAAAAAAAAAAAAAAAAAAAAAAAAAAAAAAAAAAAAAAAAAAAAAAAAAAAAAAAAAAAAAAAAAAAAAAAAAAAAAAAAAAAAAAAAAAAAAAAAAAAAAAAAAAAAAAAAAAAAAAAAAAAAAAAAAAAAAAAAAAAAAAAAAAAAAAAAAAAAAAAAAAAAAAAAAAAAAAAAAAAAAAAAAAAAAAC/gP+IFZBeuVRtBAAAAAElFTkSuQmCC;" vertex="1" parent="1">
          <mxGeometry x="200" y="89.16" width="70" height="70" as="geometry" />
        </mxCell>
        <mxCell id="wC8_cDmadlpLExYwXLmD-6" value="App repo" style="text;html=1;strokeColor=none;fillColor=none;align=center;verticalAlign=middle;whiteSpace=wrap;rounded=0;" vertex="1" parent="1">
          <mxGeometry x="155" y="146.66" width="60" height="20" as="geometry" />
        </mxCell>
        <mxCell id="wC8_cDmadlpLExYwXLmD-7" value="" style="shape=image;verticalLabelPosition=bottom;labelBackgroundColor=#ffffff;verticalAlign=top;aspect=fixed;imageAspect=0;image=data:image/png,iVBORw0KGgoAAAANSUhEUgAAAOEAAADhCAMAAAAJbSJIAAAAllBMVEX///8PFokAAIQAAH8AAIUAAH4ABoby8vhoaqlfYaUKEoilpsmdn8Z4erH5+vy2t9Pc3eoADYdxc65cXqOYmcLGx90FD4i+v9isrc1AQ5jLzODm5vBkZqjS0+TNzuEaIIwvM5JUV6CChLeKjLtMT506PZYoLJBWWKGrrM3t7fTh4e10drCFh7ghJo4VG4tGSZstMZIAAHW+sXsNAAAMLklEQVR4nO2deX+iPBDHJQdYVJCKRz1qPXrYbtvd9//mHtSqmQlXIIHqw/ezf23F5GdIMplMMq1Wg3Zm/bprYBZvy2kwrbsWBvEsZlkuH9ZdD3NsI4ER1Km7IqYY04NAi93XXRNTfI6OCi0+q7sqZnj8acKoEdd118UMH+yk0CV118UMxD0ptOhNDqeL80savaZ/6q6NCUJyUTh6qrs2JljZF4UW9+qujgGEbhh1xEXd1dHPTuiGlkUmdddHPwugkG3qro9+fCIqtOd110c/XaBw9Fx3ffSzYaJC1667PvrpAYUWrbs++mnfvMI7Gyq8vSl/cCUKh5OifiRNCt/H/q5gDfKwCyihdF2oiDlSWKgCb5+UEN4t9Gwung9zGuNF1j735UeaMSMHPwh/L/BwLmb8ZFW66n7dNZwPmXrxc/pju5NQ/eF8TM+mpcs7qg+HJW0a5+X8BeZ8dUOhklTVmTSBdulA8fEZu/RjYsyonYrLA6r4Qw6BQlVvW5+OhIfbag/nZwaXeB9lHlZ7y/tUXD4bXHqBSlpUrSCoUMnZNgMCLeIrFazCK5rT3lQefg7ER1XmVIeNQLnc3Jz/BvpSVNSjwsPidKG2eHoJQKmjv4rVVsDhUKGr0hTiUMNU+vAA2goGp8MW8ghGBE85H9z1hx1BIVEwvLqw9xve1xnj0kjWqL8bdnvfNqWRPQmeo5/tcJynqn303ljBtw4liQQuKi+tKz6GAxIpY9JDe0aMRH/chtOMRcZyhB6kY72SEB001lhuEP/BfnfLKbHjtIEGiZYK32GKlftHKvDLjLIzuMDY93Txx6UkwJ9MVklZL2HZ+Y7fUZOT4ZGuJBF3/Fn4RVlW2+GGYZSt41ryG/9Oo6VhgTE90V6Jfx5vOVGUdxb5LDXPEI9spnvhQYJc6GWXpeNSG/85P1GnDGGYxgseZuytcYGt1hZrOA3fXkiKNZ8AAT4S+dc0aLBd2Emd/9iIIS2tbw/jvXM7PuNeqGIplKCDf1kWrUjfmBZ9h687LVoWuKCgqt2OFTIULer/1aZvD2GHMQe5ydXM4FJ40kRO8IgAa2ZH9guhFyI7J90WcOlzv+VJBqnpqfCCZCsmV5URyu3VuutP+zPHi3B274vx22b+GZk8LPmHCXgvxGuKXmUCWy0/l8RIXXDfWSQZnn1//cJJonHAkEBm1uLGhNI4jogmcDqfZC4enHGP5bOA7M8qdAmsUyXahHzk9sQsNgHFY5dEYFcestlLlsj4VtG2mrYzbL2AVTWMCvQkG/yAG5klBRbhXpelDMjEqiXo9iGmRm5kWhbdGfSXNKEdyXMtu42bmDZktJSXyP+KfVfN+bhT2cj9MJrDyv7WHSKPOcZX9fHIAl36oGFfz+tx6eW36wi+kQUSqilUrf8ivf7sSc9XKyBP+HSlb7TbcNwbK5coCRyp75im0Xdxb2QPOr8/kw62StlS9876neR6XmU/pA3J7KZ3+gvp4jeVVHcMZYEFciM7JVOKxtRyU60CO2R4uKbWpTMbuby4eUfigSX0DrnmIradTzTeVHOYCG3mudTgiUnvCRY2qsK4QX42lxoLTzrwDCUyA0MaYsaRQNNnXp+gfaPLbkopkBIRbvzUhLeEJf4z3BWdiS8wyXbDlMebgDL9GzyJ0tDQ0NDQ0NDQ0NDQ0NDwK/EA5b9OQ5UAdxevCEUbrx4X/DPQAeUwax+0TTnnFBL9B/LjroUSMvz0/X/RF9D7XCLHJCqc5wjNFCLJ8BE4T3CzIS+wI+2GCaDzP8K5EpYR43QM3CNfObbtOoca2DmcjWkKBU8pVpgWW4MU9vIr/LlXKmCZDq+f3T6dCuERBEMKT4cBR1le2VNoj06FMLJeReG9usKsW/rmJ6+xRoWo1oYUCgel0va3tueP6VRYSRuKR8EST6iLuze/ow3bxRRaNP6EvLMU9m6uW6GF5+cDMybuZlakkKBJ/x+c8QsrjItVWMCd8GoUku57HwJtkuIK5fi9IbI0dCqE7eIk/0lCuMRFVaHFlsC8kWJCKlKYEbdQRiE0b0Ip1vwGFIrmTUwY9i0ovJg37Zg/llSY0tkqVBjN/Yet/FXc3xQV2nPHOa9hvZb3/ksU7kOwPBSjUUyhZaOJTfiqmsbSH+j6b/zhBVWFKaCGEhXieDvcpIPyCq2kw0TVKLRcgBGFSVSkMPWTjcL/s8KkitnC4uKqFbJN/HkaMphfJF61Qjpb4Jjhw9fPRdfWdSvso9Xu8X974k3vV68Qeiz2HALMq1dow/hMjQojYw2MrvxwTVUJhSMCyafQnndDEezMLaMQGtw/GyLFFY6+/YkIuAQpWWGWXVpOYev+7CU+7SwUVyjdR528gHCSXTi6FZ6OlAXkFGBeQiH6uJdTYcYNrmUVHo8k2e75WHDlCmnGFW4KCsVrGoXNmTG32N+L1616hRmB2OUVthZcPMh2g23YaoHx2ZDClDV+Rj8UL73GB5tG8JBhokLAr1aIVsuuDRU+/k6F9l0I2cC63aXcIxVAhYvfqRBZbZHdBj97AwoxyARoFAr061RYfId0nuJ8uQ2FaeuzRmGVCrXEYvxmhXoihrIUvptQKMYmviKF/4Q5DkV9/SPJoPmwR1M+C+8wmSVHQwrcJ1c5juHZBdF9w+ZX2D0TwkubvG4nmS48Cz0WvkbiLfFru4nXRE0vVe7cZM7BhoaGhoaGhoaGhoaGhoaGhjic7d2ZQUTb9C3bnaiQS5F3K/OemJDbIszwReLfFBRHqrhaH+W2MHtX+gO6pJFVcq23C0MER8TYzYneC45jq+Y6uhlycLtZsQmFC8Lb/FTrXcUpDHGKQG7kukbpDtoKE3hI6fqU88rmKUS6R7jKq5KlQ1XkQXfqgrmUj6jae9nv8UaurZY5NYv+F96hqjxDibRX7XK13LmphNLV+vay8vQPd3KWwFHRvPKI2bP03XYdCTzkiAOXznXUY8OlgPWg+hbc8yFv/JbM37Fn7MqxGq75lIfxxOUoIXapuXHxEHtuhMTfNmCeuOCfqAkKa1xsaUJmT6KaiV0PYXzsj0tYt0i3GT+kJIck1SZ/OBKTZ+askd4r2si70E1qvyO/IksJqBBdhrmvwvb8VXbu0solTrJSy40IfdnkaMl+Z8tJntylFSeWm+bJnReJpK/hNHGSdB47bZKcNxjnziP4AIhJcI6LZGxCKNv2ftIfHoXt+o9+d/0acJSrG/48/APnPzwl76yCTykDakZaOHJMYckP//IksSRfUylXvZV+XZROpBsbSCdQPbObyo9xNED906UVmac+Hkb3WZ3D7BSGebF5+6hkKhVUzWjjSc118NQ4Pa5Fo0235yi9TylzfCWumjkWcgqa3PUKpuQWYHQrTDG+/GNW8J4+SlP9JdrU2dD0vLnpuITPYZQlvoTCYhVYqNKbE4DO8fainDr+B5uwDXYvS12+Ap/pRHpxcHDrokdikhhmEBA+iDt9+iT9nsY9UoH03sQ4aMZtqtCSLiN8O4nvYFKCMIsanhSlJnRJ/FJpuP5Kzdl8UUdJ209ebklx4aYbcYlbhiafbN75vZfIfEmyXvaWDg3anYyrO6V3wVySsD3DuMTxaXiLyXplHe008TnC2Xevk2yVX5CMfLN5V1/xmUg333OzxdjfCBKJghtgjTsGNzgnyrawQs6uqXhVicpOxwNeRhk0bN7Qz6mUGFBsQyUHoWfDAcvkWIOMfbUF24O45FJ602ZoOWrwNYVmp2LeTDBIUaUtgAXcasu6maI4O1BJRa8C3DtW7EtTIJEYW+yLx1aV3SbwXiuloaaFJOILD/UBLqpQ3XOG1pCtukYQL1Ey55MSr59Oups5EegiHz2pPj+7ZEE214bnDJasgPm7hrMaU/4C7/U0pBJzeXOfDgO+zQcFhusPqJAWKN5nx8Fcxc5QpL8/zchXhUxftKVaROH+VY9qwE1utnmT0C8Y5oWthYLbuotOaChCqTSaFP5isMK666Of+c0rRGMpqbs++oHzoZtz6XxNQJsmqGNj3jDQQy/dd3cDwN0AVleIjEF2ZdaH1wHMOKIpzO9XsS3sp7kWxDi42oLxjCL6y1WdGFeCeKHObd6zIqwQb9Bm23N5TW9xNjywPLnLuOkjb3Vx2pXPurj0inmwb3cyPOLsAxFdpR2ra2O2pJTessCIx+HtuaBq5T/zzr4rwjaziwAAAABJRU5ErkJggg==;" vertex="1" parent="1">
          <mxGeometry x="215" y="205" width="30" height="30" as="geometry" />
        </mxCell>
        <mxCell id="wC8_cDmadlpLExYwXLmD-8" value="Manifest, resource repo" style="text;html=1;strokeColor=none;fillColor=none;align=center;verticalAlign=middle;whiteSpace=wrap;rounded=0;" vertex="1" parent="1">
          <mxGeometry x="140" y="235" width="90" height="20" as="geometry" />
        </mxCell>
        <mxCell id="wC8_cDmadlpLExYwXLmD-10" value="Github" style="text;html=1;strokeColor=none;fillColor=none;align=center;verticalAlign=middle;whiteSpace=wrap;rounded=0;" vertex="1" parent="1">
          <mxGeometry x="60" y="91.33" width="60" height="14.67" as="geometry" />
        </mxCell>
        <mxCell id="wC8_cDmadlpLExYwXLmD-11" value="" style="shape=image;verticalLabelPosition=bottom;labelBackgroundColor=#ffffff;verticalAlign=top;aspect=fixed;imageAspect=0;image=data:image/png,iVBORw0KGgoAAAANSUhEUgAAAOAAAADgCAMAAAAt85rTAAAA7VBMVEX///8giP95uP////0Mg/8Aff8AgP8Whf/6/f+nzf+SwP8fiv8Af//y+P9jqf8NhP9ztf/Q5f9Hmv/Y6P96uf/t9f////psrP/B3f+gyP8rkP+81PFCkfje6/6GvP8yk//19vVYov+Nw/+vye5rp/R/p+CuyvjZ4uqIuP+hwOgzjvpCk/ZjnO2Zwv9ypvOav/Xo6+3P3eqz1f/S3OuuwdbG4f/L09mgvNlto+lXoPjU4PLt7+3i7/6y1P+OuO1bn/9jm99Gjui/z+Opt8OLs+J8qenb39+/yta2zOhosf/E1+6ZuNuOqswyiu/J0NQLDlj9AAAU3ElEQVR4nO1da3ujthI2gbWMMQZfiDGJuTg3b27OuvVuLnbcpt00Ts/p//85BxKjGwIEjhJynr6f2g2M9SJpNBrNjGq1XMi+blkj1bzpShG8YN3sWJbuy/mvfgb48+Ojcw/UFQCkVwCg1A0vuJ7a1kc3bmv4D+qlY0BqOEKa0uDi4ORT9+NydSqxyCGS2r6rf3Qry+L2p1TPYreBIv329Bk5+kNNyWf32o+tweKzDVR/b8JL74XiSr376CYXQmPgFKAXMdS6n2iYNg6AweAADEOLAEKtmpybQLk++eiG80G23ETrFcn7/fxy0lQjNCeX5zddLaGAlOD5U8xE+yZBT7uwOydX0HKR/auTjr0MDIqi8V/1EzB81MjhadSVnVGD9aRuey2F4Aic+Xs3tzAePLLJp+a33fSnv40DwhAAzr3/bk0thRnBT/Eu86aVPlwRFFv3Gd/j40H0H5CGPT/3FXkxdIgls5n/zofhkeDXtTlfezaJaXtc1T6UbQ3jZ5gF2vmAv1mfVlSXWjeoI4B2WOjd2T5iCIJqrvgNbH0H3Zlf6GV5tMKG6U0lzbYDXNs/F379pFtH2nfgv337tkUDG2NOqR5oYvNw+NbN2xp+Gw4x0C3efy8iTPSJvE7VFM0e2h9pM+pv+uyiObTzlarVhX2oTJjW3cfBn6D14dAn/vRgdsMdkuSspj7zVQzPLSjFWQhqaUkMoTECTOIP8vjLZtMAFOmgkTPwVNiFRrdSy/2thiYg0bDGvYTD3MseeY1D+KFa5SayIPxE1iRhn8kHGkFQcZqZi7jcg9PQWFepCxEDUr/rQcI3cWpnDlMbKiuH15R9ByzhGr3fI/4wSrrWgKTqWRSh4Q2qo0j9FTx1uPSJv5gM55MEVtMMYd+gJtWy+/od8XAKxx+lGTQGv8i/5qZv8+U2nIVHvuCG80KNW26Y1Df/Av9COV9O022xEXwoqIjN7V/Gja9/o/4UE9Tup11S3SjdHynN93+DA34kvO1cmEPFp9ADDxJUQ4VaJxgCYFrMOSZPY82kNN+h9fmQj2NNouzQf8MI1hb3p2QngjbbPrXjmQu8SmgZ/yhut5YYUjjBkOKK9GYDzWUJ1AfxF2tdiW48D/TzTauVi8TCRRKs7aqkG1RStHvGKbYad6Hyl/DWc8Dy4uYmTQ+KYPg1mvvk2l8POj79Ftx6GX8LbjsXrLhPvE7ibwmCNb/XJhmC0590Jz7uxwT7ohvPg1GsHX9P2tFJguEHGbRoZUMxvDvbPAAGgtvOBXXTI+A8qRJYBGvyP4fk+aBRJw0gOTbRwUpw27lgxq2h7NAITIKhsrk4I9VpQPahG3+z/SoE0txs2mpMkqtWCsGaPHJJdUoeSCzjacqY1u+PbjzQGHZHGsFw7/4UYDsNQM7fXjytK7EnlFJJZBEMx+mBgzqRPPlcxFsmbSmq1QVQlmBokwWoC+0C770zyhPctabQjJ0VeO+dUZ6g/M8N3Gj9HxKULReFWWjEELVaVSIYm6KgkBatWcdnmBrdv8X/Vi0tGpRYB0NFOcCdGJQVNKsUwXVxS6YmH6xIe/SC+DjwIMCrgtOiWdgW9S2H3Pkq1HnGoFK2aGcznsAN326i1jkifRdAapOfxo8dVKAtuO1csDa6AnR59oO1u2GX2hDuq5RJjfaDZq0CgDt6jWNHX+sFGjn76uuEJx+66ZSx6MbzAB6w1JOGI0VQ1m2HdOYDZ5D0rC1jn4zxh/DWc8C/hioh4cqlCO5RPifguKxYNhiNUH8U3noOIEetkRijOEF50aS7L9hjCRzBJSThSP4Y2LDBHv0nnKB6SrCTDGXKdG0jR3I1dEzkRYq/eCv1bGL46w3luXfMlLNe/RCeTdyyn3h3XMAhRWs9SNCjdKeSHopoxToUdKvgkYkAD+ITB14tiQ1wne5sGcIj3uuKHJ/VTvZhy4fkrKLOzDYNV4xeemrdHVRE9eNKnL2EkGM3X7hSkPE7M0b6C1iNs85U/oSygurEAumo+eTJrbVP0zOcSVa75REMHE1EhH0k0KEsGUjZuKe6EAS2nyVoFMAnB5UJsgjxBLUJtfMZdfG1HbRW2Rs8ZDRI9Sp4KyB0uBRKxgPxl19QJC+Qbv7JURsdLGbRF9fcEligHbo2I1hYAw8YIArFO2vmDTofi9qvVAeGY0tF4Xj75DDUO7N11wt27FGu1kc5h+DcF9XUkrhDSx5YUUaYrFuWlRdJGfbfBYob0g6qsgZC6EhfGt1SEpZIAqhezHatdo3aVy+RnuMv0QQEXi//hXfHCXYeBszCdvIF5idtzSs3QCM8/xezPAtG3vsTLG5POxDUwi0hq9iBH2ip+WoFvtnxcIvnz0r2Xwh5judeg0POiSSPpg6+66hyaYR7fAOYsaklMArw7gNeVba5LPhEkD1wzG+5o+3uz33ynWoXRdht4q2VjFZ7lFE2JrQAhlSorFedTSAb/jEVUSj9NrVTJtXo+JByJEouO4a0StidBmSbgaIN1L3HO7zlsv84XzZXdCK99meF9QuEfHJDOyoMzdk/C9xlLxp/Vm82HHT3HY2u9wBa1TNA2dAHjCo5AChKvfXly5dWHat+hD/gpVQJCGfqotMMvOhl0F0PO5a1dTmoLWX6Q69IsZUXetqwx/6F+fSwK8FvAgyl7gRHx9vFeG0vszOh1UcOzpnmmXxyPHGS/R2OBm9i35XrxreRKTcW3RYvRVDXVPYA6Z9qKUKA4azK9eKbydx9Xjssv29CbKhkfZYA62t20SRQ956Ket7eVuauPdHolYAWCOrBjC2x082dx8CYFFtX3lxmwz4KgJLK0QDd62O26eLbXZ4Rru0UKCogQqbs66MmXTbmpfyRYtQV89ZKS7VTuYZ3iFP+7y1C5ivLu4c28ipqjuOt2ub4j8f081v9kP7U4SeRNvWg6D9w+kdEyERowiOV66Vt58QvyQuXmCqhdjs7v2wOVVW9mFyen1FaUBtytEaETAwNRPA/+U8vSFsPeNPO7dXmB2X/6tY2SVWhcSRxiZDJJshRpWSIjxijFdAmjtw4IGt6gfw5I0ImBkRQ0vKelad4GKIzYO6Zdx/amL0LTnP0ngiZBDCC9VneAQxeVihIL9PleugxaSf7e4uQSQAjCFbZVQx97Ni73s/wX/h7WEStlpmyLUImCYxg3smtioWbrDN/Qf4Fy/MysnypImSSwAka7ayut9BgMo5yA52wGi+JICSxMingBMM1Jv0jNlBVE2mQH+77yxkaeqkVaETITPwGTjAjn0WG+buSMcgsmLB5fg92TurcFiEzAZIg8NLea/xEUTJcWtpHlbLSAthFyEz+SJO0I5yU2swL6PsHWapI9tH+GBVOmLAfFiEzAYqgJN3cMhnCVB+QVXlsND06Oo4d/A+xhgQpuXgiZCaQIKjcMBUN3M9kVMeTeysFGEbbf/3fXTjDFHbolwiZ+QQlacWoEnAFv1w3/WTKeg3oUJqbnz6AZi6zuIcImVwEQX1i0S//Cp9KPaOXO3GKc5xy2IhrutCJsm8jk89eYxCMKt7eU6vSOH7KYcY6R0A1lOKMU7QMOCyCImRyEoxOEJsH3330GIyX2k+JRpcPUJFHmFJ7G6/MddYYFCEziyDpHQBAO+0OhvPRCxYw46WbMrU7WOAwNBeuYK0JVprFakuZfAEtkCAwTYLhC0ml3noFXH7iiD7Ztyzkl5It7AAZBLFwVM9G+ZLEljKNRIWVHIKDq6ZGU0wA5oP2fp55XTMeJR0sZQ0AGPQnT3icgSVlIs6cBNu6rHp5DOOBb3UVEHbw6iUkRT7A3gPOMZJ+kfvFtpDpFCZYa+jrVnaTvmw+46awzGs5T3yuAGIBVtm1sd5IZnGC4a/8GvA0Bga7A0mVn4i5QkQuFiFYXGYZguFAcZnXpJCN+Q5zZYDTxLwlQCHXzyIEi8ssR7Cmz356qYcWLYv82iTCuUJq/CEHv9IyQUmCkba2nZbCPM2uv1pMMvOsBADaAG5yadFyMgFfaCiD4Asen8aDledoG8S/F6/Yd/tJ9sChKwKidVDSkthSJmeWbRrBCPJovlRfAVPyg83vPZwl2tJd0hYJtDrAQE1iS5mFLZlMlxrcSe9vcmPkB7KyjgRWST8QtBtbLLtRhMzSBGExy9Pvm3+RVWKOAiPxrfFcBNZZ6rYyC+4msgn+iE1yLGv7ES8Sn5grUXunUB+wGiNCZmmC3+Hue4AeQ3MGaIxvXevF1hY4ZMkWIbM0wV10BoWOaOCcAQ7r3AaW8JIUps9FhMzSBGsoT+/aRz/34EUDBtwwM15RRdmUC2NEyEyAl6CFli1ce/mBozmXbG8xrPSY5sMUITMBXoI6LBEEAh//Q2fJ/pRYmLh2zHxCiMwEeAnKU3jQVedaYReoznXaiawImQnwEqyN0FGlw1H+v9GPn5aUfpo6ECEz8RIvwVBBQ/GtXA22u0Ynmxln/yJkUuAnKGNJsdo083vLoyP4qKR8fV+ZFPgJIld79L0zT69Qqdwo4S3L4hAhk0QBgrWv2IbNyQg4Ohmg51jFekTLJFCEYAP3nNYDdk0BWZ/V8UbnHFSKkEn+QAGC8qKNtQYo17PkK73pDb4hMNQc5ShCJoEiBMPNGFHUKooI/n6FPrn8uDfsElFXCkd4mAiZpQnKFun8BtrpfjCeR1O+NzO7+w5Vy5onXU2EzNIEQ/uRKqoeDatN0kUiRhrc8KU7iZBZmqB826Z/MwUADDnT1UTILE0wNAiZd3Ek2+JlXc7xDjJLE5QbX+v5EfL1bpEbtkTILE0wxNV93jGUx064eGeZEUoRjC4pyrgt3NAmJZJhRcislSUYhefcsDNVgOH8tMsVnBEhszTBKA3OVeoKFvgPXvL0nOmCP4v9HWSWJhhh9/sPs919PcFwPG81GP+69UUbby1zK4KvEkb2TFXVWecNk5jfUOb2BCuOfwl+dvxL8LPjX4KfHf8SzJcgYqG3ep35fN5bbF/BpnKmmvz4sFTHrtsP4brjsWr/xZsDwkSljO2ars/MCDsI0f+6e1vUyIjvHyhYt1fE1sbam/ZxbhhL92uvbM1PeIOEVoCgkA3vYsxm90qxz/AIc8GG2Rn8paWFuCwOsvhFcOdFZb4A1ef/wfeCGKfTk5lDL+rFcZmyWR0YMnbE94IIF5+1zGX3OhVTMyzScRIfbPCFJwpx/J6oXPwi2IVrZ92hq2x59FSqm71e3s2uu8m+Ms31em0yxu2wqP6SJzB2SM39OEIOX/Q+ya3vNof2KHpz0VmGSz5FvbA2RXfPnuWaDCKOuk5IBn11Tsq8tUn1avKfz7+iAYNP0pOkNj8m4gDUwuefaX7tJCfKYm9KMCy6XPTi+C+QEx4l5Agb15/hOsCW2ejgs9EtWqUWhuOAbM0uImDgCePn7mXIVLGZOi64cUHBKkZW9VghYSRYx5iZHdPAhrI5LqZontH3PswoWCkiEOgAEewz4nvxR60fqA/NpxxKJPCCHell0EWEXS3GqM3Z/ELIS+xr5DxLtx1FSmtpmlRE4JyFFgA3pbwgIXOGPkdeaRgSPiquyorkjyAk9HEP8jO5jEx9iBRSkaI54adEraEL4sey04JX08ATEAuXN3PMJ3OEjIKCZvcQpbMBj6WiUsKPs5AbfoxsNJNX76txn5sFr8ndRV0YbgMOktYEM4A8G7kB5DM4Qr/yyjyBr/QL3vCoY4uzJDXpkh3MFIAc5KUAyKix3JtjeQi78KngvmmBX42p/U4t5MwkjjzkJHE8wraq/A6lBZyFBV56gfyAZ7cBZ/CErwWsNJx8kdlpOA8xwT5nCsSLTKh5C1ozIf4hK8soBrZZSCZS8SA7OQuu224RmagLi3vZXOoWO9Bezk+uXuz7RCocF1AqHMvihhqxWUQmNH64NS+CfExVCgCS8/v55WTISGZ8+a35nPoRvzfvYMWZUDIjUY9QtkajUa8Du2JYRF1c3ccEy9wEfBskHIIAKFIyHTXE48zt990ZVmhDPlHDfxojQw6lo2JVC/z52I2AFsFCLfXjXYVZ6vag3XZ2uYc61AdX9y8jzLxH48tyX/5pjcxmmFCM6qD5U9qRZBZb0eDqWe6eVfkgyGLYguqwE7cPTa94UiH9BlPCv8CHev0dmmAxbWHDF0sRjC6ZyDh2gA1txDrQXML1CKp9yBkm9SOCs4QncF2sffP+lgRl/SD9ZAU2VI+7y1Rh/v06JgjHcZJgQ/1wghFmq0RBf7on7JggUhHxLyOnEIPgx/fgC/yni3ayhDBeZyjeubhIRXTMTZ/68b/A0iiwLIPMmIPFFjQ4B91tCIaw7KNzT6LuL4DFbaLtdcjH3MGKjb8OP9OFN8ai4jbo3ENfJrRoocLxyHGx/W3Vvm5Zz+PAY5UnqskNfbxej3X8vLrR6a9NFR2PoPJE2DBsLF6Opc01JFhoa4fWwYI7wmzkFphiIqVolbywQtSg/2H8fpZMKnJLhDGRXSIM6lO3iMxtbNEMcBR5SyKnyJsNCRa4lxkpqf6bBi5xlOlLIqf0319Q2xQYbGgdLb4fzAJXoUUaOYUW7yDBAmcNz/Clv1kyy4OnVCaF3FKZcL9k7nHLRHuQN74okK/YKYHcYqfI7zvl9a98Q67wN77Ii7NcLY7ccrUWcuPyrvVwaXnbVbAmpuCw/xW57vlkosOJwoegeRBShhrZpSbPpY/yLery8VYhiCwIKSSOeqSv5oeHnIzh46aAqwJFlG3HI2R+5DYZ20puu5NgyxdQeH+OnWkus2WeYPzMYhe1ckLIdQxYDIw5y5jb/u2Y+1uUhojLLxZ4GNAwfW7P8OcE8RNzJcoe1vAdV2VWot/9NiSe2jowPBUiLqCx8babZiJEUW48U4HOgvovgogrhKwh0XzT3VssMJmLHuWH6/NaUmUg5GIpi3K0me74Xp3Z8/ncXqr3Y6r7+jaHzC0g5GqwrwlX4o650+/3dxhhzjOx/GpiLmKbJ0Ni2XAFzr8YQq7n6+WF3L8Oz6U4/YlDxAWLmUkT8bAVtf4lwHGdJSMSJRv6U0rWC6TnPr8XvwgiLjkNrZU0jqFmfeeruMVcU7u3ZHaj6S57JWVuBREXDY+e1PEOSicI/6s//psOBXg3yLpl9Ybtl12GE+wMe5a+/VXRDV1f2CHLEO54aS/0VJn/A+oeCsF008kWAAAAAElFTkSuQmCC;" vertex="1" parent="1">
          <mxGeometry x="350" y="101.66" width="45" height="45" as="geometry" />
        </mxCell>
        <mxCell id="wC8_cDmadlpLExYwXLmD-12" value="Github Actions" style="text;html=1;strokeColor=none;fillColor=none;align=center;verticalAlign=middle;whiteSpace=wrap;rounded=0;" vertex="1" parent="1">
          <mxGeometry x="323.75" y="142.5" width="97.5" height="20" as="geometry" />
        </mxCell>
        <mxCell id="wC8_cDmadlpLExYwXLmD-14" value="- App UT&lt;br style=&quot;font-size: 4px&quot;&gt;- App IT&lt;br style=&quot;font-size: 4px&quot;&gt;- App image build&lt;br&gt;" style="text;html=1;strokeColor=none;fillColor=none;align=left;verticalAlign=middle;whiteSpace=wrap;rounded=0;strokeWidth=1;fontSize=4;" vertex="1" parent="1">
          <mxGeometry x="400" y="100.5" width="80" height="53.33" as="geometry" />
        </mxCell>
        <mxCell id="wC8_cDmadlpLExYwXLmD-15" value="" style="shape=flexArrow;endArrow=classic;html=1;fontSize=4;entryX=0;entryY=0.5;entryDx=0;entryDy=0;" edge="1" parent="1" source="wC8_cDmadlpLExYwXLmD-5" target="wC8_cDmadlpLExYwXLmD-11">
          <mxGeometry width="50" height="50" relative="1" as="geometry">
            <mxPoint x="270" y="140" as="sourcePoint" />
            <mxPoint x="320" y="90" as="targetPoint" />
            <Array as="points">
              <mxPoint x="300" y="124" />
            </Array>
          </mxGeometry>
        </mxCell>
        <mxCell id="wC8_cDmadlpLExYwXLmD-18" value="- create PR&lt;br&gt;- merge 2 develop" style="text;html=1;strokeColor=none;fillColor=none;align=left;verticalAlign=middle;whiteSpace=wrap;rounded=0;strokeWidth=1;fontSize=4;" vertex="1" parent="1">
          <mxGeometry x="252" y="82" width="90" height="33.33" as="geometry" />
        </mxCell>
        <mxCell id="wC8_cDmadlpLExYwXLmD-19" value="" style="shape=image;verticalLabelPosition=bottom;labelBackgroundColor=#ffffff;verticalAlign=top;aspect=fixed;imageAspect=0;image=data:image/png,iVBORw0KGgoAAAANSUhEUgAAATYAAACjCAMAAAA3vsLfAAABEVBMVEX///8giP+tra2+vr764HIAgP8Agf9ozWb7+/wAfv95uP+EZswThf/si0b7/f8PhP/y+P9xrf8mi/9cn//2+v+10v+py//v9v/63mj63maGv//X5//K3/+fxf+Rvf+Kuf/o8f+91/98sv8+lP/G3P9/X8re7v+1pd+AYMpnp//S5P/rhjpImP97WsmZwv+AtP/a0u/rgC3vnWbwpHP1x6z988z++eaO2I3+9tv76Jy55rhcylr877xy0HCe3Z387LDm4fR2Usd+1HzxroRChfaAgIDx7fnOw+mhjNf88OiXftP0vp2Kbs/30r2/suP759zX8Naw46/l9uX644H64n6X25bH68aql9r76aFunvhgleC9MCBkAAAND0lEQVR4nO2deXubuBbGoTdQkxDLxgYnhcRgHKc4xG6mbbokna4zXafttJ2ZO/f7f5DLarMIkISEk5T3jz6NWc/POlqOjmTut1utsPUb9x+uFbZutdhI1GIjUouNSC02IrXYiNRiI1KLjUgtNiK12IjUYiNSi41ILTYitdiI1GIjUouNSC02IrXYiNRiI1KLjUgtNiKRYRvOZ9TfhFxdkot6tR6JgW2U+K8xJ3+kLfPK4HBKZGxWM63vKoBXadwLR4ROOhoSP9GQeJ6XgSA4FvE9Qs0OFUmUZe9ubu7Y72/fva15+zKxrtvev3+f+WQC+FCyKI5H0IuQZLlSfCdeMFOH7h1/Oj06+kB+70qxxfZ+9+zs7Jf0Z3xCQOqbZHdWFUFe30fUUgd3jnY8veyQ3RpFbLH9crK7u3vyMfmRLvAZcASVs6WIqbvITurw8V0f2+m9Wu9eKrbYfGq7u/eTH2lpgz1w4iJ7Wbdn6vOpL2M+y1ejuivwWaVOuHfqY7t7jPOqeF9e49hWVVvCxRQjOtg1rYPJQOFFSRBEX4InoNjOoTqP7eouk+4Jrdw6IbZP7Axjiy2gdvI6+ZGdt5nnpX6XG1ljl5dEAPInyDLwACqOpnPclM9z98inW+UPOztHpzv/sDOMLbY/zk5OTs6+JD+CUfM8VXEFEQIsTU8U+EHeP4PrD1LP/Xz67vMLhnax7oB8efDgQaoH0stWbSsm5cgqTgPj9HPJu5VoamBMmhoOmPDSUldgwtqKtBrAluo+McKW7oGMDNZD5iYiIElujWAzDZ2xSTcEW8ZJR1TiBCVqJN6W4DYqahJqYlsWPI+RaGDrQb/bubH6OGkGrNdFAVuqA3I9sEHVNQwoTZsJtlR3lz01hk7aTfSdEob0ETtoeBKSTee1xpZUwpDcUJ6O4A9DVBe7d5zH1tVNpEfhPWdly4xFU5rsfzRQ1mDYTMOAnpkRbpSsE5vjMvBScZp7DFtBnHSGGakOzkegGFrUZdEmrKK7zUCjUrcF/Q8Unw24DZj0QKTp6gGNiFqT8PVPT98qTupwYzYtAg9MLGgPz+vNlNLC9ugi0J8VpwWzfSwEmfMr0uPn3/f2n9QzlxK2pxe3A118LT+PETRP4kH5k0OdX37f29vb8lTPXkrYXt2O9GvpaWM2Q6tAEkpL9mR/K9T+eS17KWF7hoTNZOWivkAf4T0f7kXY9i5r2UsV27NnF6XY+gwLm1fczOr3PI+xbdWr3LCxwXsaSKVtxLKwIQbGf8TY9vDMzggbG7zZ/ituEp6WXHrItLB543mEoeXzuLjtP8azOy1KTvotxHbxrKzzpOBRkKsmALPKZILk1el0H68qt+d17KXVb/v2KHbRkFs3XyrneIN4wdUKJkWLJA/K3jD6QkNse/tbVwJbUv77DfN5g1g+CoBfdLIpMlWkCzv+ayfw+2173y/r9T/YxNvgnooR+pCFJcdNOY/cQsCAvQ6EFL/O5Y/ntWq1UIzClBBuQ/SCIwxMTt/e9ob9KtdzJGTc4BDyJkyG98yiu7m31VErKj8BaXRne/sO5wDB1jndRr3Sq9w6GbExjiq2dM2SfuUOpyKWNn9wqU22A2wyL0tOj1NlxAKnULOlQiznEiJu0Ze+QKuklCE33Q4UYPPrucOC9K68AOuUmVgV2GqkJHMhsFWZWyJh8/zsznaMbRDCEhXU+S6k4TwNNbcKBs3yFLa47UXGJjS1yqQ5bAN8bANsbKxTZmJdaWz4pQ2OLVfj9cyaxrTYiATBxqhadXCxGV6fBVDBViX89veqNgkTb2Blec1vMERAx2YSvRo8yadMNbBhlkq0eYQI250RZyiSMuVMPwryM3dA0AIgITY9xOUNTmfcVBGQsYkF7oafG1Oh5rChpRr52Kz1ShdZmnS5Ax45vavI22gnpTaHzULFNuQ0eV0y/cBbDxWb3ZAtDWJDi4D4s+tueqpGsrvo7UlDag5bDy38AyZD7kBcl7ZgJI8YGE4nPq/09yNPZXND+GpwZwbEGRjfK4d9Ka7bnBGn8qgxJ+gczKOLcHaIpi20sHWq2qoO4jCBD+OUs2DNqGDPMaKUvABLaPwaz0VWpfXgiAq2F58/vHxXfDiKH2FMwUgDk7N4wS93GDHxcKI0G9T9NcJ2m2Zxo4Dt+PT06O7OXVj8OWXCFGMWSpbGHPYMjGzDnvtXnDBwu66hCVHA9k+4Mv1F+tN8IB+xTYgEZBV3vi+7OjLUVcX2NlhiffS58kTMZGdRxsy8hFZtV9ZJhy+DlenV224cMM4BAdCn/h03CeWpd3ii0SR8CrC9HFYlwzJNb/OqtoIEt6gDQtNHqWA7Pj06/XSMsOsGcheESHAf9fT00atXr9Ldj3obQ2Fim8E7Zy/evf0d6XqLzWLSSI1NknKY2My6gQSW1CrTtEg0LLC4hpNCcrGqxGidWiCZ1I4yFZWTOtHd3KRk0XezFmZmIIaERvdwa3iTxSmz5RyNhdoCNb03pcOo79bYfHyoprF1GVHL7cpFLpRtHWhjG84rpiqR09xwBBoL60aijW1UuYhXpV+9yXZFASFo9MtF3UmrN/vUaHOTFdpUKrWJ7YopcwM+tcYW4IbaALYOZ2FEbCslDgIPbW7lsq/msfn2zRRq/RBpnLw1uyTntBrHFpk1oVPgRAWy3XQD9JrGtjJnbkN25sQUECELEdaPuiYJ9tVKmWHVBAfEJUqCUYbe1EpfRBbUaQCbMXaccOf17Hc/HeBMTKWZCcoCo9uxWt1xKIA3qSPV4QeY2GNTJSDLQBAnJuSgubAFEbfMeXcDE6StcSKt+Ha4f9+8ARR6eeyxzaNeGpCg83GcqTli9eaxK2KiILmH5D87sBQAfKYGTw046ap3KypFddFMXQ5kSSgPYsqCBNyJFo15SSt7VTUJr0yqiSZhCkBcVqDhnYhAT7dKqS1nKe9qtn+bUSMtac+Jwx6imT+6Nr88mVzMuuYGuRFi65a1Pw9TS4OD5j92VFkpufCwYqYhV5dvjhttbMEGQutl6KsukxU3DE72ipXtetUIP3/txsDRdNLzyyd7+/4S/h/h36luphb5qZRZmL0+pXryWcq3oOjciHLviy6iie37agOh95Aaexm5YHoWeH0WQtgXlptb2DJURS6r7fFa+KLtomliu1ztsfEQ9lLRUtr0XkRroyG/P5GTAPv2C7hVdP+R+rwjw4QfwMJWEbg9j0sbfAOhuO4SEtPnCZNR+rvwmfcNVHA0sXFbK2UO6ME3H5cnabW3cMJgpKmZogz6xsFR7bf9N6aW3R3NDP5d/cSEFBWapLWIi2QKntw0N6rYqnZHW61WE/phIDtxDKVqK1nCh8aN2ko2uqOE/WgDoQJs653IAK+lauw56srH4sDHNZ5L+LFVvoFQYvQkyhMrSPwa6mqfRw1YiiUJMk1yo4vt+Vb5BkJGst4HoiAqCi/gBNxKk9gaHNw3PJeAuA1KoUDpfqfXcLtiNM1rziyXY7tWm2NjaVkvn7IK2wa3Ymcrt9bEciU2v8B9ef369QO2VlRi69b4uWDo/ew63BCwcV+CX8D7WH1iDVWXNrqbHXS4oVvDT1GwvQ5+p/KE6mtnheykNHKhoopnTJ7IcO2wYczC5kK//75xU/vy6y7pfPy1w4au3E81zYU3WXMNJzU1KoNay7rT+uPMp3a/+sQa2hA2z+mtpS1E4gdjC3F/FJTVBx+9FuE+244Iiw4IzEnhDUvPnOlmeAituCFhQ33NGtduIgkVqsaxmclf48RFSIyN9rZBjWObJbHhGkNe2ihvG4REjaqT1vner4yToi1iy/yi98a0OWzdbtc0dX1uTKeqqmlo2OSJpVpTYz7XZ+ZwWJpSwVRNYeuOZnPD0g4W44kzcF1b4YEghd0PMRCak/JycHJwnSQBWbFtd+D0l4cHmjqd62ZT6zoYYvNAeZzGfce1eVEK+QBPsoy61zUSR1/eXUOYkiAr7qC/XGiqoddebF0s6muu9KnqoRrYsiT5oAJK9CAhgowoSqLiOpOFZlEnSAfb0JyrB0snYBWiapZUsUKEPkF7MFmoU9zfdSxQPWy92VQb913ge+BVggVVBFBQnOWBpdfDR4htNFcXfVcW/bJ1xWnl5fPzvmbbGWsGoffiYhvq1qJv+7N01w9XVrJf+oDijNU5btlDxzbU1UNHEW8Cr7T8pH2Bd5eagQ4PCZtpLSJgmzaRnYIVD/xgrOoobluFTVfHrizdaGBJBSXP7mtGRb+5BNvMIybc7CJWIK+pk5S+Ni8ud3BsQ2MxuOFOWSmfnb0sWDOTxzaylrYk/NTEVvJ8VpIdLZ/3nMbmIVMEkfGmftdNXrEDjjYrwNY1xnaLrEAeOr6fcNgIm6kNAPGS2J9EHjo7XpLpY9MPCdbC/pSSgVforKGP7X9KW8xwJIuiY91iuvHhDZUsghYbkVpsRGqxEanFRqQWG5FabERqsRGpxUakFhuRWmxE+j9j9RXUr1SjzQAAAABJRU5ErkJggg==;" vertex="1" parent="1">
          <mxGeometry x="620" y="105.69000000000001" width="70" height="36.81" as="geometry" />
        </mxCell>
        <mxCell id="wC8_cDmadlpLExYwXLmD-20" value="" style="shape=flexArrow;endArrow=classic;html=1;fontSize=4;entryX=0;entryY=0.5;entryDx=0;entryDy=0;" edge="1" parent="1" target="wC8_cDmadlpLExYwXLmD-19">
          <mxGeometry width="50" height="50" relative="1" as="geometry">
            <mxPoint x="480" y="123.94384615384615" as="sourcePoint" />
            <mxPoint x="560" y="124.02999999999997" as="targetPoint" />
            <Array as="points">
              <mxPoint x="510" y="123.87" />
            </Array>
          </mxGeometry>
        </mxCell>
        <mxCell id="wC8_cDmadlpLExYwXLmD-21" value="&lt;span style=&quot;color: rgb(0, 0, 0); font-family: helvetica; font-size: 4px; font-style: normal; font-weight: 400; letter-spacing: normal; text-align: left; text-indent: 0px; text-transform: none; word-spacing: 0px; background-color: rgb(248, 249, 250); display: inline; float: none;&quot;&gt;- image deploy&lt;/span&gt;" style="text;whiteSpace=wrap;html=1;fontSize=4;" vertex="1" parent="1">
          <mxGeometry x="500" y="95.33000000000001" width="90" height="20" as="geometry" />
        </mxCell>
        <mxCell id="wC8_cDmadlpLExYwXLmD-22" value="Github Container Registry" style="text;html=1;strokeColor=none;fillColor=none;align=center;verticalAlign=middle;whiteSpace=wrap;rounded=0;" vertex="1" parent="1">
          <mxGeometry x="568.13" y="149.16000000000003" width="173.75" height="20" as="geometry" />
        </mxCell>
        <mxCell id="wC8_cDmadlpLExYwXLmD-23" style="edgeStyle=orthogonalEdgeStyle;rounded=0;orthogonalLoop=1;jettySize=auto;html=1;exitX=0.5;exitY=1;exitDx=0;exitDy=0;fontSize=4;" edge="1" parent="1" source="wC8_cDmadlpLExYwXLmD-1" target="wC8_cDmadlpLExYwXLmD-1">
          <mxGeometry relative="1" as="geometry" />
        </mxCell>
        <mxCell id="wC8_cDmadlpLExYwXLmD-28" value="" style="rounded=1;whiteSpace=wrap;html=1;" vertex="1" parent="1">
          <mxGeometry x="79.05" y="350" width="660" height="700" as="geometry" />
        </mxCell>
        <mxCell id="wC8_cDmadlpLExYwXLmD-29" value="" style="shape=image;verticalLabelPosition=bottom;labelBackgroundColor=#ffffff;verticalAlign=top;aspect=fixed;imageAspect=0;image=data:image/png,iVBORw0KGgoAAAANSUhEUgAAASkAAACqCAMAAADGFElyAAAAk1BMVEX///+8u7sAAADqICXU1NTv7+/p6Oji4eFdXV35+fn19fXEw8P+9fXqGB7pAArKycnpAADvaGz2tLbuXF/62tr3v8H5zM2MjIz86enrNzv74uNBQUH4xcb0oKKXl5fsR0oYGBjrMDXtTlL3ubqtra3yiozwdnjqJyzzlpkkJCShoaFtbW2Dg4N5eXkRERFUVFTxf4GtBqVsAAAKUElEQVR4nO2dCXuqOhCGqYRQQBbrUqtHrbZ2se095///ujuTAILGyhY28z73uUdZInzMTCYwDZqmUCgUCoVCoVAoFAqFQqHoMZZBTeKHEGJS22r6kNqHRYnv3J3jENNo+thahE38hDYOWpSTlM03lW1pKJMTmw81kpKAM8aGpsSifqgSvaSEbYYGR+xaj6xdmA63l2saGNzu/FsNWVwnku30ufHdpFYG6uSY2XewCdPq1uKV5efUie3EtMq5U8ehzO/y72ejwP4NhXa/uBtR54bMysaTpYV3J8XMsYPQsnG5dAMdwSxvEhYYpdP7YGVWEmYw0PVcKhSqiuyR9F2qqoTqvVS0MqGYVE5vw7pdoVBMKr+yxtoFdlnF06hz/N7mVZWfmdPTbN2s3FusfkZ1DFJVt0l7Gar8aoMUh/TQ/6ic8CvBUJsGoq+M7MfsXf9nynITX84VaA7nzpHTsNEzo6LyIq/fr0jlyDsdiRehAaS6iDTHbgIiM5cmVQ67m8aRmUrbPYrphtxQ4vfH/aQ6n/Tm60TyRZdssnUiO5D0JlDZsq95bwIVld2NE5bX2pSQsEAUa0Wx9Fjqr0qAyB5v4N1UUeExLL5cFdlGpCtFj4XHPmH4CeWuF0c2jWVTagJUehixufWc1PlbhhlVb/vV322tCiNdhy/5Zrd1uVbUomERN2mjFxrkLFy04XhapxWvCMaIQQ3bAmyDNm78vPK4VVmX2dYgajCtGr9kEZRXTrfNzDlGierSiuGV0625bOeYLTEro/3F4uxaNh6tzNbY9m/QxntiViPXboPiYIl3oxVqpNIiMqk0W01LulT23GSJKO1WIRNK1YwD2t0SirtAIz9ccf1mDTRUTUtakKPkpZFqWrspUy5FE37QzafdMspOr/9kJ6tS66/m66ZJaSxU1XvgHTWp+uMr7VyGEEPqPXTS4YrUeo1KammUZGo1KquDWWeMVWeMNbobpjSplVfsuazvILxGwuzY2DiNpMJH2xSXSYi2HSa5sDi1JmSyuNLWUBPuJ9gS+pn5pQ1jJNQdxzOP4TNPjnNJqcV+o7sJtqMpXzEL3DSbh9SOw10QvKXbmo62yR28hTbyvLHoCB/GqS3dobZ/+ze7clqVu0Q085hv0vT0bCYIeLrxPnD1NG6wYbYyC85W7JKX/c3T9WCVWLDYpNsKQNmR6wqUmm299JZTbTZ9W+2vnFjFRXD8+blzYfa1k2zKGsPpeoF3JIBzcD28ujNclVwDKxJn/YcJ6c6PC9iex7aCnXZBqQfYNbXlCGRera4qVWmSQ/nMY1mNFIRy31eTRMCYT5l4C6aUt0ismYxdPfgT7Tl813X476jDAk7fG0/n6bgmUgqN1RvNTracfnxcDVTVVSzZOWfUmga6uzs7vlXABECl5snlw63uxoHpH8g2/fCYizF2ru6ttFNESj2BUC+ZjzFJZYHKzPtceOPqW8GF3IMAs3OltD1E9fAj2IU7Yicd+h8s8D7OmxIo9QDtPpxvmYWqhq1+3rKjyYVjBs9y9wKl3lx3F34MJZoFkf/tIUQLmhIoNXL1jWDLLFQT0tnj1ny3cF5AC2FsYJKcKTVxUUDGPnI7dEL2Yee6/wQtCZSCfmD7lEafC3YVUUXuaRR4hL+CeC5eAV4ZKvUyjVhhd85zzaMpYWBn/veku+dRSqiUp58SiPYUUoFSRpGyEIwYwhV7dBCu1J8g6s3BvYLQpCC+ReY25QFL28T2lkKgFGZSQYrszlg+TaCFKjIwCgvz4g12cqH3zZ94kggpd9S3ge8du7k38L8X9o/ohAVKQSe5W0ySXM0OYkorZReryRrquiiDhhwSI30Up4Y79JfdePQRDvMmYEabxWbM2aGMQ7TPY7J1RKDUh8fStUKUVcoqWryGB33etS/AiN6tRER/g1TxaRKvR99baP88PmJj9jZiAUs/F0Cg1ByE32YN4Sc4JafoLfyI1dLhpN9OjvoB48hLKvNcYVYd5ROhvNZ7PBxhA7cXHN2c5RyizBMz2+200AGXnKK3xPPziYtjtc3oyFj3wsidzBJevDicL6DDfGIf/kRswaqGMNYGOfVxsq0VJk/bUQpciOOl99SWWYUrNUWvUeZW/OLJY9H6CN4zYOE6lU9N0PrGGHrB94KTbgD7vze0FTfd1PsQlUotgn5hGN7ASN3QyX7EdvGiYqfUM0NrtU3eSkBGPCTNAi84OuZ8A1/fJyCHF5ylA2NYCP46GaXawQi/Om08YCO+2Ti9cHLa4m9gR1+kUq78c+jF9CHBLOqz5/Al0X9bbK2G/zu7oLgpU2A4ezm2xDxq9pAmGhqnthR0mr/iF+rC6q9taAGkgFTSpvVpNwWmGu3V7B85yF2s2q8ZZfJg5uzyezf1VXbyVX92+vF5WXLNetjhKp/yWHn8T/oforeaPKlkl6t8KiD75Gslw9Td3/s28fc17wlkn3a0ZJWPQdpF/nPJnE1Kn4Ol7ZhZBTBvN5viZA4/t931IVkrFZRSWSsVyI0Oj49k7dOUTWUNVF0uxK+IjErdfN+XeZRSVz5lH+6Xy69XvCpkvU54vP36tVzer3mo8NdrftTG+nCAy/i4Bg6vsucnzKSU9HkSOeZ/A8Z/YOivg8F9vMIZhBzw2+Ng8Mi3hyWJlX/lTjmbbeRby+0pG852eXhEuQztLqGUw1Yc7uGftZZW6hnOARY/PzOtJA7js94jqGVuzO/B4BMcjzLbSSoFMvzgv2BnAypSaokFcLDVf/KiaValaun8wJjYKP8LHCmpFHwc8F9fMo2ESnGFc98lyExWr6pjEl+MOuxHDELMpFI/8cc1E+WCUqjwl6yDszILUMNfcjmx6bAfPCq1jJQJreuSUqDjp6yDy9771zCH9h3ryRLfEkod+CcM3vZFpV5TDVRL9vBTwxT2vym15p+cX5U6QEiXdXA5bo/Lf+BHWHYQkVDqPuz6mNU8szj1He3xnFDqG3sCOeQxFPnvusF0iuUih+XyJ6nUMf58sYXrKHI7bEWs1GcczyonV/CRP+XC31CBJdpQQikaSWjAhzsmEPeyb7ZDpBR8G8i6mLk6NPnzj2C8Plj0hyXbdywtR1iaMLizLf8z1ARyzHvTMg5cGtjt83D4hpWhU1aPme+Ji/xpkh6jEdw378g4GrM2ziczazNeh5Hej7/9SDquXA+RkXLli1l4ZcO3JWbad0mltMMnGzk/hp2K8cPWLJmRc6Wel9/SrmPuNycaNUwkR8mFubqN9GM6yySZ/wyzLEb+uJO3lKgnOAWy7h6/lvkyfqExr397UhW1Dr/P70UXUXzqSr87E+RWASlhGaQNU2TXhV+quzcL/pFE98C0qFSsMZzbMCtSwazpZf6kqyvknhRCDH+nRuve1VIdbNYav5IYwyd2afELk0pg85f2VOY04aRKLXyLTBniF0FVGlziFzjhlG/81USFsEtilINGmPF7u3LM7pMVSsSvyOsyvqy7FLbZH7Uc+S9BtAz2Vr6CUAnk90K7v125QqFQKBQKhUKhUCgUCoVCodD+BykUpP9zht4UAAAAAElFTkSuQmCC;" vertex="1" parent="1">
          <mxGeometry x="17.999999999999996" y="330" width="132" height="75.56" as="geometry" />
        </mxCell>
        <mxCell id="wC8_cDmadlpLExYwXLmD-30" value="" style="shape=image;verticalLabelPosition=bottom;labelBackgroundColor=#ffffff;verticalAlign=top;aspect=fixed;imageAspect=0;image=data:image/png,iVBORw0KGgoAAAANSUhEUgAAAOQAAADdCAMAAACc/C7aAAAAllBMVEX///8ybOUuauUSX+MpaOQlZuTu8fwfY+QcYuQXYOPv8vwOXeP6+/7Q2ff8/P4AW+Pp7fvk6fr09v3f5fnCzvW8yfSfs/Bni+mluPGRqe5chOjX3/jP2PeGoe1EdeY7cOV9muxNeuezwvNSfudykuqKo+1jiOm4x/StvvKAnOyjt/F2leuVrO9Cc+YAVuJHd+YAU+IATOH/LL/0AAASUklEQVR4nO1d53rjOg4di2Qkme69xb0ljie77/9y6yaJYBNByfHd++X8nHEkQiLBgwMQ+vPnF7/4xS/+7ahVq7VXj+GpqK23ASeEB6fDv9XQ6i4OaeUGGkbj6qvH8wS0l/xh4Q0B4x+tV4+pZHS3nFUkMH7qvnpcJWI6BG8xBeXD6avHVhJmG6I18W7mpP7q8ZWA3io2mngzk2x6rx5jQRzOcWAz8eaD4nn/1eMsgHUQ5Zp4MzOqrF89Vj80RjR0sfCOkI5ePWA8OoNI2TNyzAwH/180qDqOmdNEFRGwaNx59cid0XonyLeYgJH3t1eP3gndU9PTxCtoc9l+tQW5mA7NO7+jmWT7z2Z79UlRE+9m7v+5NKi3KsPEm5l8M3u1NVr0v/PJDcLMePXPY3vrhRu5cUcQLw6vtgrgiCE37maG9PhqyxI0BuwZJt4QskHj1fZd0PmKC2yL+WDx16tp0NvOl9wgzCS7V9Kg1lIva5QN+jrRq7stwt9wYM2X0KDi/A0HSn5c9Jp58zdGfB0VJZOfpEG9b7s4ZRlocGx3j9T3r3+OBh3O3uQmmN+C/9rc+wLRj4hex0oB/sYfTrLFvS/xfNGrMSpEbug2udCwiNMK2eh5NKg2CIvxN5ZS0VGxzedpold1zPHilDS2dKKtC+6wAeNPyP213tW01AuNrFyTYu/l0qD2qRSKylIBueB0fVyOnMoTvUyZN/yoPpJLfpRDCEvL/ZUjTt0QrJKLrsqSES40qLjoNbUkF/HgyWX990kFlGwKvs1dubFU8+ERq80yr0r5roiNk5J1jejxzKdRudcNJwVsLDteDB/8ule2KMS8rfwoXZ8KH5TnWP6V3/1snJXoHR5gg/ulB+VLCtzPyZ5LVosvYOP7pcflGxl8+9jYi0sfSGbkE5ST2Ec22D5hIOzraW+yQk8eRpbs5W8gD+96eMIsCUK8jdMnjIMOk6sXCpoNiPGi5fEJMypOI93aMxY8PjtU8pIMKAvJ31S1aPwnDlnJb9NjURZVAcS7h3G8eT/2ukJKo13vD05nHpVpaYC1sYCeBm/MSLA8mFZLrf65J9iqJiOa2LzQoRTixfjqM88dNHrv1Ferhgixkux78dvSKBg4qjCzQrU/6Q2xEdd30SXJyBBDQWqjReG6ikx4cEPHtiRpREhkf9OM4AureqscbZ5GF9juS3Bi7MzCd9hkVq3OJpadjvKll1rYm1tuG5DltNGYDi3OAklfv8xLJNmOjsT03OOJd8J0zYw3jh+U0CL0JZGcIybmWUGT39S51krKiqTXGjv9VSthOv0tz3+Pupd5Lmba6cVKzf/zZcFkTHeum5ACMV2aXwCKo1uEpiRauuKgWEnDErKkY6I+OiHu35mNRHF0CzvP0m/X30lWhptSam7qoWRHU3x0e8ubxKQuTxZHHYl2jICVNv1zuh5PBBF4Ohkbyd5lB9uAKctFG1vqe87ewBJhpG0zAq8SvEtuKvjrfk6iOKRNwapu80Lbw+HRtJt+ZF4hADb+2Vh3aHcb7ew8BCHNOhXDiV4v644X/B5rcGHzvN+CMj4f6Gl1OkcCLu5+DbsWjODoOeycfYvPf3YnIQHTvpTDKstrcmGip5QqYM291lk9vBoLxFk9C+xMC+H38th5wHfCeN8mPIwo1XCcxicLhV2PCJtLQ1hZNDrrJnqPB+FllQlUrb3NCwARHD2fnbP4U/h97fKENTYeJfoCdjEwWYJooXkFPfAS/zTe87NP7hy9Y/Ff2YjPOQmz2UKe9CByl55jEG9yGH3PzPgExK4c3cbOhWFZE2a1k0Jtg7n4g7l8Pcq/TBe7oLN1efIIju6aqWAL404302g3wUb8xUZdEuHcGLvMQtcxuXJ0CzuXhs0NzuxL5yAy1fUKHW8JTDvtyFlxgjexAKFhNbV741473yGL0EueRLsEVI5sRuxmIyYNzJbq33fO+pkgxC9/jGFhqIuWLGxVNdKNo6O084Xy522TlJqktO4w5XzYSuX4iPG4cnQbO1dAJ7LPbm0MfAn6BJN3I1vZyLc5akBLJyNRolkQqDHyQB/cw1yFviaLRqrreTPqLFqoc0uDN5R2rmXl3YXOAjiR1rr3HW50BHuNyg5xF47ex2jn0GNm+NA8KUieNQUggYkO2KMr620MsKgLKmJTPWZPDu4vdwdkZKYYyRYmojjFTC4njo7RzpmZiXUUYTYCNsgbVUCW5jFhfKELR3di5wmsdPgo+Z8YMPAufAY0ss0ylJ9w4Ohu7PyOHKLYngP/Q4BHeAMPM5rYFTBM/inOr+jB1BHlPrOdWCjIwa/FbEvQzGsXgUmXss+ci6EoFAUUpjPXmDwTgkAO/ysbNjtrQskWCMwwq9KBoyMeGQeR0Ue40OxQtWG69ij8n3RZEF1ZXDeMwdvFOFiSZ2PXfeOFmYfLhAqYjhyvH6KF/IAfAR0NdWHujFSCCMwMRK0zyePoCHYO/eFtPnHdgFur25YoR2Wz5nXY8VC3rm86J9yftAxJD5bH0RFzH8yKu2cwRL0DHkVcufOBRLF+PIO75wWvsuZe7JzL0Z2vVGFgKSU+nmt3lU6vp9kiGnU9xXl/LBkGViWisCiHoyNcNZCMsgqr2LO6NoOQSxb/GcGpczi6+5VgvZ6wYkIDZ3dEY5N5hUh8jggqlsPR3dk5jD9E38c2BdKwnQU13cNZX5M0CAXujhq4DDjL6dk7SylpJ2JiAXH0yc7Ra+5TgossRdp4KPU8QzWVannAvEMUp1prXRDsnIl/J8+kgHgduunJbg9uBu6Di2wc3Z2dA/7SUH2ySXa2QSMhAyqoEd0NsHJ094JiEGXVNROJo0tsNfUQcFG4V65bObr7hACr5VN3d2J3cQpOupsD8QtRuRmZ79N19ztAqNaTkXiJsXGvtYCK1AIh7XMzR0ccwgUR8EL/m1hdGbXOFZrW0oYjUyATZq1qhLBwdEutk3xz0bmaquYDZdJUOblD3kiN4we8ChEGLo1GGt6Ibvzidts2zXIub5eJ4E/l3dq4BxJR8zw7j8/M0RGaGHBfddNa4dIL26bLgUmV/1XTrWNxw0VIM8TE0RGnGsF0MP0dkxz5p/C6YmmH2RrcAYjMEcGukaMjjokBmVoftNNYUrbgUcUm5ESNjf6QP9hDEMKkkaMjZBRwDY1kQuNoKNf2S5OaSf9d/wiImtoEqTDEOTZYoJChhtE2Rf1FCg8oI4vxTA23ICujmgO63c8NlyoggDpgqadWwPXxntF/YIykETdVBcL3YFDfO70lI8LpIm8jDRxdS85cjEymK2V8sdO8wgegf9IqkXdMB5cXSoNiRho4Oua4n+p4WMj3xsLOGzpAb2taUwyd/jKMri8UrElMVtHA0UNMzk6s5OjHjFTee7nJJJFrwPIsLaaDFQ9j4F0Rb1J/ZrSLynSK6kt9NXKqK1kKY2ROol71MBT3O9RxR62OjmqRY/LQVky/kz4ilKx8jo64S1kVA0d3Z+c3Kz3GmLS78+684s6tKwaOjrpC8NdTdpzuiX8rwb+o96Dh6G+YNDr7/vJuxDX1byyz3mOWlIajY3qOMJ8VWQomiC1Aw9EdeSFlLOL7l31EoLEMrye+nSzVcHS73hfQMIxIk1QmH6PZazvndg+D0yYgzSbJOd+u7gANW/oviOe7w2zaRnWKe5sd3ycbl08qtLeV8/ar30XNj85be/a5t/a2asrO0cbOaV5NvXz/+nE3YTxijF5md26p27RJ720I4vN20Mftny1bRZrC0S3sHNEEpjNd7/asGYZZc1NZHlCxSn97M5XPT4Ne23mHslipcHQLO7domKJ5h/E+INHFPGlxxznjVeSdq6lxPD99OplqOZ+mcHRLg4izg42Dv8Y2F3mnqQ1q5NXUvy6NLsy9YgNJfDCqitoztO3+WvInZqEvv57PrLrIubHu16iuPDKLhEdg6Gdj5xJN7X0E/LKf7IagbME43fOLwIxdweDzOX6f+GWTjvfSA7bMQYmj23o7ipn72Uf0aNVBKeCG2vPNV8jaq4qGaRaFoF5mxZLqJr4X/uNgaxYAzi/Yhbqk0KozqojNSDiYTAYv51L3boqFwRRqCRv59cuOj5k4s6UOpKVi+eUF8W7Wqh+HkjIKMk7XQjEd1JRzXQmzDOE6rFmX9B3KV+PerJ93ggvcJ4cN0pBoOudEwMNrI1plj+3HUaTU7xpmARyhcmkWhmoNuDRucAlUMJkgBFK/9n3IR1Hqt0knl9n1deuKwLp8r75kMKRECQuGa2iWVhBK2/niPmNkXUGzKCXx2ashrLT7+TWSg/OuockWSJX9SdYklCqVNYIqLB2rY0L6FNI5AL92gwEkQ6rvkRKU6WMIQrinq1xCynr5zbRIErAxoqswFJjUkSesnO/IXhiTXrHMJaS/9HuRSk4Jo8CLgFf5hmONoRutCkOFpd3KdscghfBr0aykW2p+zZtCeJ0qZGiSfxHFZfn8E3TvkGdc9h2fsVVkr3e5kN+MIFAtAPXw0pNswz4h0A6Q/pOrnP2akhFNstmvL68cs4nlcRw+ABguUKjAiNWssTTNdl5LSd+7F3W2LYX8vNaplVLbQ9n3Sgs2CxFiySmhjqOloHrZtOP1wIJICjNSK6XjREpwC6lEaopsY0IgkMMKDLG65yOT8+KPGSttompIBFlh4kGJfJDPr8O/WbNZe1kZyZ66fuuaKNmgWQvQ+93LA5tyLkqpgXWz0dJx8d3L+ShHXt7OTDrVoa2klSRudo125DjM1kfJjNB6UNTP+URKO4sTgVnWjjaIgCmZMQs3snzd8FqQusoSATUvShBUlFXe/w9YFB/ahwf9b+u/akGIV099zXAgUEn1bLSqJAd8btuQhIDuQS2rOPk5ndwy/4PXIsiZICYtL+fPdl6Rso7pKFf2cj7M1uHQHERYBzT2oqyRU1m437clbN95MAcRgeXsmJ+N1qedoRZ4eR+6Mi33taEH5hXEeJp56RfHVxxTRZacgdXKhaExUm8bxrpECWURGZoa+tn6uFpsjJ3PFvmxjAuNNdbLTT+3AYlDdk1ZXpOWLIxIMBwYK12qc78gHnPmZuzZO1t/RDQZ+LQ/Gn+cttvTx3h0mNrS1krHTEdEtl5iClC1JOJdcpoiuEHbYssBzg2y7vCjU5VSGrw+DnrjYXPV+jt5d7RXWyPhMPL9kFdgPEFghKfzuYD+LfBZ5ZrSt9AZ2vP/Ofjy/SqKVwVlCvfzgxJkZcgNvh8usTTpcYDvh5qY53lxT+fj912kBJ7fC6Au5Rs6tDwnbKbOe7ggryTiZe/y9gN+nw/LMtC1v5u1S6nabPk3fRx++TUfp5Ng4EOS0zRHdcloyDcDa9Ha2+F07fO7Td6E8WiaDXFe0yIrTOfELEhLIQbNRzPmONp/9TTEuTM7nhaPEyC0mbgrD73c1+kkQLU4vNmUiM1TsVzjWjO3GH58HdeHXq9/OH7uTquIgyKuJMdeQ2+UtJCnu6CK/b52mkRWhb9b9HHDNRiRr5vq+riGgxdEhT9mbKxC0iM91IJXxNI8F1IX9fxeIcAI18kxGSmqkeENaf1UG/V85OOmfsDogmGqInnsBGmrpkHBNro++HZ+KRnZ0TWRyEP2ySj3OgiN4uuHqvNbIanK45OLylLsVedHxEr7grqr88moecOrmiTraPjpuI/wcj64fcPRTb/LElnW4kUjBFXBbSIQzEdQcrF0uamQyPL7HqpwAaeSG6metTBWDqMWXoSPiRUxfnE5VVWa00ngUlCQGenjW6/IivXURr4qWOlHjRwKCrLzx76iQlay4dDusUynk2Cd63zSXRJJBQWkdS/5AkG5TidBfkHBg+90C3y78pFpyI+3fL8jnod84hwNZ636zi9f9AA59aZ9U1P8DIZapOLo5G/w12L1gp/npGGUnwkx1iIVh19BwTPgdH7ME5gPdzwTxJTVLAV+BQVlw16LVBx+xeDlIqdmpDg8CwrKxBOdToLXO5/8WqTi8KzjLs9G7CenveBbUFAOQmSLSl/4VTOVA1tNVKmoVV7mfIJFwc/qusOzmqkEkB9wOgn8CwqKwaf/rz+8CwoKAVeLVBy+sX8RIGuRSoBvNZM/0LVIxdHCfbesBBuJ8euUz8NPO58iZQH+wOSeikM5YvNDGP4g88nvePMsnH9sWXrXIhXHm6dQjod6hujn4HdOD49niOXu8K2jRoFGL7XxMmM32BoYLIJYOab28+ifiVuzPC8LGZn/iBKQi/ruOybPAI9W4xfPVIDqW1FUVby21eEvfvGLXxTA/wDliCkzHZBh8AAAAABJRU5ErkJggg==;" vertex="1" parent="1">
          <mxGeometry x="50" y="515.5699999999999" width="61.91" height="60" as="geometry" />
        </mxCell>
        <mxCell id="wC8_cDmadlpLExYwXLmD-32" value="" style="rounded=1;whiteSpace=wrap;html=1;" vertex="1" parent="1">
          <mxGeometry x="130" y="410.01" width="303.89" height="105.56" as="geometry" />
        </mxCell>
        <mxCell id="wC8_cDmadlpLExYwXLmD-33" value="" style="shape=image;verticalLabelPosition=bottom;labelBackgroundColor=#ffffff;verticalAlign=top;aspect=fixed;imageAspect=0;image=data:image/png,iVBORw0KGgoAAAANSUhEUgAAALkAAAEQCAMAAADbFyX8AAABRFBMVEX////+cz4AAADi9fzN7Pb+/v7+azy10vP+YUKxz/Lk9/wHCQn9/Pvg9Pyz0PP+cTr+p3f+ay+71fT+bjX+aEv+imL+ZiT+ZEbJ8//29vbL8PuJiYnS7vf+ZiPs7OwTExPG3/b+VTHU1NTT6fni4uKRkZFwcHDn8PuAgIBQUFA2Njb+Wzn/zsG4uLjExMTT5Pj+UixcXFz/8u5DQ0OZmZn+mnr+kGz/3NIdHR2srKwuLi7/ZzTw+v3+cFf+tJ7/6+VYWFj+p5r+fE3+w7L+jGb+qpH+oYTczsz+kWD+tarU2+L+dl7+jHn+0Mn+g2/+mYrSYDX+kH/+gFT+xrXiv7fsp5T1jm7wmYXqrp3+nm7+i1nltazqqp37dk/fwcH+3dnumI1OJRZnMR2HPyS2Uy6eSSkjFA7naTnepaTMusn+Shv+WgDuEpZVAAAX10lEQVR4nO2d6V/bSNLHhYlt7PiIbLCNgxkfxBDMFQcMhCuBQEISkgm5djbZYTa788zuzP///ulDLVV3V0vygeXPflL7YoPdkr4u/bqq+pDGsn7Y/4DFD5c3N+v1Ard6fbO1fBg1U6DFlzfruVQqlcvlksLIv8knhfrk4hPqAmUWrK7xn0E+y9WX41FTahZfrjPEVCpZIPJoZbPZNDPyj1aLSIdwE3ri+8mC59ipZL3VmubA6WnXnA+yrXqB09eXo+Z17HCTYBMltLIysWqcniiH/MTWBDh+mWm73vKFhvSteorCb0bMTrhzqUJIbAE/3SqkImZfThLuerYPbAHvsEfFXaAy6Z+bs2cJeyoZRV89LHB/D4AN/J6qj10ym1Tfg3M77DQ9tcbKvUwumWwNxc3Z68TthTG6fZPe5oH0rbFnC7lkalxqnyf61ByeHRSdub0+FvBleoOnZfD0YfxQvQVprQwwsLdIYirM3z44VcqmihOn5qJMZ7ML1O5Qo//IZqf9qoLxKIbc25zWNdOM/JBRZB1i1Qi+kZ4p5pbTEvFOUicQ5FkcGtAb4G9f7AQcDeKMPOuPzc3Qk9Ot20Uv5HIFNaYwlEMCHuDvAMdT9FxhfODZNBVJOktwQnIb2XmIuS3wpOrxQysetw77gBbsmNezt+X1ugqePWTytsLKRGbX3c4EUx89OInjBd3hBDw9CDgxJES1biM4kswph0MeCQfSitHtDH3EKemQnBKCZwX4oB7nbtfQaVwf7YRSMpmCmTPrKOXQpPFqtcKtWq36oWvZmPSm3Cir3joZtmngliH3EOpXHz99vp7KT11//vTxxULFTK8pJl0YaYAhIi/o4LjCq9UXX4olu1jM56fyiYODg1Ip8eUjoTegq+RZUn2NbphE7mA2HHhl4W95uzjlWoLZwUGt99HkeKyXjkrq9RwUuQOOdc3qwqdSMT8FLeHYQeng2x2cHZH6iPRC4kpdA59GuCtfS8Up1RIJD/4b7ncVPTmq0FhIJuF5TR6vvrq2NW4JPXGQeFEJRmd6GUV8WU5BrRjBK19reQxcQk/UPmHoSjdN15O5UaRSuVwx5c3qRQnnVtAP5jC1K8GRxpfhO+lmCiRPVmShUWUOVYpOThSzEIie3syNoPRKwRzEUycCfq13zf7Q5UKAdtJhnd4iLle0omf86pwDTrMPovaEgo78dLmXkmHG0E5PApdzregpv/JZgL+8d+/eL6c6u4I+h3RTRS/JYcPLMnS5YQRU+eRoPP/LPWanAeSJgy8IuqQX6vThwksBqjyOirz6ouaAX3Pwe78EOT1Re4FIXVP6MOCHkstxrdwR+Z5phVkgeeIAUbqkF1IDDJVIN+Fgn80G6Vr5IsKKEEso8kC9kPH0MNULTJ+HeFx5VRN0rs8RtWjotVeBTh8mMJK6PNDln71IfuqQ/z0E+cHnAKeT6mWIPlpP1YNc3qx5dPm/M/CXWP2ikidqTb2Tyk5PDiEXKJYglTP005cvXyLhHCNHlS5FlyHkAsVicPkdpc7KYynU4HTkbLBopHIZdFgHxJI1xPKPPoVWkNO/BsT09OAVQA7M8VvoOAj2z77JsRpA6qP1QZMRTENMLPqFVLH0Q56oIeeT5TJoMmqlCpJY9P5ZfRFaLAj5QVAJQJJRsm/q+Lxcs1ho4q/+bSjybwF1OomLuUKf4WWTbr8CS1lpXCzVi9Ayx8ixZCTJpZ4kdVeun60BdOKWHuQO4w5RsdypXJtiYBjyxD+w0TTcRrXJNuD1s35U51v2UlDm6Hi/FkzsQ17CyOUuyrcNhicv8I2GUgfF0tBC+NCCkiPgktCzzr3vm9ztoHSSBYuJLnmC/G9E5JLQc4ORe6ElbRjxU/JEeUZYwgefs5adxuWymRwKvTAgeSugg1YXSjOKGdkZt9S0PIPqXOqi9RGQI6m/+upIBTezq9zUOm+w+S41LA5AnpLItTxU+XWLX7+x1Zmd7Ww1On7oDjdpTM1p25l9paODLirCYt/k4hxoaKn8h4E3Zi9vMvSYzM3lEf8pZRN4Z+vo8qpL8kp3l7Sl8J2Ojg7JW6MgV8G/UczG6xvank19Ebt5y9lx8K03rLHFU+LJG/7LNfSF2yWvfKXX3Trj1MIs66qDeZ2Cd8o3UmPyO2eY29WbKZGnBiOfBuRyUKw2mcNOJG7G0z3qaFqn4I23ltrYir8lbTtH1dGTuynU0sI5E0VXA6euZOhSWKGefa+B07YM/beKkTw7avLKN3LFLd3jDCejSp2Cv0bA2c+kmpNnAWAqGjn5AtFK48wCBADMutmS9MK0ksEbW90t+rMqoybPGsir1OVH3uWtxY0mRH8n6YWCr5kaW5f07kmDo9skrxA3Nq4sl6UdI/ZAduQMVPms9138EW287R3cIE5/V8HJB9a5KSq+ImRlD+Zx7C6x2Ir3yfuOJ5eyJCzR+L6L/oy0bUg+H0FsEdlfIa9+7cx0nrmXXmcshGbJ/eiq4TmddsGM3njREr2CtG3APjqCTJSTyL2EUf2tA8XSFjCeBOJbEvlrz+Vu4323Me3tX2+T3Ku4KiQKb7mx3HokYIBcjtzoQmTu3Z+49VQ09uRCztb5ZiAfsOLKbeJVboVwbXkw9zU3xq03HUDeuPS+WBGN111yEomkZAQrrgGrXG80dyitbFVmCY0H0xQw895n7yTyNaRxBnbRzvsRkxfwMRH1eQOE75UYwYkBl5vJqdBZ43Xvx/iRDzia88jliaLKa6gWGjAexmKPmvATk1rIV/uP5caMHKplGpAPOvZPSZNzbnCpvIc9NB53pqDi4AOvh05JPRRpTH8l7KF6Ch2EPAuDiztTJEdFxKyMFBU7b33axq0ZOSrqQXEAcsPgv/prQ/GjCkMzkRhdlKm0zI2tky05E0kdtG/yzZQeXIDQafaf8SNXs7/PDWIlF8z+UOZi3ic8uVVIEXa41U9asqBd1IdGq7g6r33Iy0rFBadbKEQq1d9ENO1Jmymp5gJy+diAVa4GQ2OiNxSlhcuNqbG11pCrXEXmhbg1yJYLecYFyKU6o8Q6CQYZWcya2sY7yshClvmgO0U2U/KcqCsX2kfNo7mOMvqno7l3ODoL/NLAQppVHHifK1gPVVYVadHV1wh6C71D1jN1XAFncrODr4fCNWhli8hCp49ZixmOrs1aWM+orsp3gMHIQsQy8JYFuO5Pr+XVLnzCJexMEZvMepNRZoq6bxvqJJcyBT34ur/P8nn1hXl2Tp9Y5JOhl3GnLf3/zCWbWZSnLKQ5xSHEIm9ZsCSnE683pBlR6+Ty9RbqcYE+02i8u+qytt2r99iMqOTy+lB70OpgT5G6Z6H6ikmazUIfHc0EzEK7k9CN2aNZMQ3deC1vXZQ2FaWG2vcn7eOSwwtl/62hzeZjDncjjGJb35R5OXlFcbgN0XAdmjldWrqofJNXIsq+61wq+4G6MVpZf+5/5Rzasup0aTa6+pWunicS5dkyscDlOdLS405M2cquIsnlA+9WcA3uET1UOqlDPqiVmrLLp2WX97F+G+h0vrsVrEX3sTEHI5e3z0la2Rx2i6jidFUv1V9HRy7vyx1yh6jmdL4z13N6P/tbEHJpnUXSSn0k77wogJielecvhiQ3aWWwLTm6yc9ZkBoI+Lw5DHnNULDQimU0D7eQcSxwRzoN1nSbfWy20MkrBvDWcFtyPYtLDywQ8/T5ahjyokcOzz6i50OYyXohTlnwIw+7zSh/6pLLm+YLo3kmh1k9l5NPLtCRrTl59HmovL7hK39dQcFbo+me3OLqI9Auuk5eypzrj0TZc2cael7stJTBs6N9tnVZlbqDXtU3ctk31q7i4Xzt2NrV7kS+V9HBWVwZ6aPQm4rUHXRkC5r9gYx3LoDb86W5E8s61nxe5Jv+FHAizBE/OV/IYegVXdPFcyuTsU56NTtPrGjX5nateMbS93YXL6o6OJ0XHPErdOKkeJOfWqZxvaJHknyPkGfiVvfs8+nU9c4Z8Tf5u6vfnOKXqgY+yqdaXTtUH5sngfdOBdsm36SoGeG5OP3D6updufipqj6jmB39Q/PUlrVXFUxPV7FNorFthg7Masb0ZsVPaRV8pI9A+6Onsf3nd1V0az/2T72Z/VV5Y1A2eWuvn6H1hPzanvQ5Qv49FmtnuEq4alZisX8h5C+y4wLn77aQXxGBbeP+d+xuLLYtXpk0v75H/v5Zb1ZaGh84X8yA6Gl0OMfWDWOrKw+277f3YmwZEWlVksBbuVt+UxF9UQlER4cWv/P9FNzYP39HWtWkof7tv2KJvo3LS0nZJbTM/T9npVkY5vKpItjHUr+dcKijezXMIkr+h0yOqZwUue6qwrje4HaYJKWFG2LwocXPED32b6xJ/jotlEIfpxjPW/Pq4L1zhl3/P8cEewwHJ0UuO8M43ztnOYphbk8bn1f4l9NDv/+Bf898zl6xOL53/VnsdX/0/YppH/KpP37//v377wZuTs5fyTnO9yta7J2WOfrO1j6eEdHIs/QldmN+pyWxOL1ssj44+RztLuN2OLdleqsHJi/+h/7yqN6zTNgHJrf/m4rsfbnUsgNPFdn/Hf8LZ6FlhtB5lNwWNkoLa7VupOSX4R9WVM0+ixI8bn70KdAS5SjJ35RnByaf7TyLDvzdzOzg5OVy4zIi7pvXBHwInxP09xH00szV2055dhhyuvg703h/lRkn9c3l2w7nHpKcsHe2jp6tnYyFe/f1n1sCexhy+pQos07jzz/5Pplbt5Ozd0cdx/Rn5EKaffZ2q0Gt/P5yPNiOZU5urm5OMtblwWDg+SmSDU5u6Cmisn+IOdH+smlxJzJiYeJlBba+nuJLfhw1uLuMYp/0RR5t1TIIudCWvRY1uHXmAJdCFbz5noNu70YN7pFnwpAX3VsUPfkHQW4Jct/l8zXRfDxp088ESl6Q53d09LxoNLc7OeRXHCV/KsjtNX25+bnTffO9k8khd5xIBsR+5E4nKF6IflyKdhQKyXsOef4aI3e+LJ6LflyKLusLO3GYdgTcBUI+Z/HZDZI5nWmOWtTcHvm5Q26foeRFQS6iYtTc7owLYXLIr1ByvlhNcj7/R/46am5S7qrkJyj5c0HOk2g++lLRcoRrn8U5eamLku8wldgfnNqyeBE1tuWSrzn/KGVQ8nNBzv9BukX0xjlJHcLJaxZKfizIjyeHnG9xITnRl5wXZuTO8DpnAgYWlhMsSE60/dTyQZCvTQ45DxYks0zlfXromiDnOZfuU4vcnKjhOj/ukRc98l1BzjOXfRU1NjEWLEipaM05zhcVOwl9RZf8RpDzzDUBAwtB3iPOp+T5KZc8PyXKK0LuuHrNWZ+ZgCLXcTXNLMzDrqRZ5PN83nVFUpsUn3Nn0ljBnE9qRkFOHMz7ACXPuOSn4pdGbLucrbTrzF8QR7sDtq6Y0qDrcDVBzsVv70Q6tLg5PnWGE3lLkHubh4twwMRjJiXfdUq02vMPEcHvXhTd/9RJjcqWqYVUgwL3MymBeV4lYyJeLDJ590QPtmtzZ+OGz6zt1Gp2MZ/nu4ZLbMKKs4lcw9Mkf9kyjTz8d7GGPXJokR1cLNWuz8a6aLF2dnx+sdObI9brnX9g1+6KcHdjiw4q0hQlZ/2WOt+iKiNHf+71ejufd4hFHGe6LGZQwTs+ZyH72Bbk/IfZk1AjSrZ7URKDHkHOxsi7LrnV4+WtfT4JSYhZd+14ruT815RsqgaeQ/lIk3ua/bvrPAdQLF2PvV9qdnK8cz1VKzldtWjXmBakUQ/vojXaE05OS06/tGvFXm/uIjJ9d497O9x4Vz134rPjfs51AX/G7vHO3PX19dxz57DzyH0vWc8h5385eac0CSMJf/vgPJFjC1TneQb7OvpFCrPF1y5KttMNT8WHJ+K/jWKXLtain0xEbPf4ec3977XZpx7jbk18Sh/ROZuYmMjs5gNN6Hmn+CratqTq7o77JfV88WJtUjrm8V9//VUrOVab6h1r0S6zdj5X9JqQ9hMh+sxJl9oJta6fkHkT3npSvP7DftgP+2E/7If9sB8Wsc3Pzwc3kiyzuGj+amlpsb/zxZeaxIxnxK25/WiPPz32eGU93PWaDx7yA9axsznPosVWQ55ufr295x5zfyMs9kpMtoc6jGJL8JBH0leL92N9n27jqXrMSgjXNx+rR1Hb7+cQ0HjxEXa2mC/7+h52SDuAffEheqVYbK9pOmReg9tzv9P8LezJkpEA9Ry1bT/wfdNRMfo+fNQ2kKYCAnWeP4cfwaq5i7R9DovFnmKHbGMtzb8JWLt/gpjpxpuUImxVP0TtzMwes6/WA84We9g/QQyPMkaBKUhB4Pz0AR5H0bWQohvmdTwKyKbcYVyUTMFLIc6mng73g2J6iEEFq5kUzlC6Ve6VUGeTTxcoL2Z7lmIaRXt/o7mxvvKT8jHs3up37e31Dcclak97tL+xtNRc17wKTjevfHV3Zb251NzYVrW/opA/kb5d9XpCU1YRSJAPpC8eQgU25YttezNIStYCp5OvA043r8hBTgXynZJTnIzhnlH2kdzpJT+05UdY1/HTyVeRTycnOzlO3AXf7KmdIANBXC/BO78n5wgprmiFwyJUmRtfoCieaClHcju8u9APe8jkIER3flccfPSTcgikQEoU6W459x72syfIc8YwjMGSDl4KS7HwWtv6j1Vu0iL4Cq0ZYIP7/CNY4aBJfgVtAMHwLAU4n/BPQNZQS5B9rbFq0IP8E/CBoZAERZAnQMD1FD8M6oV5GIpFbQv6k6nQAFJncgFiQWoMZqDzeMm3rZwHMfDjmE+a3t+aIIIpoNP3lb+NAyDg9Lj+mfFSwMeMFHR29ccCFRsHJECfLLMAFZsOgZd0b6X3kbl69zox69pt86XA7TCOH0B59xA5O2rgvMIjwEnGkQ/ImI/lS2kVHxCW8WzAyawTe7r3Gfl453UCEuwe5sHevnypVfdPtY4ALX8yU4BbL0P5jHhj2jUBuXm85HmS8Xix5r7a0iM39hqpS8pQPoNr78aI8ngQcq9c8CH3UctwPkfIzV3Ku1SQz/vUOWvkudMwUCeW8Q4RagEhynyvvEvtyeTapZphHAEyG/3Tp8Nj53Wvqf8Y3TyvKD1UIweOMAYKWLnQv8EtML7WBYwHXAc/lE+DmZqevXis316vqTG4wKqVFppqTsUMVOKLyHlMxwGnBJKDLGVK5QCckQPHaANNx/Siz5LHI/jSPby7e0Hk4Bp3cQpp1o7FM+BQg/PAEdvop0/Rw+DokUnAR+cwCOAzWdBTDjkc1KL9uq0ewQ0eh3VSacyukGtRUb4K0knhDRQci9onskFCWNpI4yvdTfJkQzC5NAWifd+UwR1OaZCsFSESQdP4zap8u9R54WByeZrtscyhTUnN679W0bpMIEd8ZZqm7f2sRW12JwS5oocVzxXItL6jDXly6YmXE5cUAqUbqFOEP63sb2xs7N9/EtMsBLkyi0RA7q+T022jc5cOeUb9vL1NCVZUAu16IeZR+yAH3wea6I/NUK31MXlcnSUcjlydJQxBHm5SFok7i8FH9UEebhqamZf7QkxDo7E+LHpgJuoTHWTtQHRD8TmPdEcTuRenzPXgXZ+TAIPFYYBgzIPNUKsGrI94McxnEBNmGUQpT5s+DZ/6vdewaVwI9JzMcqwXRc2jB59liDaIPfIhGePyXNDS9T56j7cBK8tSbuzQVr0ki6uBndnTRRjw1WOW0BW6ByFeJLmh3uTHXBBt90ewX+h8GbQgn9nXUgk9xIdcz5qxJ/shX4AZ33ggfvfqyro0AHnk1gUbe9x7wba033bo99rbjrh8yS24P+NJe7/PnSLW/KK2wWVeadDHVvj5eWl7y/0AcucCfW6JGYd5ijRMsUdmi9vtB35Rx4thT8dEFNK4GMyzPuos9MSYiMlGdFBUB+4wGqc1XSzTrDY2dzIJBkIeHodBeeIzUx2BgZCHThPCMtLcF6IwODREJlykUcdEiUUuzbWFn0XfbyM2qWbak+O6vNnIL+ZHYcp4qO3xNeVCEJ28i9TUjYqrDzboNpsHavk/gc8A+m1V9CzshttxWqjh+GRFRGHNYPDJEzm3QPRJBQ+ccJlMqXCb99t1OomdE5hxZ/OjyRulKTaPbzk2b+mYIFP3SUrLCpNucAKnPeH61myxuUGs30ds/kft/wEgjBy15+T0MQAAAABJRU5ErkJggg==;" vertex="1" parent="1">
          <mxGeometry x="342.79" y="424.40999999999997" width="52.21" height="76.77" as="geometry" />
        </mxCell>
        <mxCell id="wC8_cDmadlpLExYwXLmD-34" value="" style="rounded=1;whiteSpace=wrap;html=1;" vertex="1" parent="1">
          <mxGeometry x="104.05" y="600" width="635.95" height="410" as="geometry" />
        </mxCell>
        <mxCell id="wC8_cDmadlpLExYwXLmD-38" value="" style="shape=image;verticalLabelPosition=bottom;labelBackgroundColor=#ffffff;verticalAlign=top;aspect=fixed;imageAspect=0;image=https://qiita-user-contents.imgix.net/https%3A%2F%2Fqiita-image-store.s3.amazonaws.com%2F0%2F309176%2F26fa4109-f72a-782b-4181-2779c7a4b33a.png?ixlib=rb-4.0.0&amp;auto=format&amp;gif-q=60&amp;q=75&amp;s=03a7bfb1ae1efebeee798cef147dd12e;" vertex="1" parent="1">
          <mxGeometry x="180" y="832.94" width="40" height="40" as="geometry" />
        </mxCell>
        <mxCell id="wC8_cDmadlpLExYwXLmD-40" value="" style="shape=image;verticalLabelPosition=bottom;labelBackgroundColor=#ffffff;verticalAlign=top;aspect=fixed;imageAspect=0;image=https://qiita-user-contents.imgix.net/https%3A%2F%2Fqiita-image-store.s3.amazonaws.com%2F0%2F309176%2F2e9375fe-f26e-328d-b039-ad33be2cf24e.png?ixlib=rb-4.0.0&amp;auto=format&amp;gif-q=60&amp;q=75&amp;s=ff0312d50d4fa6669a77429583385532;" vertex="1" parent="1">
          <mxGeometry x="240" y="832.9399999999999" width="39.73" height="39.73" as="geometry" />
        </mxCell>
        <mxCell id="wC8_cDmadlpLExYwXLmD-41" value="" style="shape=image;verticalLabelPosition=bottom;labelBackgroundColor=#ffffff;verticalAlign=top;aspect=fixed;imageAspect=0;image=data:image/png,iVBORw0KGgoAAAANSUhEUgAAAOEAAADhCAMAAAAJbSJIAAAAk1BMVEX///8ybOUuauVPfef7/v8taeWJqO8oZ+QkZeS/0PcdYuQ1b+bE0vf2+P75+/6iu/NFeefg5vp2ne7k7Pymv/Tr8Pw+c+ZWhuptle2Fpe/L1vdMgenv9P2QrPDo7vza5PrP3PmyxvV2nO6etvKWsPESXuNcieq2yfVrkutsk+xjjeuBoe4/d+fS4PpZiOp3l+sAWuNbloGjAAASfklEQVR4nO1dC5eiOrPFaAyCoDb4xhYVH+2jPf//111A0QBJKgmoM9+dvc7qdbpHQzYkVZV6YRhvReu9l/uHf5DH//ri/F/n9/8KnUMzxnjqfXoir4F3IgSjGBibo5X76enUg+cGdJcLYjYeQFZz//3BidUO9xI1TNSggaz+fvDpedWFVrgZmY0SkDX3l5+eWy2YtZsElQnGwHi3oTn+nVrlcuXxS59jYxz93YJ1eewL+CUUcaO5cJ5f+Mse4+CIsJBfyjEmOQ2eX/p7ODrL6xbmdwMxI++pIP8Ojk44tYgcvfRBmo3o8jcZAc4sshj6QQSb2Jvwj+ZILS2322bpPxBmMwr/ihW6v/YV1icNRObTy6enzwZ152fjkSkpX1gcUfP6B9qrFL9w3MDa9G4csX0afo4LC09+TjiW1g8ikO3P8k+UOcNwsq2BXgpsnS4OfMm34ns22VZcnzRsbC3CP4ljsF8TTfnJhWm3u9Ra/agacVZXW2xf64H0T91P8npgtRvV/fzuQKR/6HyanuE37Rr3X5mjvaNsgPcvVWdlW+gF65MGtn7DT507vjt968X0UqDtIXweIN/H0es238IvAd6uZ+8x5p73b7A6mi/cfyUQc90ZsibyIni9Y1X7U52jfX2bo9yJdnYd9qcyx9HRfxkp+nzbazZeKz8Rd3lge/4a/UjxC6IGebV+mEy4FBE2m53a1yrFz/OxjntCEQvn1BA4ka1x90UHSHe5b7xFP7TjlTISXAhvj936HOWPB9i69JrWG+ilDA13dRbJamwd93UHA5bR+BXHBx5Dw+icheY8Rge/zrXqTcf4ffqvfbunc+GWjwXucVOX4g/aTb4AfwHa99t6FEu1eE7z3kOuViAbnBpvVu93hsbwCzh3IozPfubr0KXoLbZv0A95ZAwNd2ND9xZZo72eP+d+R8Lm2/lRDA2n14ejc+apQj7A7NXmCxNtagYdiQiBudPWHDNwkbwE7dwcxvAqMieaimM5fvcJ6YZ2fhY/sKGBF3oMo88QLDA0vC/Q1kCjVfpRRXk6g3f5a1BgGOtjUF2Ra8DkIEQr+oAYTVFkaBj+CFpOI41z4/L4oUXKYGjsm4BINTfqDLsf0RQJGAyNEBCp+JpqDKWNuH/TWakMFkPjchDKG9QPFbilN8JZFNYFEUBwJOfAFGDKnNXgJJQ3lnIQ5/uYG+/sD/i4TFVDM6NFjw/O0xi2RQvV9N3H05HDMrdIUV94i7yDEkWEI6PFB+8qrY3ASUumqvpiVmAolsaXuYrgJUfFyWRYCdw3tqL97Ua5pwIxjK8tTxA3tf0PIV9rWIqZOE5eG4IMjY30Q8TnUJdgIlJ58sbcq400zOsKmKFzlN6KK21+RiJSOdchJzVP8UCVobEU+v+ooRbVciyGC7ZuQiNpUZPKMj8vmSUYGnsphuRQ1dHpcHwbWzVhWpCNMgzdnoSpjsehJjEKPtP1Z82Sf5NWiP/lvy3DsGwGlZEd5CriwtoRJFIZIthqMEzyugGCDaVZ8OHNGSLVVhmhaHbLMYzVlXgvmte6Mrm+D2V5s1UZoOiLlWQoNDqSUeoLp3wvSjaGpVKBU5yoLMNWW/AQkV1nEtfgt3gzzZ7cHJMfgV26+5JegkCg+M1apEx2oWlpueCx1DdThiVHqTRDY8A9qFrK1r8A3oFxhZH890/FWcozNLqcdYqPNcY0hyOWj8WW92SUnFAKDI0ec52ieY1Z+CHTqkENaePbKTm7VRg6J9bV61H1Kdw9x7mIr7JDhM0Kq5R54keNRW05IkGP5z3FO9kxeqVFoMTQmJUUP5rUJmW8NjdehOayG7HsWFJj2PIL2hg1apMy3g+HXoIzPMubNryWVoEaQ6M1zd9mK9SjU8ZgJ/IpIjgGlTJc7qoyNILc6cusLeHuIg5gkJPcMH7ZqFVlaAxpfSVpTsHYAzkh+JD6uMCNuGGcZM+rYJgHkLPbob99O5xy4BbBm6CzgXzraB5C5NIrsnzL9nhSwFE06xgbynzDgkOFs9rI+by/+UL0SVFqP3gHpsGACzCBo5BDO8Xuy4eFVSmGwY5beCeJrAJT6oTdlXTukon4ODugjhmo0eZ8OJyX5s2JPck4usgp1bvARpQOq0H5AV1K8fOstgFjwTDjh3J1qXgstn5T6i5L0LBhA7Zmj/osaoaMTwRThnpjMFyBYe77VZBY5qcMh2tp/zxqiqVNTvGT37KTwe2x1kuZIShEH5A5ZS8Vwp0m4N4N6GOYeSrZph2mgVJkOIzkp2RKeNRDleg2AQZc0q6Gkmkz6DOXS4Hh4KQQucNj0AJurZSSTGxAAe1pp4ad3yQuJ4E0zxAI4BeAEHjQdtQi1mgE+M9oPzg+56KYEedKhbw2tQg6HM8fCj2eDIpncbhzeKIeFKGPiauiQ4/FEEykKcLsQUft4RYeJT/kUaxfL7RWbDxV6KzkSGAwhJOhisBHwVk7nWlHOY0GUvyzM70Vs33rTbgP58EwaGtkLW2hMj5hSgcbkLShT/yZ9R8ItnvG0FvrFECAvn31IRuYaa484UypR2EeU2njCyZ/Z7g8aKUOQsdtR3UbJiAT8crwaMWPEhu8I5JnN4ZQJhsPGEhlUdL3j0lzTw7ZqLmDj294wtTVW82MqhB9TIaIGcpEqlnwxQKVNiPQaHYVzr6dJOlL5j0wsBWrr/JpTQpoFAqHbW2otYH74sHaRrCokEMPxPN1h8Uj8UNUSLdpLIJ1lSYN5It3m5MfKgeLwri/QoaGJ5/4//NTLf8ai+bh6y8OAphL3bPs2JXLrERiT8oZwoEtjm25G54dWjNQIxRMQymJsjgy4CMJWFG3V0Dk2x9wrWGpkdeA4h+/JzdepPM75yojxycHcQwtfA9DNE83IlO4T6uWWKzEOsN/S/4/ai65DMW2hsTYBDDsVVwu+rOwWeUlKWGvcpkMmotNJpd/KqwRhBvP71YSNCnMtXidLqtIa1ngK08192q4uiU+nrX20opfH5jhfL5dHc4PlQBQReb23qD4eaktCv58AdBYLG0C8Cp25RtNOJVsjECXDvBaLG08aCt+RRX6g6Yw2+yNuK+ppJJEYhs8BFyyC0ZCjxrwhJ1Yo+bPzw/ZpGaNCBAAWol9aPEZf1VRHp2Znu+grb3+8blDJ3CAxYC8qpAbEj9Np5pWsZj3eFBOo5GF7btGznu/E9vgjrDWLfVEhbsqe8Zktj0JtR8hmcam7pAOoUCK/yISavfuLV8V5A3+Ykk7dX9+Ntwu1Q+5WCEBkoT2Ally9wgPF/oUUZ+hshTi94XRslq0Fe33hRT/hu+ryLz6zka/rRErR2mo3SNi9Zg1ddNxE1D8fGnziMy01ENPGazbOS63VzzNR0ieCT5D+nAEtTm4lKoJMlDRtQ5QosKf1VfZHXXR24bmjlLvlzEdK9yIFT+3KwUdIQ1/9W486pdFja81FM4nqHepWaMRcOLvcbZZLsq9vOptxm2pLLil5UgsCRSfEiAYyBRkpggWGRrfen6Bsqhp6TxChKPCcndpxY+PYsUfsHdZIdtkGOlYqeVaPU8rcFhuge/QFiVZCxnmVSiPoeFqiVS7KAV02mBg1lFwSd9xqOVIh6UyyllfHY1Y27bIUMMJxWm0kJs1UK7WYkkbRuaeWkeDFLf6fErWqYdDUIPtknHoYmsoC8tblwdmZV8GyseC20ak3vymLmg4ubyx9KM7rKIvQPGXXf3MDFpP1NOUBTzPDwAdLBAqdmwxx9yph/SsRxtxjL8zsgpg37lgo9j83cp/X1T7mRAcTdrTPE4Cu3NPn/hHe6Hid8NZAZyBHV/t4G/m5Ty0k/t7JyhAMOvWgr47zZreAtjqKGkNkhdygLdbuaKEFgxQyrs8QhWt8chGu50yama4zI1ntetqpRof8aRXap5hzc/QKRi5W8XOKnwEX9IiFedlcq0M3ZIlaYd1UXQWspsRZ/bU7RkCClWJISP6gn9rK0B0fHZ2eAkkzH0PaBGkxPDC8oeUE/V14e7lDv5m/oqAD0OFYcA0caEkVAW0oPYbtykXq/PF2lSBYYvtOgdT3lXwLe6EnYIKZN42othNo8CQl42AmnW+Fg/0SCBU1FAtYfdseYZLbut9otsLlwW33BYjD0brL2G2kDTDb8Fqt4ComxrFnjj3Z82QbCJHuyzDYC26TaTOV4xcRAqOMNtDOxE/91+SIZCdh+z6tuLlKrgUbrLFWrDmbkVJhlCiBf6t651GS6GBat8zQUvm8IAbupBjCLfHxpIF8xDE5yhy5Vr6HV4JsBTDb4ken3Ytpfmiao3Ef8E6rd1J88rJZBg6bQmHZHzir8zPETcaf9SasR8kZyvKMJRLdMC/VaWNJ87ERUQ8VU5OvQRDdt+fMgiQZwthOREfgk1uhvD9mV6YtgLMEMwDegxFNJvg3zADyhrME+gy2bMO0SBDRyVCVKGh0h544QbZwW6vXHmLNEOV+BBqaBuoPmCNPqJ9QsdQcCrfJojhXqm2Fs/1DFSX05yVgpxdOCgfYQGGUkdSmuKX6/DBoy9IbrjPEk8hp97932cl4wuNolmXi45qbjOyj18Z1ul/9/9Lfq4523QAVkPhzDELOy/9kkBGZjG6QEM59FUOg1Bgxy0uoMWERjKq9s5exjx5GZixpz2clGGpeDxFLSxfDgZDmdwhS83kHWiX6VUHg2EER9ay/rbSAYTu216FW0KJoQNriUeWmXyEpOV/6iUsJYaeRCkPPqsb9MH0Uw+xwPAiUZePgOJHNpa7D0mbPMNZX4JgQ8+NJ1/XWi9yDKXivur9be/bldFe8B2gGDrcXqU00EilzzUNXmrdi/FkKFmX/1+oSTBGhYeIzO1WL1H7wXD4JfV96/4FrVB6oJ1MjpJwmq9V+5IxXM6lrk4OHOeoHLq69Tko8RtWYniRa7NH+JlLUnB7mgu1KkNXMnkG96v67sBjJw92NBzCb0plIWEY+IJ3O1EAU60lMNBV/PPrda71xXZSTSJ5b/BU0d7OITvxS+Y+FIGwZoOLtvEtm4hIRJ295OHXVNeanOvzpOOjvmmW7t8imMiOOKopiaVqmX4ylwa2j6foNEbPIGXy2ulp1J40bn96/H0um9qFspSZ6kllc3WKqT5cJbspDRrO7fbNSXqhns/k5r312snWCx5xL+kmbZn3vIasuYH6S1ef2gKPYyK/8W+uk0iFYbbH7HR+ThD/0V+4hqfw5rYbTKASQAkd5a1YYLgyht3eJuoGSRw1ZUiSamRvtWhHncC5aDAkuxpzOwyX5epXYeh6X7ZpmnYUU0zTa9P2HIODGYsa1E4EoipDrPReThjOVJFikeHNcEgDpGmk2Uzqvu45PChqKTNEqFdX0uodA0X/YoFheI9L43bLGCSZMEkSWFa1mlamKDIknJL7CuiqKf4Cw+n9pIl/PMOJ5VZaWfuoWkiaSqsxJIe6MqspqDW0KMpS/GToJgyTiqmHlySJ2yoxxPO7qq93pSrV6xcYZrXbKOke3US3mrBHRgWZKsrSzLVW81ZU6ZvHY4iT5p4Jw6SX5MN0STaVCkNL4x3VYtxv1VLB+cZjOMmeYUA/Q7VVavL6BlZHV15lAM8wfY/2IxsySTqXZ0jgnt368KXrMIF9mCqITMCmHXOkGWZdN2reg3ewYvxKDBNZmjBE9ixWkvf7paQPEburR22QbgfGXaXL2+pM3zL9ReJzBMJplrskQ4SZTT1qBLeKXpLhT7b/kp6uzqkff7DZM9yWLEN8FWat1QFuK3Uphtk+jB/iT3xsbM02kR8aXseRZPh4TcYLH6S7kHOCcRjeZWlCcZqlL31PY42/lGGIcJ2vwSzjdt8CKecbfcb3aH04fGgJctwvneSMOLEWSUKdxKhAN7i68C0xlcbTm4hGh+v14Rw8U7+g0fhwPexGJNGHM4nVbx5eLGUyXP6DJ0N5E5MXKVHV3fQv6TuWbmcLCec6nt8SN19Pk1lFXwE4qR24gkOiRk3lthJQfM0HB814zgktfI5PCgOwHR6yFSt1K6F6H9Ck1GuxO9sYnY/JUQgMcaBGVMWBr4zyizyVYQfGsrPy/U5iR8/AQgY0eaG9zYL4/dQSQPYz5NDaj6GPQ32n6sRtlTjV023WfpiQbC1XJwkf0GtVPZOodm+wDHjUb87H43mf+friPBTT8mqiWDnzDaFUVUoMY07u13wvxcvbMt9w/83UMlToiadI8H1SJg9H+sRfCY/uKB94kEPNZmpqBG2gw81L8V3pbSKyBGtrVqCE+4pxNuS1HK1RWHsIRhHexCKxxH8FMCZQO7T3wNlPmi/BfBo+LvIhdUGhVTs+zcj4E27rP/zDPzzwOqlQx8D/B2VIVTcDLhAjAAAAAElFTkSuQmCC;" vertex="1" parent="1">
          <mxGeometry x="340.00000000000006" y="610" width="55" height="55" as="geometry" />
        </mxCell>
        <mxCell id="wC8_cDmadlpLExYwXLmD-43" value="" style="shape=image;verticalLabelPosition=bottom;labelBackgroundColor=#ffffff;verticalAlign=top;aspect=fixed;imageAspect=0;image=https://qiita-user-contents.imgix.net/https%3A%2F%2Fqiita-image-store.s3.amazonaws.com%2F0%2F309176%2F73356215-fe89-e13b-a067-12b8bbf7817a.png?ixlib=rb-4.0.0&amp;auto=format&amp;gif-q=60&amp;q=75&amp;s=17f3e16076528004963ce07fce064e7b;" vertex="1" parent="1">
          <mxGeometry x="206.68" y="740" width="44" height="44" as="geometry" />
        </mxCell>
        <mxCell id="wC8_cDmadlpLExYwXLmD-44" value="" style="rounded=1;whiteSpace=wrap;html=1;" vertex="1" parent="1">
          <mxGeometry x="140" y="872.67" width="180" height="57.33" as="geometry" />
        </mxCell>
        <mxCell id="wC8_cDmadlpLExYwXLmD-45" value="" style="shape=image;verticalLabelPosition=bottom;labelBackgroundColor=#ffffff;verticalAlign=top;aspect=fixed;imageAspect=0;image=data:image/png,iVBORw0KGgoAAAANSUhEUgAAAOQAAADdCAMAAACc/C7aAAAAt1BMVEUybOX////u7u7x8O4vauXD0Ow3b+U9dunz8u4qaOXo6u4qaOSPqOn18+4mZuXs7e6ouuogY+T3+v5LfOZDd+ZVguba4e7AzutQf+b6+/7l6O7g5O1Lfea5yeu0xeuswOvZ5Prm7fzw9P1pkeuhufLQ3Pl9nuhdiufT2+3g6PvT4PnK1/jJ1eyIpelbh+nAz/d0l+yuw/SApO+dtOoQX+W7y/ZvleyLq/CivPObs/J8nO2ku+qVsOqC2cbPAAARyklEQVR4nNWdaXuqOhCAI0QgRFEU9wW3Cm3Var3aSv3/v+sG3BU0CYGjc7708VTI20kmk0kyAzIpy8d6+NZI+Z0g1bcNPocGxobzNUj1tWlC9r/mEAEiGA9X7ym+OD3I/mINEQSBQIyGi/Qw04IkiAjvEQMhmL+9lF6eDuT7xgEXiAEmmG3SwUwDsr+p3yIGnRbUf/opNCB5yMGPCmAIYoAJgeIlb2kThmz0f/4zwgEPgv77fk944kwUcvDxAx4g+mLA749E1Zkg5OBzqlAg+r3WAN+fCWImBjn4+lbpEHeYyvirn1RbEoIcrMYMiLtOq3irhLSZCGRpMbcwG6IvSF0vEsFMAnIxU8KmRQrBymxUEt8g8ZALK2pWpBEIrJHwJgmGHPwCMwZigGmi7UDsxCkSsvH+WzZiIgZiWKN3kb1WHGTjY9SOq8WDQNPavInDFAXZeNvUhWjxgGmUN5+iMMVANt5+6gbHpPEA8+dTzNgUAvn53caCEQNMXPa+RGAKgPxcW0BgR73AhOrw6wkgP2YwzrxIwVn//LeQpa+KmShiQGm2V/FMUBzI/tcQJUy4E2zMVv0Yg5Mf8n0xRAlYm3CBxmzBH/TihXxfOKLnjOQw+SB7Iwemihhg4tnmIzXI900lMv6WqGBY+eHRJjtk/9sKjaKmIaT7WB47Jitk/9tIdl58yAnxnHUXhQmy9PFtiPTCOTGRuWZbojBADt6+4b9HDAThOUsIkxqy//UNngQR+NoEc/oQJiXkYOXRxMJTFIjgfEWJSQXZX3hqOg4ci0CsrBdUmBSQg8VQQf+aKFyw4owoxuZDyMaoraTu3NALVtqbh5b2AWTplzdOnJb4s/bmgTbvQTb6I8X81xA0YoDN3S3OaMhSb2OJCjEmLoby8xHda6MgS2+b8ssg+mJauUj/IALyI/daiMAPSKtRS5QIyJ/nmxYfC0Q/LJCl4RPPGtGCh+HjMhyyV3lJSFgJ76/hkCvrX7eXT6wVA+TmX7eWVzb0kCXvSX3VR4K80EEZCtlzXnJIEsvjhEZGQiE/yy84gfgCy6H7JqGQi6R2qZKXBS1kKfdcQQAGMXJhgzIMsr9+0SFJBuW6Twn59qpDkgzK9hsl5NeLTiC+4LCN6RDI0uhlhyQZlGHH1kIg+97LDkmiSa9PBfneftkh6Q/KEHcgBPLthYck8exCLM8tZGPxEsGrKDEXtyGtW8jB92tr8vs20hMC+cpD0ndfaSDfX7q3kv56a3luIVevDnkbHbiFTHZIQkQk0fGAvikgE3RcoQHbXrE4rkAjuR0W2H4MOUiot0JsoNm0O6nKcsvtbB1oJqVQ88by3EB+JgKJTOQsJ9WmJMuSJMmSXnXtNTATGRnmTXTgBvJHuHcODROs7ZZeCAD3Qn7Wm52xYhpYdBjCuImj30CKnSX9C5KV3ETLa2eARyEfu9uZohBMkcfXbwblDaSw3gr941OV+dLN58MADxrV8tW/ccU/5CWKE5rXjt015Keg3oqRUl/n7KoWqsIrTq3V2c4riqhjl8b1oLyG3Ip4ETJUZ7qstcI7abg+m5PidKgKmUPxdRz9GjL2dhY0DGu+7E50WsATqO52ll7ZiM2Jh/chS/FcAZ9wTObCAivhgbNQnXSmdSOerwDLpbuQbyr/o8lsX8llD3Mhp5DvNquTmL6C+nEX8lfhezREpuEsq3pBigF4Ai0UqvYc+5w8zYHK711Ij+Oh/lxYH3dlajNDBUrm0Gyuoio8mNC7B1lyOB6pDrcTKa+JAzyC5mW3uOYYQNgp3YH8qHNAVopZtymLVOMBUm66k2KFvUWw/nEHcsFjd6ABZtNijWbeZwAkHkLWzjkK1xlbdXUHknMbHUIEyvOt7QrSJ3lMtbv1YvhAm2jIUozYOUTYmo2XE/mep0qpQ/dv7JQB4vdmr7bVLyD5ttFPl5kwVMqzaU3it7NaXiKTZFmFR28A86w5sdOLhPyyOP52ynh28lD8g5mKNbfp3dZzFeb1zthSThdrgmjCWGFvE7S+IiF/ORQJlUle73pl9bhYgr5nUMm5uk7vGchSQa8uHfLF418L+3+tv2Z+wuOf4N8oyNKUZ52lZGXSy/Razmkrp0u/0DDb047bKjz28QJPLrudmWf9AStlZ9r1+4Oc5dAkMH5KEZDvQx7vwocMRlMhu/Qcslg6/g8yLK9Yc++uR3yfPGuP28bJkJKlaMXbdvRdjyeQPK0avkdA8m2j7yF3DZ7Y27V1ugVEONVhrjtphs+hmtZ0u9u5dba6Cr5g+184PJRLk7D8FgG54jFk8AQZcErVWnFcPlv8EsXMvGWnemWKiJlp1ZbjC9UbiCxFO+7FQo1PkwCtwiFLG67QxwXkboi1XLIoNI8dMPAVnLF94vQJu9NhXTlNP8RaWWP7dinKp0lgnN8xOIPsz3lmSXgNGbRMarYm28qFKQFqe7h1yeLCj9H9zetnsSsyVRAzlW2FLUU5NYnn/VDIHteQDIXcKbRQ/XPAWd5Bn4mwZKdtcHbJlBDC2dYtRKy1OSFhuRcK+cYXqIuA3PdKvTu21DOdkV55WvMH+n3gOnB214s4+gmy8csVco3S5EGIo1bLkdF3kzcDEovkT4b6feeIU5PA/G2EQA44vfMHkNJuatnZ0VNzseHb3Jr+cLHNq0l0ltnwDJIvUPdIk0dO194e04OhYDLUaRYsvJo831Y/QfY4Y+dUkNJuCs1ug8PtVq7m0kYteTUJjF4IJOfJFjpN7hucn1Sgf+h/Qr/o5NUkMBe3kA3ebXQGSNLiPSTLVzg1ib4bt5A8a0nApskjJNNXeEPB5VvI/n9cj+LTJBskZ8P+699A8p5seVpNnp11OUJyn2x5Wk2ezrocITmH5BNrElrXkCXubfSn1SQwS1eQ3CdbnleTJx/9ALnhPlLzvJpEmytI7ttZT6xJ7FxClnjtDqMma/UUNQnVwQXkJ/+TOCDrtVQ0CZTPC8hRjCclDsnbMqiMLiB5ttEPT3peTR621XeQgxn/nt3zahLg2eAM8o3/2OBTa3IfR99Bcm2j7+WJNQnUxRnkD//BoGfWJMA/J8gBV+z8FSDngyPkRwy789TdFc8+jpCrGEOSSZNayprcp5AIIEdxzn8yQXb2kPTnt2JpEuDRATLWFTQ2Te4hO0yQMTRpBNfTfMherJO8yUPGaBwe9vaQn/xLkGfXJLQ+95Bc2+hHeWpNAmO1gxzEShDBqMl2upoEhp/TDsROEMEB2U5Pk0EKCQLZizMkuTTJCBmreVYvgPyMdy2MDbKcsiaDmzAgboIIRk0GkOX0NBmkkACxvHNfkoeM1TzfRweZfqwh+fSahOU+gezx7tnt5ck1Cf7rEUi+ky1HIZqkbzEHpBZTk8D8zYBGzCEJlS79IWV2SFnrxoREXgPwbqOfZNit0lIyQ2qt7jBm86DVAP3YV1+x4nWbdK1mhNT07liNfaHT7AMRCSKwNe5Q9VkmSFnLjnmKH95AroCQBBEQWuNqXixkvjUuC7nPjb6BoAQREFjbwsOma92y/8sUkFphKaqQFSwDYbkxoaH+6ZSQ3UeQum0JK4SAPFASlxwTGrNO8/65UCpIudlxxNV6QE4JZN4r4pJTYODV7hlaGkhNz46BuCah+ru/1OK6vBQhECm5bCFSm1o3OCV5B1KWJjlVYMmO4EIT8I8sx/QOL8WobydR13r2kFYUpCy7S4Edi4jiH2AO4q4/QqvyQDBbtsIpHkBqzaUDRGYGhHB6iLsKTwMKldmfFMZxF1KWbUdwuQc07J+27npl0RUywSzs4O4dSDnvOqKT1uDyx8XpD1Xw8yE2h+6NBYqElCXXM0WnlILq1+VhpV/xyZyIoXV1mQZSLrhbylryDALR4RJl/KOgd8QoL92Li6KhkMSkFusJZFsNOQo6WCfwHoid4rnjHgapVe1hEhVljfXgBjKhegQIzG1di4bU9M5coH9zEnxWp+DsrpZIz+ckEFle59BnryFlqTYW54lfvFY9u7p9BtlYJPCy4IXW2NXCILXqNFY1+TuvBOcZUC8ubv8klmFRzQV9VrPPILXCVk0qq3z0xW3uO2k0bwXLgiQfIG3NXzImV+ppf7QlFNIvupzUe4E567ROmmzWnOSyj8LZvSwu8XbWHwiGXra4gywKXTJey4XRCYHMLBIsv0gM7Sw4MaTOrCTTnxrXVRhuc0kmmsN2Z0uTrbdqPs4lORi+cD57X4zh49SnmXfRy650BZZpci5n3mLusPxTgSCk9ktYlYnV6xZ+CS/9Elr55WUrTgEQWnEztIZP33tNXUIQVmMisgxcgp5PggJnLGXgxMd80hCohBacii6yuXrB2fLG03kEmfl+uez95m0q+0eQGefFKmqgWWTt22jIQf2lPB/Ujq5jHA2ZeROxYZ+WYCusoNZjyMbidUwsVEOq2tBAvpLno9wtun0PMjPgv1bJI5A7xgzDPR0qyMx7nPtNrA0FnUmW75gGroTW1qSEzHymt+yCoKoVcnz5ASM8HUrIzCK1qtQEUtZ5ICGK8nRoITPJBZyv28oLeVsfhBkys06JkhcSXVci4IHsz7gpYVhYLvSz4B8XJKr0BUDy1PpFfvZTiJRy+yoBNsJqu3yWCDT4DFltCyA+yIh6vsyQHJ6PVyzOjPqyk83Wio55St5qTbs18pk9Vs5S3Xo2+aw7VTAH5H1PhwHS93wYKYuy5q1dPZ/Pa4Xq8phHcj5pyhoRqVU7nOjDVrcVfNbMWuyQEIbGdHggiefD+AcuatpfS5MndqegyQV7Nw3BsS7LeX3iFvKyVN3d2YRW1k/t7pLPNJcd0pjf8+bYIDPvjIvLoubvsDoGRmpHlvWtH2bAQ0mWq2MyBJVcU5ZbwfFe0JUkySaDVNn6B0UYIfHsvqfDBslqfAik3FJ9NGh2NM3POwhRVZYnThBVMeZVWasZ/lFU8sPyP//ZpldghaQyOgyQmRXTIUMCqXm7KBFUC0EvROu81BrvP8NbXcrXyWRiE+XuR+d/tsaqyUeeDitkhikhc1GTq4efja7m3+0wbU2uHa7644ora1vDzz6kHbhwhRHSvC66FB+y5DFQ+obn0L/xOO/nUDCrcqF4fAQmQzVr4nVVzh9CvBC0mAyPuaYxrGyQZNlF34Cilp8ecw47eTIWMdTl5vT4BKNYkFsm8lqydBrtNY0BElEaHTbIzBv9VjuBHB8hK3nZHRqqLrfGJ0hiTHUDTQty8/RUmwES3ovpxIDMrFggvXPI6tqwQiGJEeaEvC2KKgayMaKlvNCk42sSKQTysrs2TV+ThRNklxoSohGFN8cFmRl8U+72E8OzPTc82Qo0m7K+PBoeRAzPxETzc8MDJ7SQEIYUYxYFSV2Hgkwh2cPfw59CbMV3CuTOwQeG7Yms/RlwNpHzR/XuJ1QayCG90WGHpE2m5Xs8+1sBmAxGv+0GUWh1vlclnjalPPFeVeIMTPbfMad5ynmS2tPhhMysaBgDj6cT3AvAxJzIEz8ZhtKUpU47cPWQMyGeDlE1GpMlSC44OmS0qzItJIvR4YHMjGiuQPsOutStmKbZtv1O6OMaOU3WO0NkmtibFGQpWNkoXUlublXTNIZZjRLyvxFrm5khGzQnnAlkU5Pczl/HLciyvfN7VTsvF6rZoj1pSbK0DYKduE50qrvdYpassyZUY9JYsxhWPsjMgOKcD7Gu9jbIyC9r+e0hdqtuC0EdAr9u6HTv8JMF5e6zvLS28xRxVxxSAF48ZOb98W6XD0k6YKFQaNrlk+ZRe1kln+luzjp+CM35xP+9bhltJ7WHq3Oshh8LEA1JEVb3ISEyQbmMzPPfhYaptNuKeXFKkfxe20LkI8N8WJ0aKl+P2ycEsjR6tLj0IQF9SBKG/mKYKCPqpUdMSOL5PIhs7SFFCwRsnk4syIeeT1KQjJ5OPMjMx/2YTzKQl8WykofMfN0dRYlAQszq6cSFzGzunfOx8/mucEj6mI4wyMzwrrkXv6tJsXslHrJ0L+Yj/pQ5mnEZ1piQmV47xXM+h0utaUNmvtI753NVGjRFyMeejzDh83REQGYG02RveByFMaYjFDLTHyKYguxv0v8jyMzHTE1BZjGMji//AxiIoDFQMKh/AAAAAElFTkSuQmCC;" vertex="1" parent="1">
          <mxGeometry x="149.05" y="880" width="43.75" height="42.4" as="geometry" />
        </mxCell>
        <mxCell id="wC8_cDmadlpLExYwXLmD-46" value="" style="shape=image;verticalLabelPosition=bottom;labelBackgroundColor=#ffffff;verticalAlign=top;aspect=fixed;imageAspect=0;image=data:image/png,iVBORw0KGgoAAAANSUhEUgAAAOQAAADdCAMAAACc/C7aAAAAt1BMVEUybOX////u7u7x8O4vauXD0Ow3b+U9dunz8u4qaOXo6u4qaOSPqOn18+4mZuXs7e6ouuogY+T3+v5LfOZDd+ZVguba4e7AzutQf+b6+/7l6O7g5O1Lfea5yeu0xeuswOvZ5Prm7fzw9P1pkeuhufLQ3Pl9nuhdiufT2+3g6PvT4PnK1/jJ1eyIpelbh+nAz/d0l+yuw/SApO+dtOoQX+W7y/ZvleyLq/CivPObs/J8nO2ku+qVsOqC2cbPAAARyklEQVR4nNWdaXuqOhCAI0QgRFEU9wW3Cm3Var3aSv3/v+sG3BU0CYGjc7708VTI20kmk0kyAzIpy8d6+NZI+Z0g1bcNPocGxobzNUj1tWlC9r/mEAEiGA9X7ym+OD3I/mINEQSBQIyGi/Qw04IkiAjvEQMhmL+9lF6eDuT7xgEXiAEmmG3SwUwDsr+p3yIGnRbUf/opNCB5yMGPCmAIYoAJgeIlb2kThmz0f/4zwgEPgv77fk944kwUcvDxAx4g+mLA749E1Zkg5OBzqlAg+r3WAN+fCWImBjn4+lbpEHeYyvirn1RbEoIcrMYMiLtOq3irhLSZCGRpMbcwG6IvSF0vEsFMAnIxU8KmRQrBymxUEt8g8ZALK2pWpBEIrJHwJgmGHPwCMwZigGmi7UDsxCkSsvH+WzZiIgZiWKN3kb1WHGTjY9SOq8WDQNPavInDFAXZeNvUhWjxgGmUN5+iMMVANt5+6gbHpPEA8+dTzNgUAvn53caCEQNMXPa+RGAKgPxcW0BgR73AhOrw6wkgP2YwzrxIwVn//LeQpa+KmShiQGm2V/FMUBzI/tcQJUy4E2zMVv0Yg5Mf8n0xRAlYm3CBxmzBH/TihXxfOKLnjOQw+SB7Iwemihhg4tnmIzXI900lMv6WqGBY+eHRJjtk/9sKjaKmIaT7WB47Jitk/9tIdl58yAnxnHUXhQmy9PFtiPTCOTGRuWZbojBADt6+4b9HDAThOUsIkxqy//UNngQR+NoEc/oQJiXkYOXRxMJTFIjgfEWJSQXZX3hqOg4ci0CsrBdUmBSQg8VQQf+aKFyw4owoxuZDyMaoraTu3NALVtqbh5b2AWTplzdOnJb4s/bmgTbvQTb6I8X81xA0YoDN3S3OaMhSb2OJCjEmLoby8xHda6MgS2+b8ssg+mJauUj/IALyI/daiMAPSKtRS5QIyJ/nmxYfC0Q/LJCl4RPPGtGCh+HjMhyyV3lJSFgJ76/hkCvrX7eXT6wVA+TmX7eWVzb0kCXvSX3VR4K80EEZCtlzXnJIEsvjhEZGQiE/yy84gfgCy6H7JqGQi6R2qZKXBS1kKfdcQQAGMXJhgzIMsr9+0SFJBuW6Twn59qpDkgzK9hsl5NeLTiC+4LCN6RDI0uhlhyQZlGHH1kIg+97LDkmiSa9PBfneftkh6Q/KEHcgBPLthYck8exCLM8tZGPxEsGrKDEXtyGtW8jB92tr8vs20hMC+cpD0ndfaSDfX7q3kv56a3luIVevDnkbHbiFTHZIQkQk0fGAvikgE3RcoQHbXrE4rkAjuR0W2H4MOUiot0JsoNm0O6nKcsvtbB1oJqVQ88by3EB+JgKJTOQsJ9WmJMuSJMmSXnXtNTATGRnmTXTgBvJHuHcODROs7ZZeCAD3Qn7Wm52xYhpYdBjCuImj30CKnSX9C5KV3ETLa2eARyEfu9uZohBMkcfXbwblDaSw3gr941OV+dLN58MADxrV8tW/ccU/5CWKE5rXjt015Keg3oqRUl/n7KoWqsIrTq3V2c4riqhjl8b1oLyG3Ip4ETJUZ7qstcI7abg+m5PidKgKmUPxdRz9GjL2dhY0DGu+7E50WsATqO52ll7ZiM2Jh/chS/FcAZ9wTObCAivhgbNQnXSmdSOerwDLpbuQbyr/o8lsX8llD3Mhp5DvNquTmL6C+nEX8lfhezREpuEsq3pBigF4Ai0UqvYc+5w8zYHK711Ij+Oh/lxYH3dlajNDBUrm0Gyuoio8mNC7B1lyOB6pDrcTKa+JAzyC5mW3uOYYQNgp3YH8qHNAVopZtymLVOMBUm66k2KFvUWw/nEHcsFjd6ABZtNijWbeZwAkHkLWzjkK1xlbdXUHknMbHUIEyvOt7QrSJ3lMtbv1YvhAm2jIUozYOUTYmo2XE/mep0qpQ/dv7JQB4vdmr7bVLyD5ttFPl5kwVMqzaU3it7NaXiKTZFmFR28A86w5sdOLhPyyOP52ynh28lD8g5mKNbfp3dZzFeb1zthSThdrgmjCWGFvE7S+IiF/ORQJlUle73pl9bhYgr5nUMm5uk7vGchSQa8uHfLF418L+3+tv2Z+wuOf4N8oyNKUZ52lZGXSy/Razmkrp0u/0DDb047bKjz28QJPLrudmWf9AStlZ9r1+4Oc5dAkMH5KEZDvQx7vwocMRlMhu/Qcslg6/g8yLK9Yc++uR3yfPGuP28bJkJKlaMXbdvRdjyeQPK0avkdA8m2j7yF3DZ7Y27V1ugVEONVhrjtphs+hmtZ0u9u5dba6Cr5g+184PJRLk7D8FgG54jFk8AQZcErVWnFcPlv8EsXMvGWnemWKiJlp1ZbjC9UbiCxFO+7FQo1PkwCtwiFLG67QxwXkboi1XLIoNI8dMPAVnLF94vQJu9NhXTlNP8RaWWP7dinKp0lgnN8xOIPsz3lmSXgNGbRMarYm28qFKQFqe7h1yeLCj9H9zetnsSsyVRAzlW2FLUU5NYnn/VDIHteQDIXcKbRQ/XPAWd5Bn4mwZKdtcHbJlBDC2dYtRKy1OSFhuRcK+cYXqIuA3PdKvTu21DOdkV55WvMH+n3gOnB214s4+gmy8csVco3S5EGIo1bLkdF3kzcDEovkT4b6feeIU5PA/G2EQA44vfMHkNJuatnZ0VNzseHb3Jr+cLHNq0l0ltnwDJIvUPdIk0dO194e04OhYDLUaRYsvJo831Y/QfY4Y+dUkNJuCs1ug8PtVq7m0kYteTUJjF4IJOfJFjpN7hucn1Sgf+h/Qr/o5NUkMBe3kA3ebXQGSNLiPSTLVzg1ib4bt5A8a0nApskjJNNXeEPB5VvI/n9cj+LTJBskZ8P+699A8p5seVpNnp11OUJyn2x5Wk2ezrocITmH5BNrElrXkCXubfSn1SQwS1eQ3CdbnleTJx/9ALnhPlLzvJpEmytI7ttZT6xJ7FxClnjtDqMma/UUNQnVwQXkJ/+TOCDrtVQ0CZTPC8hRjCclDsnbMqiMLiB5ttEPT3peTR621XeQgxn/nt3zahLg2eAM8o3/2OBTa3IfR99Bcm2j7+WJNQnUxRnkD//BoGfWJMA/J8gBV+z8FSDngyPkRwy789TdFc8+jpCrGEOSSZNayprcp5AIIEdxzn8yQXb2kPTnt2JpEuDRATLWFTQ2Te4hO0yQMTRpBNfTfMherJO8yUPGaBwe9vaQn/xLkGfXJLQ+95Bc2+hHeWpNAmO1gxzEShDBqMl2upoEhp/TDsROEMEB2U5Pk0EKCQLZizMkuTTJCBmreVYvgPyMdy2MDbKcsiaDmzAgboIIRk0GkOX0NBmkkACxvHNfkoeM1TzfRweZfqwh+fSahOU+gezx7tnt5ck1Cf7rEUi+ky1HIZqkbzEHpBZTk8D8zYBGzCEJlS79IWV2SFnrxoREXgPwbqOfZNit0lIyQ2qt7jBm86DVAP3YV1+x4nWbdK1mhNT07liNfaHT7AMRCSKwNe5Q9VkmSFnLjnmKH95AroCQBBEQWuNqXixkvjUuC7nPjb6BoAQREFjbwsOma92y/8sUkFphKaqQFSwDYbkxoaH+6ZSQ3UeQum0JK4SAPFASlxwTGrNO8/65UCpIudlxxNV6QE4JZN4r4pJTYODV7hlaGkhNz46BuCah+ru/1OK6vBQhECm5bCFSm1o3OCV5B1KWJjlVYMmO4EIT8I8sx/QOL8WobydR13r2kFYUpCy7S4Edi4jiH2AO4q4/QqvyQDBbtsIpHkBqzaUDRGYGhHB6iLsKTwMKldmfFMZxF1KWbUdwuQc07J+27npl0RUywSzs4O4dSDnvOqKT1uDyx8XpD1Xw8yE2h+6NBYqElCXXM0WnlILq1+VhpV/xyZyIoXV1mQZSLrhbylryDALR4RJl/KOgd8QoL92Li6KhkMSkFusJZFsNOQo6WCfwHoid4rnjHgapVe1hEhVljfXgBjKhegQIzG1di4bU9M5coH9zEnxWp+DsrpZIz+ckEFle59BnryFlqTYW54lfvFY9u7p9BtlYJPCy4IXW2NXCILXqNFY1+TuvBOcZUC8ubv8klmFRzQV9VrPPILXCVk0qq3z0xW3uO2k0bwXLgiQfIG3NXzImV+ppf7QlFNIvupzUe4E567ROmmzWnOSyj8LZvSwu8XbWHwiGXra4gywKXTJey4XRCYHMLBIsv0gM7Sw4MaTOrCTTnxrXVRhuc0kmmsN2Z0uTrbdqPs4lORi+cD57X4zh49SnmXfRy650BZZpci5n3mLusPxTgSCk9ktYlYnV6xZ+CS/9Elr55WUrTgEQWnEztIZP33tNXUIQVmMisgxcgp5PggJnLGXgxMd80hCohBacii6yuXrB2fLG03kEmfl+uez95m0q+0eQGefFKmqgWWTt22jIQf2lPB/Ujq5jHA2ZeROxYZ+WYCusoNZjyMbidUwsVEOq2tBAvpLno9wtun0PMjPgv1bJI5A7xgzDPR0qyMx7nPtNrA0FnUmW75gGroTW1qSEzHymt+yCoKoVcnz5ASM8HUrIzCK1qtQEUtZ5ICGK8nRoITPJBZyv28oLeVsfhBkys06JkhcSXVci4IHsz7gpYVhYLvSz4B8XJKr0BUDy1PpFfvZTiJRy+yoBNsJqu3yWCDT4DFltCyA+yIh6vsyQHJ6PVyzOjPqyk83Wio55St5qTbs18pk9Vs5S3Xo2+aw7VTAH5H1PhwHS93wYKYuy5q1dPZ/Pa4Xq8phHcj5pyhoRqVU7nOjDVrcVfNbMWuyQEIbGdHggiefD+AcuatpfS5MndqegyQV7Nw3BsS7LeX3iFvKyVN3d2YRW1k/t7pLPNJcd0pjf8+bYIDPvjIvLoubvsDoGRmpHlvWtH2bAQ0mWq2MyBJVcU5ZbwfFe0JUkySaDVNn6B0UYIfHsvqfDBslqfAik3FJ9NGh2NM3POwhRVZYnThBVMeZVWasZ/lFU8sPyP//ZpldghaQyOgyQmRXTIUMCqXm7KBFUC0EvROu81BrvP8NbXcrXyWRiE+XuR+d/tsaqyUeeDitkhikhc1GTq4efja7m3+0wbU2uHa7644ora1vDzz6kHbhwhRHSvC66FB+y5DFQ+obn0L/xOO/nUDCrcqF4fAQmQzVr4nVVzh9CvBC0mAyPuaYxrGyQZNlF34Cilp8ecw47eTIWMdTl5vT4BKNYkFsm8lqydBrtNY0BElEaHTbIzBv9VjuBHB8hK3nZHRqqLrfGJ0hiTHUDTQty8/RUmwES3ovpxIDMrFggvXPI6tqwQiGJEeaEvC2KKgayMaKlvNCk42sSKQTysrs2TV+ThRNklxoSohGFN8cFmRl8U+72E8OzPTc82Qo0m7K+PBoeRAzPxETzc8MDJ7SQEIYUYxYFSV2Hgkwh2cPfw59CbMV3CuTOwQeG7Yms/RlwNpHzR/XuJ1QayCG90WGHpE2m5Xs8+1sBmAxGv+0GUWh1vlclnjalPPFeVeIMTPbfMad5ynmS2tPhhMysaBgDj6cT3AvAxJzIEz8ZhtKUpU47cPWQMyGeDlE1GpMlSC44OmS0qzItJIvR4YHMjGiuQPsOutStmKbZtv1O6OMaOU3WO0NkmtibFGQpWNkoXUlublXTNIZZjRLyvxFrm5khGzQnnAlkU5Pczl/HLciyvfN7VTsvF6rZoj1pSbK0DYKduE50qrvdYpassyZUY9JYsxhWPsjMgOKcD7Gu9jbIyC9r+e0hdqtuC0EdAr9u6HTv8JMF5e6zvLS28xRxVxxSAF48ZOb98W6XD0k6YKFQaNrlk+ZRe1kln+luzjp+CM35xP+9bhltJ7WHq3Oshh8LEA1JEVb3ISEyQbmMzPPfhYaptNuKeXFKkfxe20LkI8N8WJ0aKl+P2ycEsjR6tLj0IQF9SBKG/mKYKCPqpUdMSOL5PIhs7SFFCwRsnk4syIeeT1KQjJ5OPMjMx/2YTzKQl8WykofMfN0dRYlAQszq6cSFzGzunfOx8/mucEj6mI4wyMzwrrkXv6tJsXslHrJ0L+Yj/pQ5mnEZ1piQmV47xXM+h0utaUNmvtI753NVGjRFyMeejzDh83REQGYG02RveByFMaYjFDLTHyKYguxv0v8jyMzHTE1BZjGMji//AxiIoDFQMKh/AAAAAElFTkSuQmCC;" vertex="1" parent="1">
          <mxGeometry x="264.05" y="881.0699999999999" width="42.65" height="41.33" as="geometry" />
        </mxCell>
        <mxCell id="wC8_cDmadlpLExYwXLmD-47" value="" style="shape=image;verticalLabelPosition=bottom;labelBackgroundColor=#ffffff;verticalAlign=top;aspect=fixed;imageAspect=0;image=data:image/png,iVBORw0KGgoAAAANSUhEUgAAAOQAAADdCAMAAACc/C7aAAAAt1BMVEUybOX////u7u7x8O4vauXD0Ow3b+U9dunz8u4qaOXo6u4qaOSPqOn18+4mZuXs7e6ouuogY+T3+v5LfOZDd+ZVguba4e7AzutQf+b6+/7l6O7g5O1Lfea5yeu0xeuswOvZ5Prm7fzw9P1pkeuhufLQ3Pl9nuhdiufT2+3g6PvT4PnK1/jJ1eyIpelbh+nAz/d0l+yuw/SApO+dtOoQX+W7y/ZvleyLq/CivPObs/J8nO2ku+qVsOqC2cbPAAARyklEQVR4nNWdaXuqOhCAI0QgRFEU9wW3Cm3Var3aSv3/v+sG3BU0CYGjc7708VTI20kmk0kyAzIpy8d6+NZI+Z0g1bcNPocGxobzNUj1tWlC9r/mEAEiGA9X7ym+OD3I/mINEQSBQIyGi/Qw04IkiAjvEQMhmL+9lF6eDuT7xgEXiAEmmG3SwUwDsr+p3yIGnRbUf/opNCB5yMGPCmAIYoAJgeIlb2kThmz0f/4zwgEPgv77fk944kwUcvDxAx4g+mLA749E1Zkg5OBzqlAg+r3WAN+fCWImBjn4+lbpEHeYyvirn1RbEoIcrMYMiLtOq3irhLSZCGRpMbcwG6IvSF0vEsFMAnIxU8KmRQrBymxUEt8g8ZALK2pWpBEIrJHwJgmGHPwCMwZigGmi7UDsxCkSsvH+WzZiIgZiWKN3kb1WHGTjY9SOq8WDQNPavInDFAXZeNvUhWjxgGmUN5+iMMVANt5+6gbHpPEA8+dTzNgUAvn53caCEQNMXPa+RGAKgPxcW0BgR73AhOrw6wkgP2YwzrxIwVn//LeQpa+KmShiQGm2V/FMUBzI/tcQJUy4E2zMVv0Yg5Mf8n0xRAlYm3CBxmzBH/TihXxfOKLnjOQw+SB7Iwemihhg4tnmIzXI900lMv6WqGBY+eHRJjtk/9sKjaKmIaT7WB47Jitk/9tIdl58yAnxnHUXhQmy9PFtiPTCOTGRuWZbojBADt6+4b9HDAThOUsIkxqy//UNngQR+NoEc/oQJiXkYOXRxMJTFIjgfEWJSQXZX3hqOg4ci0CsrBdUmBSQg8VQQf+aKFyw4owoxuZDyMaoraTu3NALVtqbh5b2AWTplzdOnJb4s/bmgTbvQTb6I8X81xA0YoDN3S3OaMhSb2OJCjEmLoby8xHda6MgS2+b8ssg+mJauUj/IALyI/daiMAPSKtRS5QIyJ/nmxYfC0Q/LJCl4RPPGtGCh+HjMhyyV3lJSFgJ76/hkCvrX7eXT6wVA+TmX7eWVzb0kCXvSX3VR4K80EEZCtlzXnJIEsvjhEZGQiE/yy84gfgCy6H7JqGQi6R2qZKXBS1kKfdcQQAGMXJhgzIMsr9+0SFJBuW6Twn59qpDkgzK9hsl5NeLTiC+4LCN6RDI0uhlhyQZlGHH1kIg+97LDkmiSa9PBfneftkh6Q/KEHcgBPLthYck8exCLM8tZGPxEsGrKDEXtyGtW8jB92tr8vs20hMC+cpD0ndfaSDfX7q3kv56a3luIVevDnkbHbiFTHZIQkQk0fGAvikgE3RcoQHbXrE4rkAjuR0W2H4MOUiot0JsoNm0O6nKcsvtbB1oJqVQ88by3EB+JgKJTOQsJ9WmJMuSJMmSXnXtNTATGRnmTXTgBvJHuHcODROs7ZZeCAD3Qn7Wm52xYhpYdBjCuImj30CKnSX9C5KV3ETLa2eARyEfu9uZohBMkcfXbwblDaSw3gr941OV+dLN58MADxrV8tW/ccU/5CWKE5rXjt015Keg3oqRUl/n7KoWqsIrTq3V2c4riqhjl8b1oLyG3Ip4ETJUZ7qstcI7abg+m5PidKgKmUPxdRz9GjL2dhY0DGu+7E50WsATqO52ll7ZiM2Jh/chS/FcAZ9wTObCAivhgbNQnXSmdSOerwDLpbuQbyr/o8lsX8llD3Mhp5DvNquTmL6C+nEX8lfhezREpuEsq3pBigF4Ai0UqvYc+5w8zYHK711Ij+Oh/lxYH3dlajNDBUrm0Gyuoio8mNC7B1lyOB6pDrcTKa+JAzyC5mW3uOYYQNgp3YH8qHNAVopZtymLVOMBUm66k2KFvUWw/nEHcsFjd6ABZtNijWbeZwAkHkLWzjkK1xlbdXUHknMbHUIEyvOt7QrSJ3lMtbv1YvhAm2jIUozYOUTYmo2XE/mep0qpQ/dv7JQB4vdmr7bVLyD5ttFPl5kwVMqzaU3it7NaXiKTZFmFR28A86w5sdOLhPyyOP52ynh28lD8g5mKNbfp3dZzFeb1zthSThdrgmjCWGFvE7S+IiF/ORQJlUle73pl9bhYgr5nUMm5uk7vGchSQa8uHfLF418L+3+tv2Z+wuOf4N8oyNKUZ52lZGXSy/Razmkrp0u/0DDb047bKjz28QJPLrudmWf9AStlZ9r1+4Oc5dAkMH5KEZDvQx7vwocMRlMhu/Qcslg6/g8yLK9Yc++uR3yfPGuP28bJkJKlaMXbdvRdjyeQPK0avkdA8m2j7yF3DZ7Y27V1ugVEONVhrjtphs+hmtZ0u9u5dba6Cr5g+184PJRLk7D8FgG54jFk8AQZcErVWnFcPlv8EsXMvGWnemWKiJlp1ZbjC9UbiCxFO+7FQo1PkwCtwiFLG67QxwXkboi1XLIoNI8dMPAVnLF94vQJu9NhXTlNP8RaWWP7dinKp0lgnN8xOIPsz3lmSXgNGbRMarYm28qFKQFqe7h1yeLCj9H9zetnsSsyVRAzlW2FLUU5NYnn/VDIHteQDIXcKbRQ/XPAWd5Bn4mwZKdtcHbJlBDC2dYtRKy1OSFhuRcK+cYXqIuA3PdKvTu21DOdkV55WvMH+n3gOnB214s4+gmy8csVco3S5EGIo1bLkdF3kzcDEovkT4b6feeIU5PA/G2EQA44vfMHkNJuatnZ0VNzseHb3Jr+cLHNq0l0ltnwDJIvUPdIk0dO194e04OhYDLUaRYsvJo831Y/QfY4Y+dUkNJuCs1ug8PtVq7m0kYteTUJjF4IJOfJFjpN7hucn1Sgf+h/Qr/o5NUkMBe3kA3ebXQGSNLiPSTLVzg1ib4bt5A8a0nApskjJNNXeEPB5VvI/n9cj+LTJBskZ8P+699A8p5seVpNnp11OUJyn2x5Wk2ezrocITmH5BNrElrXkCXubfSn1SQwS1eQ3CdbnleTJx/9ALnhPlLzvJpEmytI7ttZT6xJ7FxClnjtDqMma/UUNQnVwQXkJ/+TOCDrtVQ0CZTPC8hRjCclDsnbMqiMLiB5ttEPT3peTR621XeQgxn/nt3zahLg2eAM8o3/2OBTa3IfR99Bcm2j7+WJNQnUxRnkD//BoGfWJMA/J8gBV+z8FSDngyPkRwy789TdFc8+jpCrGEOSSZNayprcp5AIIEdxzn8yQXb2kPTnt2JpEuDRATLWFTQ2Te4hO0yQMTRpBNfTfMherJO8yUPGaBwe9vaQn/xLkGfXJLQ+95Bc2+hHeWpNAmO1gxzEShDBqMl2upoEhp/TDsROEMEB2U5Pk0EKCQLZizMkuTTJCBmreVYvgPyMdy2MDbKcsiaDmzAgboIIRk0GkOX0NBmkkACxvHNfkoeM1TzfRweZfqwh+fSahOU+gezx7tnt5ck1Cf7rEUi+ky1HIZqkbzEHpBZTk8D8zYBGzCEJlS79IWV2SFnrxoREXgPwbqOfZNit0lIyQ2qt7jBm86DVAP3YV1+x4nWbdK1mhNT07liNfaHT7AMRCSKwNe5Q9VkmSFnLjnmKH95AroCQBBEQWuNqXixkvjUuC7nPjb6BoAQREFjbwsOma92y/8sUkFphKaqQFSwDYbkxoaH+6ZSQ3UeQum0JK4SAPFASlxwTGrNO8/65UCpIudlxxNV6QE4JZN4r4pJTYODV7hlaGkhNz46BuCah+ru/1OK6vBQhECm5bCFSm1o3OCV5B1KWJjlVYMmO4EIT8I8sx/QOL8WobydR13r2kFYUpCy7S4Edi4jiH2AO4q4/QqvyQDBbtsIpHkBqzaUDRGYGhHB6iLsKTwMKldmfFMZxF1KWbUdwuQc07J+27npl0RUywSzs4O4dSDnvOqKT1uDyx8XpD1Xw8yE2h+6NBYqElCXXM0WnlILq1+VhpV/xyZyIoXV1mQZSLrhbylryDALR4RJl/KOgd8QoL92Li6KhkMSkFusJZFsNOQo6WCfwHoid4rnjHgapVe1hEhVljfXgBjKhegQIzG1di4bU9M5coH9zEnxWp+DsrpZIz+ckEFle59BnryFlqTYW54lfvFY9u7p9BtlYJPCy4IXW2NXCILXqNFY1+TuvBOcZUC8ubv8klmFRzQV9VrPPILXCVk0qq3z0xW3uO2k0bwXLgiQfIG3NXzImV+ppf7QlFNIvupzUe4E567ROmmzWnOSyj8LZvSwu8XbWHwiGXra4gywKXTJey4XRCYHMLBIsv0gM7Sw4MaTOrCTTnxrXVRhuc0kmmsN2Z0uTrbdqPs4lORi+cD57X4zh49SnmXfRy650BZZpci5n3mLusPxTgSCk9ktYlYnV6xZ+CS/9Elr55WUrTgEQWnEztIZP33tNXUIQVmMisgxcgp5PggJnLGXgxMd80hCohBacii6yuXrB2fLG03kEmfl+uez95m0q+0eQGefFKmqgWWTt22jIQf2lPB/Ujq5jHA2ZeROxYZ+WYCusoNZjyMbidUwsVEOq2tBAvpLno9wtun0PMjPgv1bJI5A7xgzDPR0qyMx7nPtNrA0FnUmW75gGroTW1qSEzHymt+yCoKoVcnz5ASM8HUrIzCK1qtQEUtZ5ICGK8nRoITPJBZyv28oLeVsfhBkys06JkhcSXVci4IHsz7gpYVhYLvSz4B8XJKr0BUDy1PpFfvZTiJRy+yoBNsJqu3yWCDT4DFltCyA+yIh6vsyQHJ6PVyzOjPqyk83Wio55St5qTbs18pk9Vs5S3Xo2+aw7VTAH5H1PhwHS93wYKYuy5q1dPZ/Pa4Xq8phHcj5pyhoRqVU7nOjDVrcVfNbMWuyQEIbGdHggiefD+AcuatpfS5MndqegyQV7Nw3BsS7LeX3iFvKyVN3d2YRW1k/t7pLPNJcd0pjf8+bYIDPvjIvLoubvsDoGRmpHlvWtH2bAQ0mWq2MyBJVcU5ZbwfFe0JUkySaDVNn6B0UYIfHsvqfDBslqfAik3FJ9NGh2NM3POwhRVZYnThBVMeZVWasZ/lFU8sPyP//ZpldghaQyOgyQmRXTIUMCqXm7KBFUC0EvROu81BrvP8NbXcrXyWRiE+XuR+d/tsaqyUeeDitkhikhc1GTq4efja7m3+0wbU2uHa7644ora1vDzz6kHbhwhRHSvC66FB+y5DFQ+obn0L/xOO/nUDCrcqF4fAQmQzVr4nVVzh9CvBC0mAyPuaYxrGyQZNlF34Cilp8ecw47eTIWMdTl5vT4BKNYkFsm8lqydBrtNY0BElEaHTbIzBv9VjuBHB8hK3nZHRqqLrfGJ0hiTHUDTQty8/RUmwES3ovpxIDMrFggvXPI6tqwQiGJEeaEvC2KKgayMaKlvNCk42sSKQTysrs2TV+ThRNklxoSohGFN8cFmRl8U+72E8OzPTc82Qo0m7K+PBoeRAzPxETzc8MDJ7SQEIYUYxYFSV2Hgkwh2cPfw59CbMV3CuTOwQeG7Yms/RlwNpHzR/XuJ1QayCG90WGHpE2m5Xs8+1sBmAxGv+0GUWh1vlclnjalPPFeVeIMTPbfMad5ynmS2tPhhMysaBgDj6cT3AvAxJzIEz8ZhtKUpU47cPWQMyGeDlE1GpMlSC44OmS0qzItJIvR4YHMjGiuQPsOutStmKbZtv1O6OMaOU3WO0NkmtibFGQpWNkoXUlublXTNIZZjRLyvxFrm5khGzQnnAlkU5Pczl/HLciyvfN7VTsvF6rZoj1pSbK0DYKduE50qrvdYpassyZUY9JYsxhWPsjMgOKcD7Gu9jbIyC9r+e0hdqtuC0EdAr9u6HTv8JMF5e6zvLS28xRxVxxSAF48ZOb98W6XD0k6YKFQaNrlk+ZRe1kln+luzjp+CM35xP+9bhltJ7WHq3Oshh8LEA1JEVb3ISEyQbmMzPPfhYaptNuKeXFKkfxe20LkI8N8WJ0aKl+P2ycEsjR6tLj0IQF9SBKG/mKYKCPqpUdMSOL5PIhs7SFFCwRsnk4syIeeT1KQjJ5OPMjMx/2YTzKQl8WykofMfN0dRYlAQszq6cSFzGzunfOx8/mucEj6mI4wyMzwrrkXv6tJsXslHrJ0L+Yj/pQ5mnEZ1piQmV47xXM+h0utaUNmvtI753NVGjRFyMeejzDh83REQGYG02RveByFMaYjFDLTHyKYguxv0v8jyMzHTE1BZjGMji//AxiIoDFQMKh/AAAAAElFTkSuQmCC;" vertex="1" parent="1">
          <mxGeometry x="207.35" y="881.07" width="42.65" height="41.33" as="geometry" />
        </mxCell>
        <mxCell id="wC8_cDmadlpLExYwXLmD-53" value="" style="endArrow=classic;html=1;fontSize=4;entryX=0.5;entryY=0;entryDx=0;entryDy=0;exitX=0.5;exitY=1;exitDx=0;exitDy=0;" edge="1" parent="1" source="wC8_cDmadlpLExYwXLmD-43" target="wC8_cDmadlpLExYwXLmD-45">
          <mxGeometry width="50" height="50" relative="1" as="geometry">
            <mxPoint x="380" y="960" as="sourcePoint" />
            <mxPoint x="430" y="910" as="targetPoint" />
            <Array as="points">
              <mxPoint x="171" y="810" />
            </Array>
          </mxGeometry>
        </mxCell>
        <mxCell id="wC8_cDmadlpLExYwXLmD-54" value="" style="endArrow=classic;html=1;fontSize=4;exitX=0.5;exitY=1;exitDx=0;exitDy=0;" edge="1" parent="1" source="wC8_cDmadlpLExYwXLmD-43">
          <mxGeometry width="50" height="50" relative="1" as="geometry">
            <mxPoint x="230" y="790" as="sourcePoint" />
            <mxPoint x="229" y="880" as="targetPoint" />
            <Array as="points" />
          </mxGeometry>
        </mxCell>
        <mxCell id="wC8_cDmadlpLExYwXLmD-55" value="" style="endArrow=classic;html=1;fontSize=4;exitX=0.5;exitY=1;exitDx=0;exitDy=0;entryX=0.5;entryY=0;entryDx=0;entryDy=0;" edge="1" parent="1" source="wC8_cDmadlpLExYwXLmD-43" target="wC8_cDmadlpLExYwXLmD-46">
          <mxGeometry width="50" height="50" relative="1" as="geometry">
            <mxPoint x="380" y="960" as="sourcePoint" />
            <mxPoint x="430" y="910" as="targetPoint" />
            <Array as="points">
              <mxPoint x="285" y="810" />
            </Array>
          </mxGeometry>
        </mxCell>
        <mxCell id="wC8_cDmadlpLExYwXLmD-56" value="" style="shape=image;verticalLabelPosition=bottom;labelBackgroundColor=#ffffff;verticalAlign=top;aspect=fixed;imageAspect=0;image=https://qiita-user-contents.imgix.net/https%3A%2F%2Fqiita-image-store.s3.amazonaws.com%2F0%2F309176%2F26fa4109-f72a-782b-4181-2779c7a4b33a.png?ixlib=rb-4.0.0&amp;auto=format&amp;gif-q=60&amp;q=75&amp;s=03a7bfb1ae1efebeee798cef147dd12e;" vertex="1" parent="1">
          <mxGeometry x="599.05" y="832.94" width="40" height="40" as="geometry" />
        </mxCell>
        <mxCell id="wC8_cDmadlpLExYwXLmD-57" value="" style="shape=image;verticalLabelPosition=bottom;labelBackgroundColor=#ffffff;verticalAlign=top;aspect=fixed;imageAspect=0;image=https://qiita-user-contents.imgix.net/https%3A%2F%2Fqiita-image-store.s3.amazonaws.com%2F0%2F309176%2F2e9375fe-f26e-328d-b039-ad33be2cf24e.png?ixlib=rb-4.0.0&amp;auto=format&amp;gif-q=60&amp;q=75&amp;s=ff0312d50d4fa6669a77429583385532;" vertex="1" parent="1">
          <mxGeometry x="659.05" y="832.9399999999999" width="39.73" height="39.73" as="geometry" />
        </mxCell>
        <mxCell id="wC8_cDmadlpLExYwXLmD-58" value="" style="shape=image;verticalLabelPosition=bottom;labelBackgroundColor=#ffffff;verticalAlign=top;aspect=fixed;imageAspect=0;image=https://qiita-user-contents.imgix.net/https%3A%2F%2Fqiita-image-store.s3.amazonaws.com%2F0%2F309176%2F73356215-fe89-e13b-a067-12b8bbf7817a.png?ixlib=rb-4.0.0&amp;auto=format&amp;gif-q=60&amp;q=75&amp;s=17f3e16076528004963ce07fce064e7b;" vertex="1" parent="1">
          <mxGeometry x="625.73" y="740" width="44" height="44" as="geometry" />
        </mxCell>
        <mxCell id="wC8_cDmadlpLExYwXLmD-59" value="" style="rounded=1;whiteSpace=wrap;html=1;" vertex="1" parent="1">
          <mxGeometry x="559.05" y="872.67" width="180" height="57.05" as="geometry" />
        </mxCell>
        <mxCell id="wC8_cDmadlpLExYwXLmD-60" value="" style="shape=image;verticalLabelPosition=bottom;labelBackgroundColor=#ffffff;verticalAlign=top;aspect=fixed;imageAspect=0;image=data:image/png,iVBORw0KGgoAAAANSUhEUgAAAOQAAADdCAMAAACc/C7aAAAAt1BMVEUybOX////u7u7x8O4vauXD0Ow3b+U9dunz8u4qaOXo6u4qaOSPqOn18+4mZuXs7e6ouuogY+T3+v5LfOZDd+ZVguba4e7AzutQf+b6+/7l6O7g5O1Lfea5yeu0xeuswOvZ5Prm7fzw9P1pkeuhufLQ3Pl9nuhdiufT2+3g6PvT4PnK1/jJ1eyIpelbh+nAz/d0l+yuw/SApO+dtOoQX+W7y/ZvleyLq/CivPObs/J8nO2ku+qVsOqC2cbPAAARyklEQVR4nNWdaXuqOhCAI0QgRFEU9wW3Cm3Var3aSv3/v+sG3BU0CYGjc7708VTI20kmk0kyAzIpy8d6+NZI+Z0g1bcNPocGxobzNUj1tWlC9r/mEAEiGA9X7ym+OD3I/mINEQSBQIyGi/Qw04IkiAjvEQMhmL+9lF6eDuT7xgEXiAEmmG3SwUwDsr+p3yIGnRbUf/opNCB5yMGPCmAIYoAJgeIlb2kThmz0f/4zwgEPgv77fk944kwUcvDxAx4g+mLA749E1Zkg5OBzqlAg+r3WAN+fCWImBjn4+lbpEHeYyvirn1RbEoIcrMYMiLtOq3irhLSZCGRpMbcwG6IvSF0vEsFMAnIxU8KmRQrBymxUEt8g8ZALK2pWpBEIrJHwJgmGHPwCMwZigGmi7UDsxCkSsvH+WzZiIgZiWKN3kb1WHGTjY9SOq8WDQNPavInDFAXZeNvUhWjxgGmUN5+iMMVANt5+6gbHpPEA8+dTzNgUAvn53caCEQNMXPa+RGAKgPxcW0BgR73AhOrw6wkgP2YwzrxIwVn//LeQpa+KmShiQGm2V/FMUBzI/tcQJUy4E2zMVv0Yg5Mf8n0xRAlYm3CBxmzBH/TihXxfOKLnjOQw+SB7Iwemihhg4tnmIzXI900lMv6WqGBY+eHRJjtk/9sKjaKmIaT7WB47Jitk/9tIdl58yAnxnHUXhQmy9PFtiPTCOTGRuWZbojBADt6+4b9HDAThOUsIkxqy//UNngQR+NoEc/oQJiXkYOXRxMJTFIjgfEWJSQXZX3hqOg4ci0CsrBdUmBSQg8VQQf+aKFyw4owoxuZDyMaoraTu3NALVtqbh5b2AWTplzdOnJb4s/bmgTbvQTb6I8X81xA0YoDN3S3OaMhSb2OJCjEmLoby8xHda6MgS2+b8ssg+mJauUj/IALyI/daiMAPSKtRS5QIyJ/nmxYfC0Q/LJCl4RPPGtGCh+HjMhyyV3lJSFgJ76/hkCvrX7eXT6wVA+TmX7eWVzb0kCXvSX3VR4K80EEZCtlzXnJIEsvjhEZGQiE/yy84gfgCy6H7JqGQi6R2qZKXBS1kKfdcQQAGMXJhgzIMsr9+0SFJBuW6Twn59qpDkgzK9hsl5NeLTiC+4LCN6RDI0uhlhyQZlGHH1kIg+97LDkmiSa9PBfneftkh6Q/KEHcgBPLthYck8exCLM8tZGPxEsGrKDEXtyGtW8jB92tr8vs20hMC+cpD0ndfaSDfX7q3kv56a3luIVevDnkbHbiFTHZIQkQk0fGAvikgE3RcoQHbXrE4rkAjuR0W2H4MOUiot0JsoNm0O6nKcsvtbB1oJqVQ88by3EB+JgKJTOQsJ9WmJMuSJMmSXnXtNTATGRnmTXTgBvJHuHcODROs7ZZeCAD3Qn7Wm52xYhpYdBjCuImj30CKnSX9C5KV3ETLa2eARyEfu9uZohBMkcfXbwblDaSw3gr941OV+dLN58MADxrV8tW/ccU/5CWKE5rXjt015Keg3oqRUl/n7KoWqsIrTq3V2c4riqhjl8b1oLyG3Ip4ETJUZ7qstcI7abg+m5PidKgKmUPxdRz9GjL2dhY0DGu+7E50WsATqO52ll7ZiM2Jh/chS/FcAZ9wTObCAivhgbNQnXSmdSOerwDLpbuQbyr/o8lsX8llD3Mhp5DvNquTmL6C+nEX8lfhezREpuEsq3pBigF4Ai0UqvYc+5w8zYHK711Ij+Oh/lxYH3dlajNDBUrm0Gyuoio8mNC7B1lyOB6pDrcTKa+JAzyC5mW3uOYYQNgp3YH8qHNAVopZtymLVOMBUm66k2KFvUWw/nEHcsFjd6ABZtNijWbeZwAkHkLWzjkK1xlbdXUHknMbHUIEyvOt7QrSJ3lMtbv1YvhAm2jIUozYOUTYmo2XE/mep0qpQ/dv7JQB4vdmr7bVLyD5ttFPl5kwVMqzaU3it7NaXiKTZFmFR28A86w5sdOLhPyyOP52ynh28lD8g5mKNbfp3dZzFeb1zthSThdrgmjCWGFvE7S+IiF/ORQJlUle73pl9bhYgr5nUMm5uk7vGchSQa8uHfLF418L+3+tv2Z+wuOf4N8oyNKUZ52lZGXSy/Razmkrp0u/0DDb047bKjz28QJPLrudmWf9AStlZ9r1+4Oc5dAkMH5KEZDvQx7vwocMRlMhu/Qcslg6/g8yLK9Yc++uR3yfPGuP28bJkJKlaMXbdvRdjyeQPK0avkdA8m2j7yF3DZ7Y27V1ugVEONVhrjtphs+hmtZ0u9u5dba6Cr5g+184PJRLk7D8FgG54jFk8AQZcErVWnFcPlv8EsXMvGWnemWKiJlp1ZbjC9UbiCxFO+7FQo1PkwCtwiFLG67QxwXkboi1XLIoNI8dMPAVnLF94vQJu9NhXTlNP8RaWWP7dinKp0lgnN8xOIPsz3lmSXgNGbRMarYm28qFKQFqe7h1yeLCj9H9zetnsSsyVRAzlW2FLUU5NYnn/VDIHteQDIXcKbRQ/XPAWd5Bn4mwZKdtcHbJlBDC2dYtRKy1OSFhuRcK+cYXqIuA3PdKvTu21DOdkV55WvMH+n3gOnB214s4+gmy8csVco3S5EGIo1bLkdF3kzcDEovkT4b6feeIU5PA/G2EQA44vfMHkNJuatnZ0VNzseHb3Jr+cLHNq0l0ltnwDJIvUPdIk0dO194e04OhYDLUaRYsvJo831Y/QfY4Y+dUkNJuCs1ug8PtVq7m0kYteTUJjF4IJOfJFjpN7hucn1Sgf+h/Qr/o5NUkMBe3kA3ebXQGSNLiPSTLVzg1ib4bt5A8a0nApskjJNNXeEPB5VvI/n9cj+LTJBskZ8P+699A8p5seVpNnp11OUJyn2x5Wk2ezrocITmH5BNrElrXkCXubfSn1SQwS1eQ3CdbnleTJx/9ALnhPlLzvJpEmytI7ttZT6xJ7FxClnjtDqMma/UUNQnVwQXkJ/+TOCDrtVQ0CZTPC8hRjCclDsnbMqiMLiB5ttEPT3peTR621XeQgxn/nt3zahLg2eAM8o3/2OBTa3IfR99Bcm2j7+WJNQnUxRnkD//BoGfWJMA/J8gBV+z8FSDngyPkRwy789TdFc8+jpCrGEOSSZNayprcp5AIIEdxzn8yQXb2kPTnt2JpEuDRATLWFTQ2Te4hO0yQMTRpBNfTfMherJO8yUPGaBwe9vaQn/xLkGfXJLQ+95Bc2+hHeWpNAmO1gxzEShDBqMl2upoEhp/TDsROEMEB2U5Pk0EKCQLZizMkuTTJCBmreVYvgPyMdy2MDbKcsiaDmzAgboIIRk0GkOX0NBmkkACxvHNfkoeM1TzfRweZfqwh+fSahOU+gezx7tnt5ck1Cf7rEUi+ky1HIZqkbzEHpBZTk8D8zYBGzCEJlS79IWV2SFnrxoREXgPwbqOfZNit0lIyQ2qt7jBm86DVAP3YV1+x4nWbdK1mhNT07liNfaHT7AMRCSKwNe5Q9VkmSFnLjnmKH95AroCQBBEQWuNqXixkvjUuC7nPjb6BoAQREFjbwsOma92y/8sUkFphKaqQFSwDYbkxoaH+6ZSQ3UeQum0JK4SAPFASlxwTGrNO8/65UCpIudlxxNV6QE4JZN4r4pJTYODV7hlaGkhNz46BuCah+ru/1OK6vBQhECm5bCFSm1o3OCV5B1KWJjlVYMmO4EIT8I8sx/QOL8WobydR13r2kFYUpCy7S4Edi4jiH2AO4q4/QqvyQDBbtsIpHkBqzaUDRGYGhHB6iLsKTwMKldmfFMZxF1KWbUdwuQc07J+27npl0RUywSzs4O4dSDnvOqKT1uDyx8XpD1Xw8yE2h+6NBYqElCXXM0WnlILq1+VhpV/xyZyIoXV1mQZSLrhbylryDALR4RJl/KOgd8QoL92Li6KhkMSkFusJZFsNOQo6WCfwHoid4rnjHgapVe1hEhVljfXgBjKhegQIzG1di4bU9M5coH9zEnxWp+DsrpZIz+ckEFle59BnryFlqTYW54lfvFY9u7p9BtlYJPCy4IXW2NXCILXqNFY1+TuvBOcZUC8ubv8klmFRzQV9VrPPILXCVk0qq3z0xW3uO2k0bwXLgiQfIG3NXzImV+ppf7QlFNIvupzUe4E567ROmmzWnOSyj8LZvSwu8XbWHwiGXra4gywKXTJey4XRCYHMLBIsv0gM7Sw4MaTOrCTTnxrXVRhuc0kmmsN2Z0uTrbdqPs4lORi+cD57X4zh49SnmXfRy650BZZpci5n3mLusPxTgSCk9ktYlYnV6xZ+CS/9Elr55WUrTgEQWnEztIZP33tNXUIQVmMisgxcgp5PggJnLGXgxMd80hCohBacii6yuXrB2fLG03kEmfl+uez95m0q+0eQGefFKmqgWWTt22jIQf2lPB/Ujq5jHA2ZeROxYZ+WYCusoNZjyMbidUwsVEOq2tBAvpLno9wtun0PMjPgv1bJI5A7xgzDPR0qyMx7nPtNrA0FnUmW75gGroTW1qSEzHymt+yCoKoVcnz5ASM8HUrIzCK1qtQEUtZ5ICGK8nRoITPJBZyv28oLeVsfhBkys06JkhcSXVci4IHsz7gpYVhYLvSz4B8XJKr0BUDy1PpFfvZTiJRy+yoBNsJqu3yWCDT4DFltCyA+yIh6vsyQHJ6PVyzOjPqyk83Wio55St5qTbs18pk9Vs5S3Xo2+aw7VTAH5H1PhwHS93wYKYuy5q1dPZ/Pa4Xq8phHcj5pyhoRqVU7nOjDVrcVfNbMWuyQEIbGdHggiefD+AcuatpfS5MndqegyQV7Nw3BsS7LeX3iFvKyVN3d2YRW1k/t7pLPNJcd0pjf8+bYIDPvjIvLoubvsDoGRmpHlvWtH2bAQ0mWq2MyBJVcU5ZbwfFe0JUkySaDVNn6B0UYIfHsvqfDBslqfAik3FJ9NGh2NM3POwhRVZYnThBVMeZVWasZ/lFU8sPyP//ZpldghaQyOgyQmRXTIUMCqXm7KBFUC0EvROu81BrvP8NbXcrXyWRiE+XuR+d/tsaqyUeeDitkhikhc1GTq4efja7m3+0wbU2uHa7644ora1vDzz6kHbhwhRHSvC66FB+y5DFQ+obn0L/xOO/nUDCrcqF4fAQmQzVr4nVVzh9CvBC0mAyPuaYxrGyQZNlF34Cilp8ecw47eTIWMdTl5vT4BKNYkFsm8lqydBrtNY0BElEaHTbIzBv9VjuBHB8hK3nZHRqqLrfGJ0hiTHUDTQty8/RUmwES3ovpxIDMrFggvXPI6tqwQiGJEeaEvC2KKgayMaKlvNCk42sSKQTysrs2TV+ThRNklxoSohGFN8cFmRl8U+72E8OzPTc82Qo0m7K+PBoeRAzPxETzc8MDJ7SQEIYUYxYFSV2Hgkwh2cPfw59CbMV3CuTOwQeG7Yms/RlwNpHzR/XuJ1QayCG90WGHpE2m5Xs8+1sBmAxGv+0GUWh1vlclnjalPPFeVeIMTPbfMad5ynmS2tPhhMysaBgDj6cT3AvAxJzIEz8ZhtKUpU47cPWQMyGeDlE1GpMlSC44OmS0qzItJIvR4YHMjGiuQPsOutStmKbZtv1O6OMaOU3WO0NkmtibFGQpWNkoXUlublXTNIZZjRLyvxFrm5khGzQnnAlkU5Pczl/HLciyvfN7VTsvF6rZoj1pSbK0DYKduE50qrvdYpassyZUY9JYsxhWPsjMgOKcD7Gu9jbIyC9r+e0hdqtuC0EdAr9u6HTv8JMF5e6zvLS28xRxVxxSAF48ZOb98W6XD0k6YKFQaNrlk+ZRe1kln+luzjp+CM35xP+9bhltJ7WHq3Oshh8LEA1JEVb3ISEyQbmMzPPfhYaptNuKeXFKkfxe20LkI8N8WJ0aKl+P2ycEsjR6tLj0IQF9SBKG/mKYKCPqpUdMSOL5PIhs7SFFCwRsnk4syIeeT1KQjJ5OPMjMx/2YTzKQl8WykofMfN0dRYlAQszq6cSFzGzunfOx8/mucEj6mI4wyMzwrrkXv6tJsXslHrJ0L+Yj/pQ5mnEZ1piQmV47xXM+h0utaUNmvtI753NVGjRFyMeejzDh83REQGYG02RveByFMaYjFDLTHyKYguxv0v8jyMzHTE1BZjGMji//AxiIoDFQMKh/AAAAAElFTkSuQmCC;" vertex="1" parent="1">
          <mxGeometry x="568.0999999999999" y="880" width="43.75" height="42.4" as="geometry" />
        </mxCell>
        <mxCell id="wC8_cDmadlpLExYwXLmD-61" value="" style="shape=image;verticalLabelPosition=bottom;labelBackgroundColor=#ffffff;verticalAlign=top;aspect=fixed;imageAspect=0;image=data:image/png,iVBORw0KGgoAAAANSUhEUgAAAOQAAADdCAMAAACc/C7aAAAAt1BMVEUybOX////u7u7x8O4vauXD0Ow3b+U9dunz8u4qaOXo6u4qaOSPqOn18+4mZuXs7e6ouuogY+T3+v5LfOZDd+ZVguba4e7AzutQf+b6+/7l6O7g5O1Lfea5yeu0xeuswOvZ5Prm7fzw9P1pkeuhufLQ3Pl9nuhdiufT2+3g6PvT4PnK1/jJ1eyIpelbh+nAz/d0l+yuw/SApO+dtOoQX+W7y/ZvleyLq/CivPObs/J8nO2ku+qVsOqC2cbPAAARyklEQVR4nNWdaXuqOhCAI0QgRFEU9wW3Cm3Var3aSv3/v+sG3BU0CYGjc7708VTI20kmk0kyAzIpy8d6+NZI+Z0g1bcNPocGxobzNUj1tWlC9r/mEAEiGA9X7ym+OD3I/mINEQSBQIyGi/Qw04IkiAjvEQMhmL+9lF6eDuT7xgEXiAEmmG3SwUwDsr+p3yIGnRbUf/opNCB5yMGPCmAIYoAJgeIlb2kThmz0f/4zwgEPgv77fk944kwUcvDxAx4g+mLA749E1Zkg5OBzqlAg+r3WAN+fCWImBjn4+lbpEHeYyvirn1RbEoIcrMYMiLtOq3irhLSZCGRpMbcwG6IvSF0vEsFMAnIxU8KmRQrBymxUEt8g8ZALK2pWpBEIrJHwJgmGHPwCMwZigGmi7UDsxCkSsvH+WzZiIgZiWKN3kb1WHGTjY9SOq8WDQNPavInDFAXZeNvUhWjxgGmUN5+iMMVANt5+6gbHpPEA8+dTzNgUAvn53caCEQNMXPa+RGAKgPxcW0BgR73AhOrw6wkgP2YwzrxIwVn//LeQpa+KmShiQGm2V/FMUBzI/tcQJUy4E2zMVv0Yg5Mf8n0xRAlYm3CBxmzBH/TihXxfOKLnjOQw+SB7Iwemihhg4tnmIzXI900lMv6WqGBY+eHRJjtk/9sKjaKmIaT7WB47Jitk/9tIdl58yAnxnHUXhQmy9PFtiPTCOTGRuWZbojBADt6+4b9HDAThOUsIkxqy//UNngQR+NoEc/oQJiXkYOXRxMJTFIjgfEWJSQXZX3hqOg4ci0CsrBdUmBSQg8VQQf+aKFyw4owoxuZDyMaoraTu3NALVtqbh5b2AWTplzdOnJb4s/bmgTbvQTb6I8X81xA0YoDN3S3OaMhSb2OJCjEmLoby8xHda6MgS2+b8ssg+mJauUj/IALyI/daiMAPSKtRS5QIyJ/nmxYfC0Q/LJCl4RPPGtGCh+HjMhyyV3lJSFgJ76/hkCvrX7eXT6wVA+TmX7eWVzb0kCXvSX3VR4K80EEZCtlzXnJIEsvjhEZGQiE/yy84gfgCy6H7JqGQi6R2qZKXBS1kKfdcQQAGMXJhgzIMsr9+0SFJBuW6Twn59qpDkgzK9hsl5NeLTiC+4LCN6RDI0uhlhyQZlGHH1kIg+97LDkmiSa9PBfneftkh6Q/KEHcgBPLthYck8exCLM8tZGPxEsGrKDEXtyGtW8jB92tr8vs20hMC+cpD0ndfaSDfX7q3kv56a3luIVevDnkbHbiFTHZIQkQk0fGAvikgE3RcoQHbXrE4rkAjuR0W2H4MOUiot0JsoNm0O6nKcsvtbB1oJqVQ88by3EB+JgKJTOQsJ9WmJMuSJMmSXnXtNTATGRnmTXTgBvJHuHcODROs7ZZeCAD3Qn7Wm52xYhpYdBjCuImj30CKnSX9C5KV3ETLa2eARyEfu9uZohBMkcfXbwblDaSw3gr941OV+dLN58MADxrV8tW/ccU/5CWKE5rXjt015Keg3oqRUl/n7KoWqsIrTq3V2c4riqhjl8b1oLyG3Ip4ETJUZ7qstcI7abg+m5PidKgKmUPxdRz9GjL2dhY0DGu+7E50WsATqO52ll7ZiM2Jh/chS/FcAZ9wTObCAivhgbNQnXSmdSOerwDLpbuQbyr/o8lsX8llD3Mhp5DvNquTmL6C+nEX8lfhezREpuEsq3pBigF4Ai0UqvYc+5w8zYHK711Ij+Oh/lxYH3dlajNDBUrm0Gyuoio8mNC7B1lyOB6pDrcTKa+JAzyC5mW3uOYYQNgp3YH8qHNAVopZtymLVOMBUm66k2KFvUWw/nEHcsFjd6ABZtNijWbeZwAkHkLWzjkK1xlbdXUHknMbHUIEyvOt7QrSJ3lMtbv1YvhAm2jIUozYOUTYmo2XE/mep0qpQ/dv7JQB4vdmr7bVLyD5ttFPl5kwVMqzaU3it7NaXiKTZFmFR28A86w5sdOLhPyyOP52ynh28lD8g5mKNbfp3dZzFeb1zthSThdrgmjCWGFvE7S+IiF/ORQJlUle73pl9bhYgr5nUMm5uk7vGchSQa8uHfLF418L+3+tv2Z+wuOf4N8oyNKUZ52lZGXSy/Razmkrp0u/0DDb047bKjz28QJPLrudmWf9AStlZ9r1+4Oc5dAkMH5KEZDvQx7vwocMRlMhu/Qcslg6/g8yLK9Yc++uR3yfPGuP28bJkJKlaMXbdvRdjyeQPK0avkdA8m2j7yF3DZ7Y27V1ugVEONVhrjtphs+hmtZ0u9u5dba6Cr5g+184PJRLk7D8FgG54jFk8AQZcErVWnFcPlv8EsXMvGWnemWKiJlp1ZbjC9UbiCxFO+7FQo1PkwCtwiFLG67QxwXkboi1XLIoNI8dMPAVnLF94vQJu9NhXTlNP8RaWWP7dinKp0lgnN8xOIPsz3lmSXgNGbRMarYm28qFKQFqe7h1yeLCj9H9zetnsSsyVRAzlW2FLUU5NYnn/VDIHteQDIXcKbRQ/XPAWd5Bn4mwZKdtcHbJlBDC2dYtRKy1OSFhuRcK+cYXqIuA3PdKvTu21DOdkV55WvMH+n3gOnB214s4+gmy8csVco3S5EGIo1bLkdF3kzcDEovkT4b6feeIU5PA/G2EQA44vfMHkNJuatnZ0VNzseHb3Jr+cLHNq0l0ltnwDJIvUPdIk0dO194e04OhYDLUaRYsvJo831Y/QfY4Y+dUkNJuCs1ug8PtVq7m0kYteTUJjF4IJOfJFjpN7hucn1Sgf+h/Qr/o5NUkMBe3kA3ebXQGSNLiPSTLVzg1ib4bt5A8a0nApskjJNNXeEPB5VvI/n9cj+LTJBskZ8P+699A8p5seVpNnp11OUJyn2x5Wk2ezrocITmH5BNrElrXkCXubfSn1SQwS1eQ3CdbnleTJx/9ALnhPlLzvJpEmytI7ttZT6xJ7FxClnjtDqMma/UUNQnVwQXkJ/+TOCDrtVQ0CZTPC8hRjCclDsnbMqiMLiB5ttEPT3peTR621XeQgxn/nt3zahLg2eAM8o3/2OBTa3IfR99Bcm2j7+WJNQnUxRnkD//BoGfWJMA/J8gBV+z8FSDngyPkRwy789TdFc8+jpCrGEOSSZNayprcp5AIIEdxzn8yQXb2kPTnt2JpEuDRATLWFTQ2Te4hO0yQMTRpBNfTfMherJO8yUPGaBwe9vaQn/xLkGfXJLQ+95Bc2+hHeWpNAmO1gxzEShDBqMl2upoEhp/TDsROEMEB2U5Pk0EKCQLZizMkuTTJCBmreVYvgPyMdy2MDbKcsiaDmzAgboIIRk0GkOX0NBmkkACxvHNfkoeM1TzfRweZfqwh+fSahOU+gezx7tnt5ck1Cf7rEUi+ky1HIZqkbzEHpBZTk8D8zYBGzCEJlS79IWV2SFnrxoREXgPwbqOfZNit0lIyQ2qt7jBm86DVAP3YV1+x4nWbdK1mhNT07liNfaHT7AMRCSKwNe5Q9VkmSFnLjnmKH95AroCQBBEQWuNqXixkvjUuC7nPjb6BoAQREFjbwsOma92y/8sUkFphKaqQFSwDYbkxoaH+6ZSQ3UeQum0JK4SAPFASlxwTGrNO8/65UCpIudlxxNV6QE4JZN4r4pJTYODV7hlaGkhNz46BuCah+ru/1OK6vBQhECm5bCFSm1o3OCV5B1KWJjlVYMmO4EIT8I8sx/QOL8WobydR13r2kFYUpCy7S4Edi4jiH2AO4q4/QqvyQDBbtsIpHkBqzaUDRGYGhHB6iLsKTwMKldmfFMZxF1KWbUdwuQc07J+27npl0RUywSzs4O4dSDnvOqKT1uDyx8XpD1Xw8yE2h+6NBYqElCXXM0WnlILq1+VhpV/xyZyIoXV1mQZSLrhbylryDALR4RJl/KOgd8QoL92Li6KhkMSkFusJZFsNOQo6WCfwHoid4rnjHgapVe1hEhVljfXgBjKhegQIzG1di4bU9M5coH9zEnxWp+DsrpZIz+ckEFle59BnryFlqTYW54lfvFY9u7p9BtlYJPCy4IXW2NXCILXqNFY1+TuvBOcZUC8ubv8klmFRzQV9VrPPILXCVk0qq3z0xW3uO2k0bwXLgiQfIG3NXzImV+ppf7QlFNIvupzUe4E567ROmmzWnOSyj8LZvSwu8XbWHwiGXra4gywKXTJey4XRCYHMLBIsv0gM7Sw4MaTOrCTTnxrXVRhuc0kmmsN2Z0uTrbdqPs4lORi+cD57X4zh49SnmXfRy650BZZpci5n3mLusPxTgSCk9ktYlYnV6xZ+CS/9Elr55WUrTgEQWnEztIZP33tNXUIQVmMisgxcgp5PggJnLGXgxMd80hCohBacii6yuXrB2fLG03kEmfl+uez95m0q+0eQGefFKmqgWWTt22jIQf2lPB/Ujq5jHA2ZeROxYZ+WYCusoNZjyMbidUwsVEOq2tBAvpLno9wtun0PMjPgv1bJI5A7xgzDPR0qyMx7nPtNrA0FnUmW75gGroTW1qSEzHymt+yCoKoVcnz5ASM8HUrIzCK1qtQEUtZ5ICGK8nRoITPJBZyv28oLeVsfhBkys06JkhcSXVci4IHsz7gpYVhYLvSz4B8XJKr0BUDy1PpFfvZTiJRy+yoBNsJqu3yWCDT4DFltCyA+yIh6vsyQHJ6PVyzOjPqyk83Wio55St5qTbs18pk9Vs5S3Xo2+aw7VTAH5H1PhwHS93wYKYuy5q1dPZ/Pa4Xq8phHcj5pyhoRqVU7nOjDVrcVfNbMWuyQEIbGdHggiefD+AcuatpfS5MndqegyQV7Nw3BsS7LeX3iFvKyVN3d2YRW1k/t7pLPNJcd0pjf8+bYIDPvjIvLoubvsDoGRmpHlvWtH2bAQ0mWq2MyBJVcU5ZbwfFe0JUkySaDVNn6B0UYIfHsvqfDBslqfAik3FJ9NGh2NM3POwhRVZYnThBVMeZVWasZ/lFU8sPyP//ZpldghaQyOgyQmRXTIUMCqXm7KBFUC0EvROu81BrvP8NbXcrXyWRiE+XuR+d/tsaqyUeeDitkhikhc1GTq4efja7m3+0wbU2uHa7644ora1vDzz6kHbhwhRHSvC66FB+y5DFQ+obn0L/xOO/nUDCrcqF4fAQmQzVr4nVVzh9CvBC0mAyPuaYxrGyQZNlF34Cilp8ecw47eTIWMdTl5vT4BKNYkFsm8lqydBrtNY0BElEaHTbIzBv9VjuBHB8hK3nZHRqqLrfGJ0hiTHUDTQty8/RUmwES3ovpxIDMrFggvXPI6tqwQiGJEeaEvC2KKgayMaKlvNCk42sSKQTysrs2TV+ThRNklxoSohGFN8cFmRl8U+72E8OzPTc82Qo0m7K+PBoeRAzPxETzc8MDJ7SQEIYUYxYFSV2Hgkwh2cPfw59CbMV3CuTOwQeG7Yms/RlwNpHzR/XuJ1QayCG90WGHpE2m5Xs8+1sBmAxGv+0GUWh1vlclnjalPPFeVeIMTPbfMad5ynmS2tPhhMysaBgDj6cT3AvAxJzIEz8ZhtKUpU47cPWQMyGeDlE1GpMlSC44OmS0qzItJIvR4YHMjGiuQPsOutStmKbZtv1O6OMaOU3WO0NkmtibFGQpWNkoXUlublXTNIZZjRLyvxFrm5khGzQnnAlkU5Pczl/HLciyvfN7VTsvF6rZoj1pSbK0DYKduE50qrvdYpassyZUY9JYsxhWPsjMgOKcD7Gu9jbIyC9r+e0hdqtuC0EdAr9u6HTv8JMF5e6zvLS28xRxVxxSAF48ZOb98W6XD0k6YKFQaNrlk+ZRe1kln+luzjp+CM35xP+9bhltJ7WHq3Oshh8LEA1JEVb3ISEyQbmMzPPfhYaptNuKeXFKkfxe20LkI8N8WJ0aKl+P2ycEsjR6tLj0IQF9SBKG/mKYKCPqpUdMSOL5PIhs7SFFCwRsnk4syIeeT1KQjJ5OPMjMx/2YTzKQl8WykofMfN0dRYlAQszq6cSFzGzunfOx8/mucEj6mI4wyMzwrrkXv6tJsXslHrJ0L+Yj/pQ5mnEZ1piQmV47xXM+h0utaUNmvtI753NVGjRFyMeejzDh83REQGYG02RveByFMaYjFDLTHyKYguxv0v8jyMzHTE1BZjGMji//AxiIoDFQMKh/AAAAAElFTkSuQmCC;" vertex="1" parent="1">
          <mxGeometry x="683.0999999999999" y="881.0699999999999" width="42.65" height="41.33" as="geometry" />
        </mxCell>
        <mxCell id="wC8_cDmadlpLExYwXLmD-62" value="" style="shape=image;verticalLabelPosition=bottom;labelBackgroundColor=#ffffff;verticalAlign=top;aspect=fixed;imageAspect=0;image=data:image/png,iVBORw0KGgoAAAANSUhEUgAAAOQAAADdCAMAAACc/C7aAAAAt1BMVEUybOX////u7u7x8O4vauXD0Ow3b+U9dunz8u4qaOXo6u4qaOSPqOn18+4mZuXs7e6ouuogY+T3+v5LfOZDd+ZVguba4e7AzutQf+b6+/7l6O7g5O1Lfea5yeu0xeuswOvZ5Prm7fzw9P1pkeuhufLQ3Pl9nuhdiufT2+3g6PvT4PnK1/jJ1eyIpelbh+nAz/d0l+yuw/SApO+dtOoQX+W7y/ZvleyLq/CivPObs/J8nO2ku+qVsOqC2cbPAAARyklEQVR4nNWdaXuqOhCAI0QgRFEU9wW3Cm3Var3aSv3/v+sG3BU0CYGjc7708VTI20kmk0kyAzIpy8d6+NZI+Z0g1bcNPocGxobzNUj1tWlC9r/mEAEiGA9X7ym+OD3I/mINEQSBQIyGi/Qw04IkiAjvEQMhmL+9lF6eDuT7xgEXiAEmmG3SwUwDsr+p3yIGnRbUf/opNCB5yMGPCmAIYoAJgeIlb2kThmz0f/4zwgEPgv77fk944kwUcvDxAx4g+mLA749E1Zkg5OBzqlAg+r3WAN+fCWImBjn4+lbpEHeYyvirn1RbEoIcrMYMiLtOq3irhLSZCGRpMbcwG6IvSF0vEsFMAnIxU8KmRQrBymxUEt8g8ZALK2pWpBEIrJHwJgmGHPwCMwZigGmi7UDsxCkSsvH+WzZiIgZiWKN3kb1WHGTjY9SOq8WDQNPavInDFAXZeNvUhWjxgGmUN5+iMMVANt5+6gbHpPEA8+dTzNgUAvn53caCEQNMXPa+RGAKgPxcW0BgR73AhOrw6wkgP2YwzrxIwVn//LeQpa+KmShiQGm2V/FMUBzI/tcQJUy4E2zMVv0Yg5Mf8n0xRAlYm3CBxmzBH/TihXxfOKLnjOQw+SB7Iwemihhg4tnmIzXI900lMv6WqGBY+eHRJjtk/9sKjaKmIaT7WB47Jitk/9tIdl58yAnxnHUXhQmy9PFtiPTCOTGRuWZbojBADt6+4b9HDAThOUsIkxqy//UNngQR+NoEc/oQJiXkYOXRxMJTFIjgfEWJSQXZX3hqOg4ci0CsrBdUmBSQg8VQQf+aKFyw4owoxuZDyMaoraTu3NALVtqbh5b2AWTplzdOnJb4s/bmgTbvQTb6I8X81xA0YoDN3S3OaMhSb2OJCjEmLoby8xHda6MgS2+b8ssg+mJauUj/IALyI/daiMAPSKtRS5QIyJ/nmxYfC0Q/LJCl4RPPGtGCh+HjMhyyV3lJSFgJ76/hkCvrX7eXT6wVA+TmX7eWVzb0kCXvSX3VR4K80EEZCtlzXnJIEsvjhEZGQiE/yy84gfgCy6H7JqGQi6R2qZKXBS1kKfdcQQAGMXJhgzIMsr9+0SFJBuW6Twn59qpDkgzK9hsl5NeLTiC+4LCN6RDI0uhlhyQZlGHH1kIg+97LDkmiSa9PBfneftkh6Q/KEHcgBPLthYck8exCLM8tZGPxEsGrKDEXtyGtW8jB92tr8vs20hMC+cpD0ndfaSDfX7q3kv56a3luIVevDnkbHbiFTHZIQkQk0fGAvikgE3RcoQHbXrE4rkAjuR0W2H4MOUiot0JsoNm0O6nKcsvtbB1oJqVQ88by3EB+JgKJTOQsJ9WmJMuSJMmSXnXtNTATGRnmTXTgBvJHuHcODROs7ZZeCAD3Qn7Wm52xYhpYdBjCuImj30CKnSX9C5KV3ETLa2eARyEfu9uZohBMkcfXbwblDaSw3gr941OV+dLN58MADxrV8tW/ccU/5CWKE5rXjt015Keg3oqRUl/n7KoWqsIrTq3V2c4riqhjl8b1oLyG3Ip4ETJUZ7qstcI7abg+m5PidKgKmUPxdRz9GjL2dhY0DGu+7E50WsATqO52ll7ZiM2Jh/chS/FcAZ9wTObCAivhgbNQnXSmdSOerwDLpbuQbyr/o8lsX8llD3Mhp5DvNquTmL6C+nEX8lfhezREpuEsq3pBigF4Ai0UqvYc+5w8zYHK711Ij+Oh/lxYH3dlajNDBUrm0Gyuoio8mNC7B1lyOB6pDrcTKa+JAzyC5mW3uOYYQNgp3YH8qHNAVopZtymLVOMBUm66k2KFvUWw/nEHcsFjd6ABZtNijWbeZwAkHkLWzjkK1xlbdXUHknMbHUIEyvOt7QrSJ3lMtbv1YvhAm2jIUozYOUTYmo2XE/mep0qpQ/dv7JQB4vdmr7bVLyD5ttFPl5kwVMqzaU3it7NaXiKTZFmFR28A86w5sdOLhPyyOP52ynh28lD8g5mKNbfp3dZzFeb1zthSThdrgmjCWGFvE7S+IiF/ORQJlUle73pl9bhYgr5nUMm5uk7vGchSQa8uHfLF418L+3+tv2Z+wuOf4N8oyNKUZ52lZGXSy/Razmkrp0u/0DDb047bKjz28QJPLrudmWf9AStlZ9r1+4Oc5dAkMH5KEZDvQx7vwocMRlMhu/Qcslg6/g8yLK9Yc++uR3yfPGuP28bJkJKlaMXbdvRdjyeQPK0avkdA8m2j7yF3DZ7Y27V1ugVEONVhrjtphs+hmtZ0u9u5dba6Cr5g+184PJRLk7D8FgG54jFk8AQZcErVWnFcPlv8EsXMvGWnemWKiJlp1ZbjC9UbiCxFO+7FQo1PkwCtwiFLG67QxwXkboi1XLIoNI8dMPAVnLF94vQJu9NhXTlNP8RaWWP7dinKp0lgnN8xOIPsz3lmSXgNGbRMarYm28qFKQFqe7h1yeLCj9H9zetnsSsyVRAzlW2FLUU5NYnn/VDIHteQDIXcKbRQ/XPAWd5Bn4mwZKdtcHbJlBDC2dYtRKy1OSFhuRcK+cYXqIuA3PdKvTu21DOdkV55WvMH+n3gOnB214s4+gmy8csVco3S5EGIo1bLkdF3kzcDEovkT4b6feeIU5PA/G2EQA44vfMHkNJuatnZ0VNzseHb3Jr+cLHNq0l0ltnwDJIvUPdIk0dO194e04OhYDLUaRYsvJo831Y/QfY4Y+dUkNJuCs1ug8PtVq7m0kYteTUJjF4IJOfJFjpN7hucn1Sgf+h/Qr/o5NUkMBe3kA3ebXQGSNLiPSTLVzg1ib4bt5A8a0nApskjJNNXeEPB5VvI/n9cj+LTJBskZ8P+699A8p5seVpNnp11OUJyn2x5Wk2ezrocITmH5BNrElrXkCXubfSn1SQwS1eQ3CdbnleTJx/9ALnhPlLzvJpEmytI7ttZT6xJ7FxClnjtDqMma/UUNQnVwQXkJ/+TOCDrtVQ0CZTPC8hRjCclDsnbMqiMLiB5ttEPT3peTR621XeQgxn/nt3zahLg2eAM8o3/2OBTa3IfR99Bcm2j7+WJNQnUxRnkD//BoGfWJMA/J8gBV+z8FSDngyPkRwy789TdFc8+jpCrGEOSSZNayprcp5AIIEdxzn8yQXb2kPTnt2JpEuDRATLWFTQ2Te4hO0yQMTRpBNfTfMherJO8yUPGaBwe9vaQn/xLkGfXJLQ+95Bc2+hHeWpNAmO1gxzEShDBqMl2upoEhp/TDsROEMEB2U5Pk0EKCQLZizMkuTTJCBmreVYvgPyMdy2MDbKcsiaDmzAgboIIRk0GkOX0NBmkkACxvHNfkoeM1TzfRweZfqwh+fSahOU+gezx7tnt5ck1Cf7rEUi+ky1HIZqkbzEHpBZTk8D8zYBGzCEJlS79IWV2SFnrxoREXgPwbqOfZNit0lIyQ2qt7jBm86DVAP3YV1+x4nWbdK1mhNT07liNfaHT7AMRCSKwNe5Q9VkmSFnLjnmKH95AroCQBBEQWuNqXixkvjUuC7nPjb6BoAQREFjbwsOma92y/8sUkFphKaqQFSwDYbkxoaH+6ZSQ3UeQum0JK4SAPFASlxwTGrNO8/65UCpIudlxxNV6QE4JZN4r4pJTYODV7hlaGkhNz46BuCah+ru/1OK6vBQhECm5bCFSm1o3OCV5B1KWJjlVYMmO4EIT8I8sx/QOL8WobydR13r2kFYUpCy7S4Edi4jiH2AO4q4/QqvyQDBbtsIpHkBqzaUDRGYGhHB6iLsKTwMKldmfFMZxF1KWbUdwuQc07J+27npl0RUywSzs4O4dSDnvOqKT1uDyx8XpD1Xw8yE2h+6NBYqElCXXM0WnlILq1+VhpV/xyZyIoXV1mQZSLrhbylryDALR4RJl/KOgd8QoL92Li6KhkMSkFusJZFsNOQo6WCfwHoid4rnjHgapVe1hEhVljfXgBjKhegQIzG1di4bU9M5coH9zEnxWp+DsrpZIz+ckEFle59BnryFlqTYW54lfvFY9u7p9BtlYJPCy4IXW2NXCILXqNFY1+TuvBOcZUC8ubv8klmFRzQV9VrPPILXCVk0qq3z0xW3uO2k0bwXLgiQfIG3NXzImV+ppf7QlFNIvupzUe4E567ROmmzWnOSyj8LZvSwu8XbWHwiGXra4gywKXTJey4XRCYHMLBIsv0gM7Sw4MaTOrCTTnxrXVRhuc0kmmsN2Z0uTrbdqPs4lORi+cD57X4zh49SnmXfRy650BZZpci5n3mLusPxTgSCk9ktYlYnV6xZ+CS/9Elr55WUrTgEQWnEztIZP33tNXUIQVmMisgxcgp5PggJnLGXgxMd80hCohBacii6yuXrB2fLG03kEmfl+uez95m0q+0eQGefFKmqgWWTt22jIQf2lPB/Ujq5jHA2ZeROxYZ+WYCusoNZjyMbidUwsVEOq2tBAvpLno9wtun0PMjPgv1bJI5A7xgzDPR0qyMx7nPtNrA0FnUmW75gGroTW1qSEzHymt+yCoKoVcnz5ASM8HUrIzCK1qtQEUtZ5ICGK8nRoITPJBZyv28oLeVsfhBkys06JkhcSXVci4IHsz7gpYVhYLvSz4B8XJKr0BUDy1PpFfvZTiJRy+yoBNsJqu3yWCDT4DFltCyA+yIh6vsyQHJ6PVyzOjPqyk83Wio55St5qTbs18pk9Vs5S3Xo2+aw7VTAH5H1PhwHS93wYKYuy5q1dPZ/Pa4Xq8phHcj5pyhoRqVU7nOjDVrcVfNbMWuyQEIbGdHggiefD+AcuatpfS5MndqegyQV7Nw3BsS7LeX3iFvKyVN3d2YRW1k/t7pLPNJcd0pjf8+bYIDPvjIvLoubvsDoGRmpHlvWtH2bAQ0mWq2MyBJVcU5ZbwfFe0JUkySaDVNn6B0UYIfHsvqfDBslqfAik3FJ9NGh2NM3POwhRVZYnThBVMeZVWasZ/lFU8sPyP//ZpldghaQyOgyQmRXTIUMCqXm7KBFUC0EvROu81BrvP8NbXcrXyWRiE+XuR+d/tsaqyUeeDitkhikhc1GTq4efja7m3+0wbU2uHa7644ora1vDzz6kHbhwhRHSvC66FB+y5DFQ+obn0L/xOO/nUDCrcqF4fAQmQzVr4nVVzh9CvBC0mAyPuaYxrGyQZNlF34Cilp8ecw47eTIWMdTl5vT4BKNYkFsm8lqydBrtNY0BElEaHTbIzBv9VjuBHB8hK3nZHRqqLrfGJ0hiTHUDTQty8/RUmwES3ovpxIDMrFggvXPI6tqwQiGJEeaEvC2KKgayMaKlvNCk42sSKQTysrs2TV+ThRNklxoSohGFN8cFmRl8U+72E8OzPTc82Qo0m7K+PBoeRAzPxETzc8MDJ7SQEIYUYxYFSV2Hgkwh2cPfw59CbMV3CuTOwQeG7Yms/RlwNpHzR/XuJ1QayCG90WGHpE2m5Xs8+1sBmAxGv+0GUWh1vlclnjalPPFeVeIMTPbfMad5ynmS2tPhhMysaBgDj6cT3AvAxJzIEz8ZhtKUpU47cPWQMyGeDlE1GpMlSC44OmS0qzItJIvR4YHMjGiuQPsOutStmKbZtv1O6OMaOU3WO0NkmtibFGQpWNkoXUlublXTNIZZjRLyvxFrm5khGzQnnAlkU5Pczl/HLciyvfN7VTsvF6rZoj1pSbK0DYKduE50qrvdYpassyZUY9JYsxhWPsjMgOKcD7Gu9jbIyC9r+e0hdqtuC0EdAr9u6HTv8JMF5e6zvLS28xRxVxxSAF48ZOb98W6XD0k6YKFQaNrlk+ZRe1kln+luzjp+CM35xP+9bhltJ7WHq3Oshh8LEA1JEVb3ISEyQbmMzPPfhYaptNuKeXFKkfxe20LkI8N8WJ0aKl+P2ycEsjR6tLj0IQF9SBKG/mKYKCPqpUdMSOL5PIhs7SFFCwRsnk4syIeeT1KQjJ5OPMjMx/2YTzKQl8WykofMfN0dRYlAQszq6cSFzGzunfOx8/mucEj6mI4wyMzwrrkXv6tJsXslHrJ0L+Yj/pQ5mnEZ1piQmV47xXM+h0utaUNmvtI753NVGjRFyMeejzDh83REQGYG02RveByFMaYjFDLTHyKYguxv0v8jyMzHTE1BZjGMji//AxiIoDFQMKh/AAAAAElFTkSuQmCC;" vertex="1" parent="1">
          <mxGeometry x="626.4" y="881.07" width="42.65" height="41.33" as="geometry" />
        </mxCell>
        <mxCell id="wC8_cDmadlpLExYwXLmD-63" value="" style="endArrow=classic;html=1;fontSize=4;entryX=0.5;entryY=0;entryDx=0;entryDy=0;exitX=0.5;exitY=1;exitDx=0;exitDy=0;" edge="1" parent="1" source="wC8_cDmadlpLExYwXLmD-58" target="wC8_cDmadlpLExYwXLmD-60">
          <mxGeometry width="50" height="50" relative="1" as="geometry">
            <mxPoint x="799.05" y="960" as="sourcePoint" />
            <mxPoint x="849.05" y="910" as="targetPoint" />
            <Array as="points">
              <mxPoint x="590.05" y="810" />
            </Array>
          </mxGeometry>
        </mxCell>
        <mxCell id="wC8_cDmadlpLExYwXLmD-64" value="" style="endArrow=classic;html=1;fontSize=4;exitX=0.5;exitY=1;exitDx=0;exitDy=0;" edge="1" parent="1" source="wC8_cDmadlpLExYwXLmD-58">
          <mxGeometry width="50" height="50" relative="1" as="geometry">
            <mxPoint x="649.05" y="790" as="sourcePoint" />
            <mxPoint x="648.05" y="880" as="targetPoint" />
            <Array as="points" />
          </mxGeometry>
        </mxCell>
        <mxCell id="wC8_cDmadlpLExYwXLmD-65" value="" style="endArrow=classic;html=1;fontSize=4;exitX=0.5;exitY=1;exitDx=0;exitDy=0;entryX=0.5;entryY=0;entryDx=0;entryDy=0;" edge="1" parent="1" source="wC8_cDmadlpLExYwXLmD-58" target="wC8_cDmadlpLExYwXLmD-61">
          <mxGeometry width="50" height="50" relative="1" as="geometry">
            <mxPoint x="799.05" y="960" as="sourcePoint" />
            <mxPoint x="849.05" y="910" as="targetPoint" />
            <Array as="points">
              <mxPoint x="704.05" y="810" />
            </Array>
          </mxGeometry>
        </mxCell>
        <mxCell id="wC8_cDmadlpLExYwXLmD-66" style="edgeStyle=orthogonalEdgeStyle;rounded=0;orthogonalLoop=1;jettySize=auto;html=1;exitX=0.5;exitY=1;exitDx=0;exitDy=0;fontSize=4;" edge="1" parent="1" source="wC8_cDmadlpLExYwXLmD-44" target="wC8_cDmadlpLExYwXLmD-44">
          <mxGeometry relative="1" as="geometry" />
        </mxCell>
        <mxCell id="wC8_cDmadlpLExYwXLmD-67" value="" style="shape=image;verticalLabelPosition=bottom;labelBackgroundColor=#ffffff;verticalAlign=top;aspect=fixed;imageAspect=0;image=data:image/png,iVBORw0KGgoAAAANSUhEUgAABLAAAASwBAMAAAAZD678AAAABGdBTUEAALGPC/xhBQAAAAFzUkdCAK7OHOkAAAAYUExURUdwTHLfzwNATABASwJATXLf0ANBTS6AgTW2NsAAAAAFdFJOUwCAxT+FfVq5sgAADXxJREFUeNrs3d1O4lAUBlBCG5+jUdPrBkmviRKeY4Kk7/8Ig86o0B9o7dmOY9a6JNSL45e9N4dDu1gAAAAAAAAAAAAAAAAAAAAAAAAAAAAAAAAAAAAAAAAAAAAAAAAAAAAAAAAAAAAAAAAAAAAAAAAAAAAAAAAAAAAAAAAAAAAAAAAAAAAAAAAAAAAAAAAAAAAAAAAAAAAAAAAAAAAAAAAAAAAAAAAAAAAAAAAAAAAAAAAAAAAAAAAAAAAAAAAAAAAAAAAAAAAAAAAAAAAAAAAAAAAAAAAAAAAAAAAAAAAAAAAAAAAAAAAAAAAAAAAAAAAAAAAAAAAAAAAAAAAAAAAAAAAAAAAAAAAAAAAAAAAAAAAAAAAAAAAAAAAAAAAA/O8euiwK85VN296iIFgIFoIFgoVgIVggWAgWP8iDYBGhKQSL9JZNUwkWye2a5iBYpJa9xOVOsEjfCY82gkXyTjicF8FiTic8ehYsUrp5S0whWCT0EZ1KsEgm/4jMQbBIpj7JzJ1gkb4T9u45CBZzO2FvaASL2Z2wb89BsPiUdmwKwSKBZSc3lWAx366Tm4NgMVvWdN0JFuk7YXvPQbBI0gnbyREs0nTC1p6DYDHdjWARoewP1kawmCPvz5UZi3nq/mD9EiwiOmElWAR0wsNCsAjohMXZm9w1mamaEZ0QQjohTLYb0Qlhsqz3U6F1IaIZPlsWIj4XbqwK85U2qfiSZqgTksRKJ+QL9hx0QlLtOQwfbIAZlr7OIboZ+jqHkGZYWA0imqFOSEQz1AlJ2wxLnZAIuYMNjDH5oHrt6xwigvV6xcbCkTpYua9ziAjWYqUTEhGsxU4nJCJYmWUjIlggWAgWggWChWAhWCBYCBaC9ebOOhIQrFqRIyBYuZPKRASr9NsKAoJV+zUYAcHK3cmBiGCV9igICFbtblkEBCt3fz8iglW6NzcBwardfoaAYOWef0JEsEq3+CMgWLWbkhIQrNxxGyKCVbrxOwHBWnlUBQHByj1wlYhglR6MSUCwVh7lS0Cwcg8fJyJYvY/yNb7zbr1texpx1bL/sfa2spgn6w+W8Z2Zdv3BMr4zz0AvNL4zk15IiNr4ToR8oGRtLA2z9O9kNb+sDLPcqFhE6N/KckMjhjrafmA7oV2LdmZ3Jgfr5nqwlhohKSpW0b5UIySiYnW3sjRCEsxY3a0sjZAUFat9rdNYJJmxWunTCElUsTKNkIAZ63wrSyMkVcU6jZ9GSLIZ63QrSyMkXcX62MrSCEk4Y71vZe0rK0nCivV2uUZI0hnrbwA1QhJXrEwjJGDG+rOVVVhGEleslwT6lSrJZ6yXrSyNkPQVa1FrhATMWIvMGjKrYqlMfGXFgpAZC0I+FYKKhRkLFQvMWKhYmLFAxcKMhYoFZixULMxY8GbgsXJ55+VtZbEAAAAAgJ/loevl5az7cnXh7dAy8Uvo7svuNcOEYN0IFioW/3PFKgQLFQszFiqWYGHGQsXCjCVYqFiYsVCxBAszFioWZizBQsXCjIWKJViYsVCxMGMJFioWZixULMHCjIWKhRkLVCzMWKhYYMZCxcKMBSoWKhYqFrybfdfkyhoCAAAAAAAAAAAAAAAAAAAAAAAAAAAAAAAAAAAAAAAAAAAAAAAAAAAAAAAAAD9G1rwrrAaChWAhWCBY/KvQbG/LY2D2t9sHwSKVdfmRmWa/rQSLBPLTWL1G60mwmO2x6TpUgsW84WrX9NlXgsWcXJVNv/1GsEifq75kCRbz+uBANxQsRrqUq+MEL1h8yqq57E6w+EwjbK6pBIvUjbDbDAWLMZbNdYVgMVU5Ilh7wSKgYJ0nSLBIVLDOS5ZgkapgNc1GsEhfsFQspslHFiwzFpPUnQjdPz0cs7N+9KmQz8uGT/Zlj/0TlmAxfXQ/+1ZwbeedT2p9m/M0MIBtJgcrW7/82md/O/SDjJN3bh9vj3/p9v76W08ver1myiV8pYunGN4L2vNiYrBO2+j9xX/+2e+CDtW1QbBo//l70fr+nwmfu29Y9RxuuB6sdXmpDg6/8ZiTMcFaXzuUz7f6TNj7Lyp7AnctWKsr57l6Px5cKlrnwVpdPNPDd1AOnmA4qWlTjyavrp4U/PtnyrE/CzoL1mrMFXyfzYb9UFErFpOCtRxxBvU1suXvdu5mt20jCsCoYQvapyiyTptCawMBtC7SQG9AaevYpfQEJF+/SRrEssz5UyiHpM9ZupTkgh8uh9Q4eRuhT8JaZL2C8SyxQuvw+6uisBbJrxpj86o/wuOwVqndYvx6y/TAurq6LQor1Mt9dlc9i6ajsNY5b86InmI9nHUFfRe9HYjccsa2Qz+E3/R9/yvunMvRrt1vBwnrJncOFfztRqRWI2v0a/f7q0HC2uT+QUb0DzgeSsOyyhrt2v1ukLAW2XNoGe2kOCw3hmNyHbtrOyusdfYcWpQMoHRYnpKO9abwdoiwbgpOfskAygjLtXBE1meufoNhrQtO/qbgWpgR1oPTOcqnDQ+DhLUqWAgtc/90Iy8s94XjfNpwN0RYT9dNf324vfrwMXgtjC+y7krDssgakTPX7sGw1j0z58kT9ne9n/7np08fPn2MLbJywvrb+RzjY6zbIcJa9Z3nm9BC6PuF+J/vH/303367j4Z1/+VFNyd7ue6c0LmGddP/RfIisCZfnm6/2gSvbOv+cbaxeh+lRfiJ5FlhXQcGzia8yHp/lZx4z8P6cZl8cpn1iHSMYd0PEdY6vaY/WWS9D5ceXrwd1XnttnDkYf07RFir0EneBBZZD7m3qevQdq3VuUOXC7oeNqyb4Hrnuv9zFs/eeBl4i3Vo9bX0vGH+YS2Ct/43uWNlkRHWQ+j+w/OGCYW17L009Yd1Hc5nlTtWAr/ROtjPSlizD2sdfrd17tlfpcMKLd+ENdewNuFnlde5mxA2/ev/dfA3XdrfMJA3w/nt6F49cMjbH0d8Pvrp748v/OPxp6veY08+6XP8V3rb/xsdzaXPoRcc/yoDeHVhVcPZPZ6UQ+CQ7Y8j6uMfP76wSfzw9JPq+K/0+Hn7wI/r4P9DXQ1JWL8grP6zGQmrSn5QPKw2+N7CGndY+0EnVsTzsHZd23tkoLcmlKywph9W75jYnRPWrgseGZhYlbBGH1Y16MQ6J6wucmTGFVJY4w+r+RUTq91nhmVivY6wfmJi7XO7MrHmEVb9QhNrX+W+oH9iHYQ1gbDa5POGS06s/NFmYr2SsAZZY7V7E2uuYW2Tt4UXvCvcm1ivIqzmhSfWdm9izTasXXL1frmJtTex5htWtU9dCy82sXZ7E+uVhNVccHdD/Cq875r83Q3CmkJYbepaeN7uhrrsk0t2N5hYkwhrm7oWnjexDkVhNUX7sYQ1hbCerHTqn5xYbUlYgQpNrHmEVcW3SpVNrDa5V6I3zaYyseYXVpsYWSUTa1uwet8FSjGxZhLWdh9fZZVMrG3BIqswLBNramHtEvuGSyZWxobUnvc9mFhzDOvkAXj9MxMrugunbbLCak2smYR1ssegCf7n9MSKPcffnZz2wrBMrMmFdfrVSpP1XWL/8W34qhpeSx1CH2hiTTqsKrIpvQtdJQMTaxsstD097+lFuok18bCe77frum/xdJHlV6Cf0Oxrc0dQa2LNJqzMHcU5E6sKbGRoz7mvNLEmHlZyi3DBxNo+m31ftH1N9P91f2s/1ozC2g43sRLTL/BooulP3MSaeFjVcBMrMf0O8Z1grR2k8wprO9jESr1VE0jw693Cs38axMSaeljVcBOryv77+nTNJtbkw9oNNrFSdwIln2liTT6srBvDKmti5S/fTaxXEFbGyAp91VOXLNjqkphNrOmHlV7x1FXexIpPoqbkI02sGYSVmh+H4ISrCxqt0wXWrYk1q7DiZUXOZlPwThkFNq2JNa+wdm1BV/F/qjhrmdZ/3KEysWYWVmQBf4i102S/U51xXFOZWHMLK3gN66Lp1LmNHjI+sK5MrBmG1VvWoYk/q28yr6tdxgceqsrEmmNYPaOmSx1X5zXaZBx2qCoTa55hnXwVfOjS3y42OTcDXU7KXVWZWLMN6+uW5G97kg/hqrIj/f+Nui7jqK6rRkZYCEtYwhKWsISFsIQlLGEJS1gIS1jCEpawhIWwhCUsYQlLWAhLWMISlrCEhbCEJSxhCUtYCEtYwhKWsISFsIQlLGEJS1gIS1jCEpawhIWwhCUsYQlLWAhLWMISlrCEhbCEJSxhCUtYCEtYwhKWsISFsIQlLGEJS1gIK+wNL+IKAAAAAAAAAIAxsaHFtpmLsAXPRj9hCUtYCAthCUtYwkJYCEtYwhIWwkJYwhKWsBAWwhKWsGybwb82AwAAAAAAAAAAAAAAAAAAAAAAAAAAAAAAAAAAAAAAAAAAAAAAAAAAAAAAAAAAAAAAAAAAAAAAAAAAAAAAAAAAAAAAAAAAAAAAAAAAAAAAAAAAAAAAAAAAAAAAAAAAAAAAAAAAAAAAAAAAAAAAAAAAAAAAAAAAAAAAAAAAAAAAAAAAAAAAAAAAAAAAAAAAAAAAAAAAAAAAAAAAAAAAAAAAAAAAAAAAAAAAAAAAAAAAAAAAAAAAAAAAAAAAAAAAAAAAAAAAAAAAAAAAAAAAAAAAAAAAAAAAAC/gP+IFZBeuVRtBAAAAAElFTkSuQmCC;" vertex="1" parent="1">
          <mxGeometry x="195" y="940" width="70" height="70" as="geometry" />
        </mxCell>
        <mxCell id="wC8_cDmadlpLExYwXLmD-69" value="" style="shape=image;verticalLabelPosition=bottom;labelBackgroundColor=#ffffff;verticalAlign=top;aspect=fixed;imageAspect=0;image=data:image/png,iVBORw0KGgoAAAANSUhEUgAAAOEAAADhCAMAAAAJbSJIAAAA7VBMVEX///+kHhHYLCCtIRV6DAChHRCiEgC8Z2HXLCCgAADYKRyyIhWoHxLNKR3TKx/CJhrWFwCBDwOjGAbXJRevRT7Pk4++JRm4IxfVAADXHw7HKBvWGwZ1CQCjGwz32df65eT87u3yw8H+9/boj4rbPzXcSkH20tDqmZXurarjcGrsp6PwubbniYTdUUnlfXj21dPgX1jmyMbxv7zaNyzmg36MEwnhaGL76ejUoZ7EenXhvbvarqvLjIeqMCa2V1DidG7ZlI+3EgDFSULcRz7bPDLAcWvRe3XUZF6sNy3HaGLXp6OsNCnGgHu0T0e4Xlfw73jRAAAQD0lEQVR4nO1da1vayhY2UCIJCKOpkEC5hbuI4mV7rfV0q+d0d7v7/3/OmSQoBGZmrTWg1P3k/dDnaQuTebPua03C1laCBAkSJEiQIEGCBAkSJEiQIAEZjVF/2D1LZR8m7VF905tZOy5HR2cuqzp2AMdjrn0/uNz0ptaHxsHEY56dmoftsOrk30GyORh7VSclgsO8yemm97ci/NHEZWJ6LyTZ+ce1Sb91ZCvpRfDc8cGH1NZ6u7Noe3JBOsPWpvdLhD94wNILwf2O3f44gvRb94wR6E1Jeu5k5G967xjU2w8ubHxCOCx7eLzp/QPwR2NvUTsp0rQ91h38xoI8vheEhs4Zwp/Ok2TufW/TTIS4PBBqp93hIV/idbjEzkT/7rjd3y9+tIaexLmwA26bh86SILlneWw3xuIv2cz7reJHo52Va6LthXZ1OmFVe+4fWbbNc5lGVfY17nbO+s0NE4vAnYurDH3Vw+iDjf4Dc4IP2lXW7Uc+89BTfNGuupPTjbud3nkKciS203j99L3Hqmzcf8lE/TPA0XJBtjeZtjYPupjMxTua/0q/MfvbiIFftr3qeFOJQOti3rJUYDIxjFFxhFeSG6g/Gn1CmHMuxIvUXewKvP4YNN+RHq/6sOILwOOCWARHKj+zeJeYffReiUD9CHQu8/R4JGw3hAv5Lik95xHm4eDtLdIfdNSxYfHOZ+UpWGPsSNobUpJV9+JtE4HekSxzEe6HVS9GTdV6jQMglgrumdvpi1VidVziYsMLPc99wCSX9fZyQgesXPXeRJCtiyrFuVSz+EjNlyaSdFhKYtu6aPQViaeIIDFIBx1HoiDX2RHwT9GhfYbs43hyf94ftOqNS9RGuIcmIugIrCMRaBwSK9gpbNtxPI8xbrpnD+PJUXvQEjvVxnFr0B6Ouw9Z+jU8Nl6xI+APHqi+TsSVk3U4Wbc/t3Szfjro349tFsBzHFvvMg5jR/qtnd4hJTYgwGa+9cENicG8CjvQJzy3o9URkPce9DHLT3twURFip5ze/aMEfcpm9PjRG4JRKlK+CDZSx9jLPoYY084W0xy7X77s5kFBBoUkPn40D85cR7HlYP7HnEKnO55cDO+HF5Nxt3PmhEoH7MPuRH6hgRAhF1+I3U+fPn358kcJckQ8fiBjFNCwdpjbuWiPjhvN+F1pHI/aF48M0GwWORtl8yJAoZjLp2cMA5K7BkKQzjnkdppBL0W6Aq8T2P2gIb9RfmPAM1eVBlYDn+ADInwR3zxDzvHTH2WIY9BRPmhK97fVUpZ9PB+8x9hz696Tr+JM+CcGKoaR9QkYhiRhQdpVJnE7jb667Kvim3vN/pm0S+jyq3fktzEmviWGoUWWCxBJXn+MFvcEZmY2a2P5heu1ZbZsd7ZaMhFy61vkt8gwtMhMBeJos3Esg/L7j0BscDxq4tCzJStWD+7F/7MsPjHDUJA5iKPDBjOdOgQzM+eRIsDpso+SRYVVBLe+vJCgiGFIEhKk7b5IcWTLO+uvm9LJ4evIvCUlFZ+CYSRIpUU6w2gfbUQ7aL6lSwCylZYVWR/MMBKkIg+YMhxhWpZMr2kg9SjzUIlPzRBKdLz/hLtAdZ2ZXqMSk15nK0oBKuyQJ6tq7fu+H2zC72JS5uoAIiPEADbwAIUSmSFPb8CCo2yFDLf+xMjQftBiqAjscXBBShypiCEXXxoM+oV0ZsrwM5gFBXgZAZJwiBPhdEdSQe4uia8IrpYtZQzjheEemB8EYG0ywTY+WERARHzuXNIFWDOKeU5wxjBTxrSA2ITWn7ycUAmmQkEua+vunPgysPhSqUo64DfH0MjkMWJ0vDa+q+X3Hb1DQwKL3H21PnWAj2BX8hG/eYYGjiOvoZFzyvo5vb86w6JF7k7FV0EsmS2+8osz5BzTGDl6brdfV0vSr/fHLmEsKMRCBRzmZwh+hZIx47fIMJAjRsd5edm5OOiJbbLRO7joMOLATLLZWSL+6RNcLIVfKcf4LTPkHI0SQtFTtlNlXqo7bA9GrV7vuH7c67VGg/bwIeUFJ9UpPIIz7VJ9ngoyh3KEqZ1cJs5PxJBzzORQ4THaW9itZi6bdq1JTeuAGmPZ7sXhSJ5VcUGWUPuJmZ+SYcAxXaHPDygIVICxx8l5vxW265Q9GxQKJRE/GcPQIFHKSkUkddd9HPZHx/6ru7pcleBOzhDyUzCkKCsKtsPFVrW52AatpfkC7kSNFDy6S/gpGQYk08U1KGsoturj5L7fqjeF7re/iggLQvNDMgyUFe7ayanZ3JG4LHC4x6oBaX2F2c/OYnSgMgyVFRWI4tRCH+uNzw9aiES2q62jleXoQGdooEPkjODjZNg/7Yk1chmHmjqaLQLiwzMMOFK8Du2EQg99rC0GUD1pDA2a17HZGfr0gI/uAcwDoZ4vDK+wDANB4r1OcHoA15o7p/QAIoiTFxnDBp5h5HXQgnRYqg8P1lG9xhiWcms1wUiEWIYGLdfhJQj0zISfJeooXj0D1KZWuLV1beG/RfI6DnBUckgrIinqyWFaN6+30jAp3+RVJMHrsCOp10Gc8J6Bpp4Bv+25m3t5R5CiEXodvCClh88uCU9DCUo/JWrW55O4QTxZNRpHXMsjgsMeRadALrA6mi2mSfS4AI3bpcud1IgcSbkOT1Eni+EDWxRS1ZPvzPyv0CquMmSOlKSVh4/YAYlLXDJDVc+oaeiJz4D5V3ckjxMtRxAkq86dtMcUhXT1NKY3nV9LGKrqf+5RV6SFj9lJSURRKOtMKPYyX7Z7bLJ47qA1YbayYJYujGpCRnCYFySt8PRbQz0X80rHPZ9X0eAc23RpqmVTk1Z30gJ0NFuhq6coSrPJzLE9zp19oasH2esoI6HG9WXBK3i0MxTgZPGS9HsYep11NCELZB1SdM2cSIj+mSD2ainr6g06neiguLHO/0KGkiJNR1lJSesyNMxPXZo72+rQlKVVK9NrErxO/GqrRQchzIjhROHY6DkTMWnVvxCcNhbyU4Z/KV13kFhoCJLWoNMwvzQYhIs8BY8Ybn8Hr68VItFeh/MjLo5waTuBTb8wNHOQd9ALkThl3aG6F4ylZ6Ob9sowY8B70fM6oGel80PkiIXydK+vDIOcHNapQllDkOr7TQ0PPM+HZTHntOYYciA4apQziuKDvBoqEMXa4XGGuIyE7vUkBoltzM+WwSQTO3HHH2doIA+c0CNzlJgXZvsrVDg90iKoMjRbWdzZEkNs+qzldTL5XLlULJbKuXyG+HWUeor8vYAhNuvSyXUClhkqOQOpnuINCRmiA5lOrkMHrvCUeQcJQwPbYdLJdYj8MHN2xTRKzhCbdQEHBVbmh1HPkuI2qxiiGxMa4QNHD2UrgBqpGRrYEkGrVIb4YfwdPCwFGaIbEzpNSBU/jBtQqieeoYGqxFIaKYrqgohZM87L4RhiQyRpwC6/FkppsDqDZYie4a8cPlDRAaOeU0zn3AiGBjZEruR1cLk1wRxqZpPAEDuE0WrQhctjzI/k0mrWdBD8hB+q4dqhGkkryvyIVY1pvky6TyhTfFyuQ/Q6yNKWpBs169tsSrpPOqiw9lwHxY+q+6b5c350eGWhDw1Fe0JVkQXUTc9k4LXIRXfNempuxVD/QT6Mgcp1QGXleSHID3enYsjFz5pEmmrSztRgzysqtQujC2TXHNx8W/Ry18tn+jkFZDtAskWEY6ZXZy/K5bDu0jsVtg6+r6mNtrTP0nLfCRNcdaY1s3vOOcYOnDX72apeGw1VYe2UZ+2nTNCUgrN5euawqPSOO/dOhfb04aP19nzjJIvlXPQUU3EH9p70NF6UE83eqZCde7hKp2jHVVho0OcHEt/uSd6pQEje5y6xwrMZcazhKM0Lpu/dOl0+YqalrGt5ImxdR2mmDP8KGYqn3FrKuuoTYVqzfIU3/66e42vN8EnPZqx8QcA2SvAcX2uGr3ngZM1HaYKzRxnMHF+nw6TzRBjZ/MASJ3hs6LVPo3T1WjN8orJqJGdAmRpNz2dzfOCogp7XwSqrhnuBMvZCbnGODx5V0BMkqglJDb5wLjw7vTLfTQS/ltXoa8PKSpYfvOT86ZyFOX4aMh1ipyRcVHnn6PID0/y4x1rsCMOmo9PXlq5KtW5YPZe2t9zzRpRCFXpfW9SfK5SISg+rpyCdFnX1Ed1CjcScV4Tlyuu9K1RK6bWrp3CiIJ5bIOp2La+TMfLpXI7XiAbxpAmmOJNsSDqZQSjrGqdpABAOWeodFLMnhLLqtDzogMsV1b1WTtcwTaa3muHPNgF2LNWOD5ofIpRVpx2ABdx1BoMXPCHFtLbXPMN/vTRYoCDKSdQMmCvKBrwOnHyg5s3IKTcig17PDP/1grDmIK+HnuPjvM6aBAnfUPyoxrxGMjRQTaa1nByChzUUBz4dcyPn+Ii6XSfXiV8DbEiS2pzW8xaFoYGahmkM+15XB82PFptq1vW0p/+T8k4FqD+i7XVg8yPmF6Y5e2T9M2VyiGlta42N1PyoXfg969vcOwD8H8R3KiC8DilEgtGP6sRq1t3NVgzX1KMKcMTCKyums0SUn+idCtSjCsF9B3MdTIiE+JFHNXvWj59L/AJN/VkjH1WAKywwn4P4kWOsaX2+lb0xxr+yiLqKyXWUDh5q71HzpJq5+E6TRdz+sKgHMhAVlsQgoQyCrJ41y9yGX8F18ovOEfY6y2VqBipZyOq5Z+W/4n7yqX5tUZ0OohQvFHNG9LxM+GcOEDy5Htuz/v6Jf01cc9/QUFb4yGKhUipzlCqgyInZbWB+NzCvGG6+WSb5bTXrebErOenj5vek9dsbzyZdWVd/sauG+d3t6/4Gu391p6GsK703gjzIN60fNyv9NODJNx1B6r43gvrQMy46QGh81REk4WVnLyCf4FlFPePwb//R4Eh8bwS5f65KzjQQhEhiPhd4HTw/ovnVLOuXOjmjw//5WSPXwZ05ofY99qwMMnkh4mSbnOtgOub09yGuVT3jaO6bdEGqJ39Efjx52V63ei7g5h96rmNIORZotfueZT6/iXrGUX82yFWkMHpQiyOunoTceiX4t2Svw3PW+C8cFCo56utW31o946hreB0jn+NVBUelWM7TvMueZT2/1a/FS9Hcp+c601cqUN+qYEo6S2+Pm1/0UpkMHtzfVz3jaHw1ybkOld/7q2ccodd5K0Ga1t17eU8l6k97byFIHty/UTsTb4amRtIK8bPM69VLv3XiZK1eZ8+qXTU3TWkJzf38mgSp0Th7L2g06JbAvadW4+y9oNOgi/Mzv244OoDwbw1tQfLa4ep3iA4gTra1BPkbm98yLnnSSgyR7107rAxahfUbJGc6qD8hG3SBe2luerd6aO7/DQuyZhn7H8K9iAF2k7n89pub3uWKCIbKMs/K7e8jy+8VjSdxFcmLo48R/hBo7v9YFKRpmb8+TvhDwD+5NizLNGsce6ZlWb+u3qHz+d6o3z7/c2ea+c9PVyf/Fu1MkCBBggQJEiRIkCBBggQJErwf/g9lht1GAaB+RQAAAABJRU5ErkJggg==;" vertex="1" parent="1">
          <mxGeometry x="569.8199999999999" y="935.75" width="37.5" height="37.5" as="geometry" />
        </mxCell>
        <mxCell id="wC8_cDmadlpLExYwXLmD-70" value="" style="shape=image;verticalLabelPosition=bottom;labelBackgroundColor=#ffffff;verticalAlign=top;aspect=fixed;imageAspect=0;image=data:image/png,iVBORw0KGgoAAAANSUhEUgAAAOEAAADhCAMAAAAJbSJIAAAA21BMVEX///8tcrgaR28gW5hSlM8bS3cZRGpTltArcLcAN2b19/kjbbYudLtBgsIjXJPh6vQOaLUfU4NZi8MpaKh9os8VQWgfWphDjcwAUJMIQGrI2+2MpMMcTn4fV5BhnNIATZFNjcYdU4h1iaAAMGIdS3QpW4cAOWc8dKdGg7kzZ5eRobOhtc9upNfT4vIkU35nlclObIrj5ulBfLA3bp+8zuXAytQxV3yjvdzd5/OiscCGqdJeeZSEl6uattksa6tCYYDT2uEAJV0LXqEAKl85dbBsjbK5w84ANm60yePqAfrpAAAHeUlEQVR4nO3da3uiRhgGYEFFRLS4Lm7smlY3eG7NwSZtmjYx2zbb//+LOsNBDoIwMCfT97l2v+yHLHdmYAaYd6jVIBAIBAKBQCAQCAQCgUAgEAgEAoFAIBDZ8x1RRB8teTZDiyTmT7+JPmKybIYXdYUk3canczJuLi7qdUJhq4GMP4s+8mLB7VcvIzwTY+ArJTwDo9c/KwglN4btV0EosTHuqyCU1Bjtn5WFEhqT7VdZKJnxuP0oCOUxGuk+CkI5jJk+KkLxRuNzpo+SUKzxpI+aUKDxtI+iUJTx5rSPqhAZf+EO/DLPAdIVNized4+P7Wae0KQq7HQMrsD7K5WzUNe7PIH7tspdqHQ+8AMaI1WAULE+chM+iBEq1q+cgE8YKEKoWHzGjD/mqiihzmXMeGyrwoSKrrMfM9A4IVCosB8zbv0WFCVUOtdsgYaqChYq1u9Mhe44UVRIEL24kO2Y8TQq3oaXPZKsJq3TxlCoWN8zA/rjRI5wiP5Om6pGFttZLVsnlBGhbrF62/h4peYKEe9y2tTUEtFsdXXXyDJGhIqusBkz7mPANCHmjZ1SPD+2NltMUpFRodJhMmbczuMHkyK8HKtVeG40294uJsdNGROyGTOSh5IU4lOvKu+gdHbLRvykjAsV60/qQKOdOIyD0D/1aPECpLqKIRPCDv07qQwh5vXLXVnykdosvPKIEQ7rQxqn3ikkPindlhQhHNanTHl+EHKHRkoBQofelSUveDqgmNyFfKOpA1M6IdmsLf/H9UyphFpzTDbznqH5TN6PjPRUoUJNbY4vye+eWpPFyrFPMiPNKEyIdNNL//5CIUkXj3lIebfaoiEi88f3g2YUItTU8UFXLyV0ka3Gcoe7bGpjas6zKUQYdMyDrrQwcGZ2Wb+n8hRGO2YsFYRhl7WPuqy2xT2Vl9DtmMMUHQVhdpfV0NDIRdgcT5Mdk7IwYE4Ws9h9NeqpLIRXSeAwG+eG7GliptBjNgbRGxjNGTAQ3jyMrqLtSPl56WkhurcwB8E8GB2H87KhLnSVt21xQsU0e65x9MTw3YUhUqiga2gPXXNGX9gBRQs9I1NhjZ2w6FN9U+mzFL7NhQvxCzZmC6TuHxheS4sLFd26ZvJYf/8SH/PFCdGczfpI/3pqvI5UaYRMVp5kPxEWIuT3RBiEIAQhCEEIQhCCEIRnJxzihEKSdFstb0VU1rIoKYSXbqYoY5w+SWar1Wq3Wyzu7pbL5WQyabjYMEKEnqSJ4rj/UPhdZ3o0zUZ/wmiq42y3s9nMow+en5WgwRkJX9soJY++QjTvN2e7vztn2+/1eoOvXy0WlQm3KPt5/iGxFmv2Ez4URs9MBS9X8MLteamwgBCE/3Nh7T0LjfXjer0e5R8Aw/hTipf1ZrOhX+Nl/DUfjUZp/yELytEUBw/2UzTYD54VRe90OlyeCONJ9mEm2h/HZnCktQg+JjJTw1O1cJLaaoQTNs4z7/jthH+L4c3CByT5e+JJWpH5dkOKVdCU7g9JqoLOU1j0HTAIQQhCEIIQhCAEodxCCWZtRyto35uw9tCWSKgzqCGt1d6cuSRC3frAaI+Tx5EUwk6X3ZYDDFfQFhaa+j/MfDIITaV3rqugCwndxezveRW0OcCFJcyExu3925pgbxPqQvN56z25fHl82zN4u2a8tufz2LX0dMUMdWHgQ5nP29941HKnFqyxELoFXv144ROXyq7Msjw/JMBsYVCkF/uPn5lUdqW+lNFOVLCRCVNxDVy1liy0dEtludaQahlViFWEfuXhcX2lV30oog4YNWY/0WXJhK0oz+uYae98gpJ1MbXciS5bQojfViwXMzWzaP1Qry6uHj/SZQmF+C3McpdS+Bv9FR62jhC8p4J3lSVZ1qZ0sztm+GP7Cte3a7lKsuTo1MTGGBIIaeew18A7FWp2n//+NE22GyhFdXgrJUFPEyvuP1ck3nZYYtaX1oONzJjp/C3N/LsnIUI/FDejC2PjvSLDtQrCnwhTPik1e7uL7/fJ4Ynwl5P7JlbfFDKic7eHTNxOJWtIWTwwvYmviDp6ilFhY88YL32Lz7iQ0cbeDzFi2nMaf3PWskmcetlCVhvtGrnC4MpT5qQ8PvUyhew22N9HrzYnhP5+ikTL2lJOvSwhy48kvF0VEnr9leTegmTVF9tNy9ftgsI6u3fAHbZfZQ3HDFFCi/Vngw5jhiAhhw9AOLZIIZN3v4kEe0ILEbKYrB1n3xYm5PUxHW/MECDUTV7ffHLHDP5CnfE4EQ0eM/gLmY8T0aAxg7vQ+pcjsGY4Nm8hj3Eimts5Z6HF+Psyx9l/o/uWOwf4iet35by8/XjBb+/LTz/w/TagF/wZUi7v8ZGP3TKvKkZaQnE+z5jdV+kIxfo8Y1Y7kgCzhOJ9OFnG6kI5fDjpfbWqUB4fTlo7VjsP5fLhHBurCOXz4ST7anmhnD6ceDuWndPI68OJGssJ5fbhhH21jFB+H07QjuTC8/DhYCP52sTz8eGgvjrUCdLpnpcPx/j8gSTX5+aDQCAQCAQCgUAgEAgEAoFAIBAIBAKBQCDnmP8AIzpcpllFnfsAAAAASUVORK5CYII=;" vertex="1" parent="1">
          <mxGeometry x="627.53" y="934.3" width="40.4" height="40.4" as="geometry" />
        </mxCell>
        <mxCell id="wC8_cDmadlpLExYwXLmD-71" value="" style="shape=image;verticalLabelPosition=bottom;labelBackgroundColor=#ffffff;verticalAlign=top;aspect=fixed;imageAspect=0;image=data:image/jpeg,/9j/4AAQSkZJRgABAQAAAQABAAD/2wCEAAkGBxIQDhAODwoQDg0OEBAPDw0NDRANDRAQFBIWFhURFRMYKCggGBolGxMVITEhMSk3Li4uFx8zOD8sNzQvOjcBCgoKDg0OGhAQFy0dHSUtKy0tLS0rLi0tKy0tKystLS0tLS0tLSstNS0tKy0tLS0tLS0tLS0uLS0rLS0tLS0tLv/AABEIAOEA4QMBEQACEQEDEQH/xAAcAAEAAQUBAQAAAAAAAAAAAAAABAECAwUHBgj/xABDEAACAQMAAwoKCAYCAwAAAAAAAQIDBBEFITEGEkFRYXFykZOxExYiMjNVgaGy0QcjNUJSYpLBFBVTgoOiJWMkRFT/xAAaAQEAAwEBAQAAAAAAAAAAAAAAAQIDBAUG/8QALhEBAAICAQIEBAYCAwAAAAAAAAECAxExBBIFEyEyM0FRcRUjQlJhkSKBFMHR/9oADAMBAAIRAxEAPwDuIAAAAAAAAAAAAAAAAAAAAAAAAAAAAAAAAAAAAAAAAAAAAAAAAAAAAAAAAAAAAAAAAAAAAAAAAAAAAAAAAAAAAAAAAAAAAAAAAAAAAAAAAAAAAAsnVits4rnkkBGqaVoR867pLnqxQTqWF6ftFt0hQX+aHzGzUqeMNp6xt+2h8yNmpPGG09Y2/bQ+Y2ak8YbT1jb9tD5jZqTxhtPWNv20PmNmpPGG09Y2/bQ+Y2ak8YbT1jb9tD5jZqTxhtPWNv20PmNmpPGG09Y2/bQ+Y2alVboLT1hb9tD5jZqWSGmLd7Lyi+arEnZqUmFxCXm1Yy5pJhDKAAAAAAAAAAAAAAB5TdHu0p20nSoxVeutUteKUHxN8L5ERMrRXbw9/upu6ze+upQi/uUvq4+7WV2vFYamrVlLXKcpPjlJy7yErAADIDIDIDIDIDIDIDIAABWEnF5i3F8cW0wNlZboLqi1vLuphfdnLfx6mTtGoew0Du+U5KndwVNvUq8PMz+aPBz9xMSrNfo9xGSaTTTT1prWmiyioAAAAAAAAAB5nd5px2tuoU5Yr18xi+GEF50ufWkuciZWrG3KG+Uo0MgMgMgMgMgMgMgMgMgMgMgMgMgMgMgMgAOgfRvp1ybsqks4TnQbevC86n+69paJUtHze9LKAAAAAAAAADkn0gXvhb+cc+TRjGklxY1v3tlZaV4ebyQsZAZAZAZAZAZAZAZAZAZAZAZAZAZAZAZAZAm6EvHRuqNVPzKkW+ZvDXUwiXcU8rK2MuyVAAAAAAAAAcK0xW391Xm/vVanxNfsUawhhIAAlUbKU4qalFJtpb6WNheuObRuHLl6zHit22X/AMul/Up/rRbybMvxHCfy6X9Sn+tDybH4jhYLi3cNrTT4YvKKWpNeXRh6nHl9ssJVuAAAGW3oSqS3sVl8PEucmKzPDPJlrjjdpZ/5fL+pT/Wi/lWcv4jhP4CX9Sn+tDyrH4jhWVbRxTk5wwuBSyxOK0Jr1+K0xEfNGM3aAAGQO66Hrb+2oz/FSg/9UXYymAAAAAAAAWVniMnxRfcBwOtLMpPjlJ9bKNlgAABtZLFGjH8rl+p5O3FH+L5nxC280sJo4VALZLKwRMRMalpiyWx2i1eYRJLDwcNq9s6fU9PmrmpFoUKtwC6nByaillt4SERtW1orG5bSq1Sh4KD8p66k1tb4jsx07YfN9X1M5bIho41ALauxkStSe20SjnA+v5AkAAdq3ITzo+1f/TBdSwWhlPLcEoAAAAAAAYrn0c+jLuA4AmUbGQGQGQNxeanGP4acI+476RqHyXU27skyjlmKgADFXhlcqMslO6HZ0XU+Tk9fbPP/AKi5ON9NE7MhLa2VPwVPwrX1k9UE+BcZ0YqfOXjeIdT+iqO2dDxlAAFstj5gQi5OC3MvrcM7x1n+IMkNTIDIHZ9w7/4226D+JloZW5b0lAAAAAAADFdejn0JdzA+fYvUuYo2VyAyBdTWZJcbS62IVtOomW3vnmrLnS6kkehHD5HJ7pRyVFMgCAAi3EMa1sObNT9UPd8N6nujyrc/Jm0bbb+TlL0cNcnwPiRnjr3S6+rz+VT05lnua2/k5cGxLiR2RGnzVrd07YiVVMgAKEJRGceT3S+n6Od4KqZKOoyAyB2fcJ9m2/Rl8TLQyty35KAAAAAAAGK69HPoS7mB8+RepcyKNlcgMgZrJZq01+ePeTXmGWadY7fZsLl5nN/ml3nfD5O3MsTYVRaNXE9b8l6nyZ4TmnJMX/h7lOjrk6WNR/lylSWHh7UdLxJjXKgFGRMbTW01nccssq31cacY72K1v8z4yK1ivDXNntlndmEsxUbAjKp5Sb2ZWeY5smSe70e30nR1nDM2j1nhMrw3spR4n7uA6HjWjU6WBCHPazky+59H4fO8EKZM3cZAZA7PuD+zbfoy+JloZW5egJQAAAAAAAxXXo59CXcwPnqL1LmRRsrkBkCVotZr0+l+zLU90MOp+FZKqPW3xtnc+UnlawNdLazhv7pfVdL8Gv2bCnPfU4y4V5EvZsfV3HTituHi+I4ezL3RxIavPUAAUIGKvLCwVvbUbdHTYvNyRVFbOJ9TEa9IbbSHpZf2/Cjujh8nk90o5LNEq7Wcub3PoPDJ/K/2syZPRMgMgdp3BfZlv0ZfEy0MrcvQEoAAAAAAAYrr0c+hLuYHzxDYuZFGy4ABM0P6eHJl+4vj9zm6ufyZZ2dr5ZQDXT2s4snul9T0k7w1+yTo+flOD2VFveaX3X16vaTitqzPr8PmYp1zHqzs7HzShABJkCHXnlnPmt8nt+GYdROSfsxrXq49Rg9WZ1G220g/rZez4Ud0cPk8nulHJURK3nHNm5e74X8OfusMXpgADtW4L7Mt+jL4mWhlbl6AlAAAAAAADFdejn0JdzA+d4PUuZFGquQGQJuhvTLoy7i+P3OXrfgyzna+YUA19XzmceX3PpugneCqxSxr4UZuufVtakt9ia2TWfbw+87aW3G3y3U4vLyTVYWYKAWVZYRErVrNp1CC2cVp3O31WLHGOkVj5MluszguOcV70I5WyTqk/aWxvH9bPpNdWo7YfKX90sIVRK+0583MPb8L9lvux5MXqGQGQO17gfsy26MvjZaGc8vQkoAAAAAAAYrr0c+hLuYHzrDYuZFGyoQATtDem/sn3GmP3OTrvgyznY+ZUIEC585nLm9z6Hwyd4dfyxGT0E+xnmEocMPLXReqX7PrN8Nvk8nxTF6Rkj7Mh0PFUCUa6nwGWW2oeh4di78m5+SMcr30rRkc16a/Nnq1lqcseonWKyRVlmUnxtv3nY+XnlaEIlxtOfNzD2vC/bZiMXqgADtu4D7MtujL42Whnbl6ElAAAAAAADFd+jn0JdzA+c4PUuZFGqoACfoV/Xf2T7jTH7nJ13wZZzrfNAEG8XlHPm5h7XhVv8bQjmD1mezq7ypFvZnEuWL1PvLVnU7ZZ8fmY5qnVFvW1nYzsfLTExOljlyhGkCrLLOXLO7PofD8XZi39Vhm7k/Q3ps/hjKXUi+P3OTrZ1iledb5tQCJcvWc+bmHteF+2zCYvVAAHb/o/wDsy26MvjZaGduXoSUAAAAAAAMV36OfQl3MD5xhsXMijVcAAnaFf1y6M+4vj9zl634MpLOx8yoBEvlsZjm4ep4XbWSY/hEOZ7gBc6je2TLd9vqw/wCNh3vshTfvjY77fUnpcM/ohTJVtEREagCWx0RqVaXFDHWzXFy87xG2scQqdLwVCEodz5xhm5e34X7LfdiMXpgADt/0f/Zdt0ZfGy0M55eiJQAAAAAAAxXXo59CXcwPnBFGqoACboZ/Xw5cr3Mvj9zm6uPybJbOx8yoBHvF5Jnl9rs6C2s8IByPo0yjYSlHfGNsvr6PVxeHRNYm9tTKNVg4vDL0v3Q4up6ecF+2fWPkthHLwuEtM6jbPFjnJeKV5lMno9qO+yY+dP0epPhldai3qhM2idvJtWa2ms8w2mj1i3qP8U4x6ln9zoxPG8Tt6xChs8hQCFcvyjny8vc8M+HP3YjJ6QAA7nuBX/F2vQb/ANmWhnPL0BKAAAAAAAFlZZhJccX3AfONxHE5rilJdTZRqxgAJWjKijXpybwlLW3sxhlq8seojeK0QlO4j+I6+6Pq+b/4+X9s/wBSp/ER/EO6PqeRl/bP9SsrVYuLWStpiY1trhxZaZK27Z9Jj5S1+TkfSttbaRShjkOSa2ieH0eLqMWWsWm0RP8AM6a65q76WTbFWax6vM8Q6iuW8RT1iFtGpvZJ8Re9e6unP0maMWWLTw2tTSScMZOXttPpp73n4Kx398f3/wBNRKWW2ddY1GnzubJ5mS1/rLZU68Y29OG+8pylOSXBrws+xHTjmIh4HX0vfJ6Vmf8ATH4ePGad0fVxeRl/bP8AUnh48Y7o+p5GT9s/1KJXllnPkncva6Ck1xesa9WMzdwAyB3rcVDGjLNf9EH1rJeGc8t2EAAAAAAAAHzvp6j4O8uab1b2tU98m/3KtIQMhJkBkBkgMgMgMkhkBkBkBkBkBkBkgMgMkhkBkB3gfRWhaHg7WhT/AAUqa/1RZkmgAAAAAAAAOJ/SdYOjpKc8YjcRjVi+N+bL3orK9eHk8hYyAyAyAyAyAyAyAyAyAyAyAyAyAyAyAyAyBsdzlk7i8t6KWd/VjnkinmT6kwiX0MljUtiLM1QAAAAAAAAHk/pF3Ou9tVOlHNzbtzprhnFry6ftwmuVESmJ04lJNNpppp4aaw0+IhopkBkBkBkBkBkBkBkBkBkBkBkBkBkBkBkBkDqf0U7m5QUr+tDeucd5bxa1qD86p7cYXJnjJhS0ujkqgAAAAAAAAAB4/dZuBo3jdalL+GuXtko76nUf548fKveRpMTpznSe4S/oN/8Ai+Givv278Iny41NdRGl9w0NazqweJ29SDX4qcohKPvuUBnlAZ5QGeUBnlAZ5QGeUBnlAZ5QGeUBnlAb7lQGWlbzl5lKcujCUu4Dc6O3H31dreWM4p/fq4pQ65DSNw97uY+jSFGUat7UjXqR1qjBPwCf5m9c/cucnSs2dAisLCWEtSS1JEqqgAAAAAAAAAAAAAtnTUvOinzpMDBPR1GW22pPnpxAwS0HavbY0X/iiDazxftP/AIKHZRBs8X7T1fQ7KINni/aer6HZRBs8X7T1fQ7KINni/aer6HZRBs8X7T1fQ7KINni/aer6HZRBs8X7T1fQ7KINrloK1X/o0eyiE7ZoaMoR2WtJc1KIQkU6MY+bCMejFIC8AAAAAAAAAAAAAAAAAAAAAAAAAAAAAAAAAAAAAAAAAAAAAAAAAAAAAAAAAAAAAAAAAAAAAAAAAAAAAAAAAAAAAAAAAAAAAAAAAAAAAAAAAAAAAAAAAAAAAAAAAAAAAAAAAAAAAAAAAAAAAAAAf//Z;" vertex="1" parent="1">
          <mxGeometry x="683.0999999999999" y="934.79" width="39.91" height="39.91" as="geometry" />
        </mxCell>
        <mxCell id="wC8_cDmadlpLExYwXLmD-84" value="" style="shape=image;verticalLabelPosition=bottom;labelBackgroundColor=#ffffff;verticalAlign=top;aspect=fixed;imageAspect=0;image=https://qiita-user-contents.imgix.net/https%3A%2F%2Fqiita-image-store.s3.amazonaws.com%2F0%2F309176%2F26fa4109-f72a-782b-4181-2779c7a4b33a.png?ixlib=rb-4.0.0&amp;auto=format&amp;gif-q=60&amp;q=75&amp;s=03a7bfb1ae1efebeee798cef147dd12e;" vertex="1" parent="1">
          <mxGeometry x="372.03" y="832.94" width="40" height="40" as="geometry" />
        </mxCell>
        <mxCell id="wC8_cDmadlpLExYwXLmD-85" value="" style="shape=image;verticalLabelPosition=bottom;labelBackgroundColor=#ffffff;verticalAlign=top;aspect=fixed;imageAspect=0;image=https://qiita-user-contents.imgix.net/https%3A%2F%2Fqiita-image-store.s3.amazonaws.com%2F0%2F309176%2F2e9375fe-f26e-328d-b039-ad33be2cf24e.png?ixlib=rb-4.0.0&amp;auto=format&amp;gif-q=60&amp;q=75&amp;s=ff0312d50d4fa6669a77429583385532;" vertex="1" parent="1">
          <mxGeometry x="432.03" y="832.9399999999999" width="39.73" height="39.73" as="geometry" />
        </mxCell>
        <mxCell id="wC8_cDmadlpLExYwXLmD-86" value="" style="shape=image;verticalLabelPosition=bottom;labelBackgroundColor=#ffffff;verticalAlign=top;aspect=fixed;imageAspect=0;image=https://qiita-user-contents.imgix.net/https%3A%2F%2Fqiita-image-store.s3.amazonaws.com%2F0%2F309176%2F73356215-fe89-e13b-a067-12b8bbf7817a.png?ixlib=rb-4.0.0&amp;auto=format&amp;gif-q=60&amp;q=75&amp;s=17f3e16076528004963ce07fce064e7b;" vertex="1" parent="1">
          <mxGeometry x="398.71000000000004" y="740" width="44" height="44" as="geometry" />
        </mxCell>
        <mxCell id="wC8_cDmadlpLExYwXLmD-87" value="" style="rounded=1;whiteSpace=wrap;html=1;" vertex="1" parent="1">
          <mxGeometry x="332.03" y="872.67" width="180" height="57.33" as="geometry" />
        </mxCell>
        <mxCell id="wC8_cDmadlpLExYwXLmD-88" value="" style="shape=image;verticalLabelPosition=bottom;labelBackgroundColor=#ffffff;verticalAlign=top;aspect=fixed;imageAspect=0;image=data:image/png,iVBORw0KGgoAAAANSUhEUgAAAOQAAADdCAMAAACc/C7aAAAAt1BMVEUybOX////u7u7x8O4vauXD0Ow3b+U9dunz8u4qaOXo6u4qaOSPqOn18+4mZuXs7e6ouuogY+T3+v5LfOZDd+ZVguba4e7AzutQf+b6+/7l6O7g5O1Lfea5yeu0xeuswOvZ5Prm7fzw9P1pkeuhufLQ3Pl9nuhdiufT2+3g6PvT4PnK1/jJ1eyIpelbh+nAz/d0l+yuw/SApO+dtOoQX+W7y/ZvleyLq/CivPObs/J8nO2ku+qVsOqC2cbPAAARyklEQVR4nNWdaXuqOhCAI0QgRFEU9wW3Cm3Var3aSv3/v+sG3BU0CYGjc7708VTI20kmk0kyAzIpy8d6+NZI+Z0g1bcNPocGxobzNUj1tWlC9r/mEAEiGA9X7ym+OD3I/mINEQSBQIyGi/Qw04IkiAjvEQMhmL+9lF6eDuT7xgEXiAEmmG3SwUwDsr+p3yIGnRbUf/opNCB5yMGPCmAIYoAJgeIlb2kThmz0f/4zwgEPgv77fk944kwUcvDxAx4g+mLA749E1Zkg5OBzqlAg+r3WAN+fCWImBjn4+lbpEHeYyvirn1RbEoIcrMYMiLtOq3irhLSZCGRpMbcwG6IvSF0vEsFMAnIxU8KmRQrBymxUEt8g8ZALK2pWpBEIrJHwJgmGHPwCMwZigGmi7UDsxCkSsvH+WzZiIgZiWKN3kb1WHGTjY9SOq8WDQNPavInDFAXZeNvUhWjxgGmUN5+iMMVANt5+6gbHpPEA8+dTzNgUAvn53caCEQNMXPa+RGAKgPxcW0BgR73AhOrw6wkgP2YwzrxIwVn//LeQpa+KmShiQGm2V/FMUBzI/tcQJUy4E2zMVv0Yg5Mf8n0xRAlYm3CBxmzBH/TihXxfOKLnjOQw+SB7Iwemihhg4tnmIzXI900lMv6WqGBY+eHRJjtk/9sKjaKmIaT7WB47Jitk/9tIdl58yAnxnHUXhQmy9PFtiPTCOTGRuWZbojBADt6+4b9HDAThOUsIkxqy//UNngQR+NoEc/oQJiXkYOXRxMJTFIjgfEWJSQXZX3hqOg4ci0CsrBdUmBSQg8VQQf+aKFyw4owoxuZDyMaoraTu3NALVtqbh5b2AWTplzdOnJb4s/bmgTbvQTb6I8X81xA0YoDN3S3OaMhSb2OJCjEmLoby8xHda6MgS2+b8ssg+mJauUj/IALyI/daiMAPSKtRS5QIyJ/nmxYfC0Q/LJCl4RPPGtGCh+HjMhyyV3lJSFgJ76/hkCvrX7eXT6wVA+TmX7eWVzb0kCXvSX3VR4K80EEZCtlzXnJIEsvjhEZGQiE/yy84gfgCy6H7JqGQi6R2qZKXBS1kKfdcQQAGMXJhgzIMsr9+0SFJBuW6Twn59qpDkgzK9hsl5NeLTiC+4LCN6RDI0uhlhyQZlGHH1kIg+97LDkmiSa9PBfneftkh6Q/KEHcgBPLthYck8exCLM8tZGPxEsGrKDEXtyGtW8jB92tr8vs20hMC+cpD0ndfaSDfX7q3kv56a3luIVevDnkbHbiFTHZIQkQk0fGAvikgE3RcoQHbXrE4rkAjuR0W2H4MOUiot0JsoNm0O6nKcsvtbB1oJqVQ88by3EB+JgKJTOQsJ9WmJMuSJMmSXnXtNTATGRnmTXTgBvJHuHcODROs7ZZeCAD3Qn7Wm52xYhpYdBjCuImj30CKnSX9C5KV3ETLa2eARyEfu9uZohBMkcfXbwblDaSw3gr941OV+dLN58MADxrV8tW/ccU/5CWKE5rXjt015Keg3oqRUl/n7KoWqsIrTq3V2c4riqhjl8b1oLyG3Ip4ETJUZ7qstcI7abg+m5PidKgKmUPxdRz9GjL2dhY0DGu+7E50WsATqO52ll7ZiM2Jh/chS/FcAZ9wTObCAivhgbNQnXSmdSOerwDLpbuQbyr/o8lsX8llD3Mhp5DvNquTmL6C+nEX8lfhezREpuEsq3pBigF4Ai0UqvYc+5w8zYHK711Ij+Oh/lxYH3dlajNDBUrm0Gyuoio8mNC7B1lyOB6pDrcTKa+JAzyC5mW3uOYYQNgp3YH8qHNAVopZtymLVOMBUm66k2KFvUWw/nEHcsFjd6ABZtNijWbeZwAkHkLWzjkK1xlbdXUHknMbHUIEyvOt7QrSJ3lMtbv1YvhAm2jIUozYOUTYmo2XE/mep0qpQ/dv7JQB4vdmr7bVLyD5ttFPl5kwVMqzaU3it7NaXiKTZFmFR28A86w5sdOLhPyyOP52ynh28lD8g5mKNbfp3dZzFeb1zthSThdrgmjCWGFvE7S+IiF/ORQJlUle73pl9bhYgr5nUMm5uk7vGchSQa8uHfLF418L+3+tv2Z+wuOf4N8oyNKUZ52lZGXSy/Razmkrp0u/0DDb047bKjz28QJPLrudmWf9AStlZ9r1+4Oc5dAkMH5KEZDvQx7vwocMRlMhu/Qcslg6/g8yLK9Yc++uR3yfPGuP28bJkJKlaMXbdvRdjyeQPK0avkdA8m2j7yF3DZ7Y27V1ugVEONVhrjtphs+hmtZ0u9u5dba6Cr5g+184PJRLk7D8FgG54jFk8AQZcErVWnFcPlv8EsXMvGWnemWKiJlp1ZbjC9UbiCxFO+7FQo1PkwCtwiFLG67QxwXkboi1XLIoNI8dMPAVnLF94vQJu9NhXTlNP8RaWWP7dinKp0lgnN8xOIPsz3lmSXgNGbRMarYm28qFKQFqe7h1yeLCj9H9zetnsSsyVRAzlW2FLUU5NYnn/VDIHteQDIXcKbRQ/XPAWd5Bn4mwZKdtcHbJlBDC2dYtRKy1OSFhuRcK+cYXqIuA3PdKvTu21DOdkV55WvMH+n3gOnB214s4+gmy8csVco3S5EGIo1bLkdF3kzcDEovkT4b6feeIU5PA/G2EQA44vfMHkNJuatnZ0VNzseHb3Jr+cLHNq0l0ltnwDJIvUPdIk0dO194e04OhYDLUaRYsvJo831Y/QfY4Y+dUkNJuCs1ug8PtVq7m0kYteTUJjF4IJOfJFjpN7hucn1Sgf+h/Qr/o5NUkMBe3kA3ebXQGSNLiPSTLVzg1ib4bt5A8a0nApskjJNNXeEPB5VvI/n9cj+LTJBskZ8P+699A8p5seVpNnp11OUJyn2x5Wk2ezrocITmH5BNrElrXkCXubfSn1SQwS1eQ3CdbnleTJx/9ALnhPlLzvJpEmytI7ttZT6xJ7FxClnjtDqMma/UUNQnVwQXkJ/+TOCDrtVQ0CZTPC8hRjCclDsnbMqiMLiB5ttEPT3peTR621XeQgxn/nt3zahLg2eAM8o3/2OBTa3IfR99Bcm2j7+WJNQnUxRnkD//BoGfWJMA/J8gBV+z8FSDngyPkRwy789TdFc8+jpCrGEOSSZNayprcp5AIIEdxzn8yQXb2kPTnt2JpEuDRATLWFTQ2Te4hO0yQMTRpBNfTfMherJO8yUPGaBwe9vaQn/xLkGfXJLQ+95Bc2+hHeWpNAmO1gxzEShDBqMl2upoEhp/TDsROEMEB2U5Pk0EKCQLZizMkuTTJCBmreVYvgPyMdy2MDbKcsiaDmzAgboIIRk0GkOX0NBmkkACxvHNfkoeM1TzfRweZfqwh+fSahOU+gezx7tnt5ck1Cf7rEUi+ky1HIZqkbzEHpBZTk8D8zYBGzCEJlS79IWV2SFnrxoREXgPwbqOfZNit0lIyQ2qt7jBm86DVAP3YV1+x4nWbdK1mhNT07liNfaHT7AMRCSKwNe5Q9VkmSFnLjnmKH95AroCQBBEQWuNqXixkvjUuC7nPjb6BoAQREFjbwsOma92y/8sUkFphKaqQFSwDYbkxoaH+6ZSQ3UeQum0JK4SAPFASlxwTGrNO8/65UCpIudlxxNV6QE4JZN4r4pJTYODV7hlaGkhNz46BuCah+ru/1OK6vBQhECm5bCFSm1o3OCV5B1KWJjlVYMmO4EIT8I8sx/QOL8WobydR13r2kFYUpCy7S4Edi4jiH2AO4q4/QqvyQDBbtsIpHkBqzaUDRGYGhHB6iLsKTwMKldmfFMZxF1KWbUdwuQc07J+27npl0RUywSzs4O4dSDnvOqKT1uDyx8XpD1Xw8yE2h+6NBYqElCXXM0WnlILq1+VhpV/xyZyIoXV1mQZSLrhbylryDALR4RJl/KOgd8QoL92Li6KhkMSkFusJZFsNOQo6WCfwHoid4rnjHgapVe1hEhVljfXgBjKhegQIzG1di4bU9M5coH9zEnxWp+DsrpZIz+ckEFle59BnryFlqTYW54lfvFY9u7p9BtlYJPCy4IXW2NXCILXqNFY1+TuvBOcZUC8ubv8klmFRzQV9VrPPILXCVk0qq3z0xW3uO2k0bwXLgiQfIG3NXzImV+ppf7QlFNIvupzUe4E567ROmmzWnOSyj8LZvSwu8XbWHwiGXra4gywKXTJey4XRCYHMLBIsv0gM7Sw4MaTOrCTTnxrXVRhuc0kmmsN2Z0uTrbdqPs4lORi+cD57X4zh49SnmXfRy650BZZpci5n3mLusPxTgSCk9ktYlYnV6xZ+CS/9Elr55WUrTgEQWnEztIZP33tNXUIQVmMisgxcgp5PggJnLGXgxMd80hCohBacii6yuXrB2fLG03kEmfl+uez95m0q+0eQGefFKmqgWWTt22jIQf2lPB/Ujq5jHA2ZeROxYZ+WYCusoNZjyMbidUwsVEOq2tBAvpLno9wtun0PMjPgv1bJI5A7xgzDPR0qyMx7nPtNrA0FnUmW75gGroTW1qSEzHymt+yCoKoVcnz5ASM8HUrIzCK1qtQEUtZ5ICGK8nRoITPJBZyv28oLeVsfhBkys06JkhcSXVci4IHsz7gpYVhYLvSz4B8XJKr0BUDy1PpFfvZTiJRy+yoBNsJqu3yWCDT4DFltCyA+yIh6vsyQHJ6PVyzOjPqyk83Wio55St5qTbs18pk9Vs5S3Xo2+aw7VTAH5H1PhwHS93wYKYuy5q1dPZ/Pa4Xq8phHcj5pyhoRqVU7nOjDVrcVfNbMWuyQEIbGdHggiefD+AcuatpfS5MndqegyQV7Nw3BsS7LeX3iFvKyVN3d2YRW1k/t7pLPNJcd0pjf8+bYIDPvjIvLoubvsDoGRmpHlvWtH2bAQ0mWq2MyBJVcU5ZbwfFe0JUkySaDVNn6B0UYIfHsvqfDBslqfAik3FJ9NGh2NM3POwhRVZYnThBVMeZVWasZ/lFU8sPyP//ZpldghaQyOgyQmRXTIUMCqXm7KBFUC0EvROu81BrvP8NbXcrXyWRiE+XuR+d/tsaqyUeeDitkhikhc1GTq4efja7m3+0wbU2uHa7644ora1vDzz6kHbhwhRHSvC66FB+y5DFQ+obn0L/xOO/nUDCrcqF4fAQmQzVr4nVVzh9CvBC0mAyPuaYxrGyQZNlF34Cilp8ecw47eTIWMdTl5vT4BKNYkFsm8lqydBrtNY0BElEaHTbIzBv9VjuBHB8hK3nZHRqqLrfGJ0hiTHUDTQty8/RUmwES3ovpxIDMrFggvXPI6tqwQiGJEeaEvC2KKgayMaKlvNCk42sSKQTysrs2TV+ThRNklxoSohGFN8cFmRl8U+72E8OzPTc82Qo0m7K+PBoeRAzPxETzc8MDJ7SQEIYUYxYFSV2Hgkwh2cPfw59CbMV3CuTOwQeG7Yms/RlwNpHzR/XuJ1QayCG90WGHpE2m5Xs8+1sBmAxGv+0GUWh1vlclnjalPPFeVeIMTPbfMad5ynmS2tPhhMysaBgDj6cT3AvAxJzIEz8ZhtKUpU47cPWQMyGeDlE1GpMlSC44OmS0qzItJIvR4YHMjGiuQPsOutStmKbZtv1O6OMaOU3WO0NkmtibFGQpWNkoXUlublXTNIZZjRLyvxFrm5khGzQnnAlkU5Pczl/HLciyvfN7VTsvF6rZoj1pSbK0DYKduE50qrvdYpassyZUY9JYsxhWPsjMgOKcD7Gu9jbIyC9r+e0hdqtuC0EdAr9u6HTv8JMF5e6zvLS28xRxVxxSAF48ZOb98W6XD0k6YKFQaNrlk+ZRe1kln+luzjp+CM35xP+9bhltJ7WHq3Oshh8LEA1JEVb3ISEyQbmMzPPfhYaptNuKeXFKkfxe20LkI8N8WJ0aKl+P2ycEsjR6tLj0IQF9SBKG/mKYKCPqpUdMSOL5PIhs7SFFCwRsnk4syIeeT1KQjJ5OPMjMx/2YTzKQl8WykofMfN0dRYlAQszq6cSFzGzunfOx8/mucEj6mI4wyMzwrrkXv6tJsXslHrJ0L+Yj/pQ5mnEZ1piQmV47xXM+h0utaUNmvtI753NVGjRFyMeejzDh83REQGYG02RveByFMaYjFDLTHyKYguxv0v8jyMzHTE1BZjGMji//AxiIoDFQMKh/AAAAAElFTkSuQmCC;" vertex="1" parent="1">
          <mxGeometry x="341.08000000000004" y="880" width="43.75" height="42.4" as="geometry" />
        </mxCell>
        <mxCell id="wC8_cDmadlpLExYwXLmD-89" value="" style="shape=image;verticalLabelPosition=bottom;labelBackgroundColor=#ffffff;verticalAlign=top;aspect=fixed;imageAspect=0;image=data:image/png,iVBORw0KGgoAAAANSUhEUgAAAOQAAADdCAMAAACc/C7aAAAAt1BMVEUybOX////u7u7x8O4vauXD0Ow3b+U9dunz8u4qaOXo6u4qaOSPqOn18+4mZuXs7e6ouuogY+T3+v5LfOZDd+ZVguba4e7AzutQf+b6+/7l6O7g5O1Lfea5yeu0xeuswOvZ5Prm7fzw9P1pkeuhufLQ3Pl9nuhdiufT2+3g6PvT4PnK1/jJ1eyIpelbh+nAz/d0l+yuw/SApO+dtOoQX+W7y/ZvleyLq/CivPObs/J8nO2ku+qVsOqC2cbPAAARyklEQVR4nNWdaXuqOhCAI0QgRFEU9wW3Cm3Var3aSv3/v+sG3BU0CYGjc7708VTI20kmk0kyAzIpy8d6+NZI+Z0g1bcNPocGxobzNUj1tWlC9r/mEAEiGA9X7ym+OD3I/mINEQSBQIyGi/Qw04IkiAjvEQMhmL+9lF6eDuT7xgEXiAEmmG3SwUwDsr+p3yIGnRbUf/opNCB5yMGPCmAIYoAJgeIlb2kThmz0f/4zwgEPgv77fk944kwUcvDxAx4g+mLA749E1Zkg5OBzqlAg+r3WAN+fCWImBjn4+lbpEHeYyvirn1RbEoIcrMYMiLtOq3irhLSZCGRpMbcwG6IvSF0vEsFMAnIxU8KmRQrBymxUEt8g8ZALK2pWpBEIrJHwJgmGHPwCMwZigGmi7UDsxCkSsvH+WzZiIgZiWKN3kb1WHGTjY9SOq8WDQNPavInDFAXZeNvUhWjxgGmUN5+iMMVANt5+6gbHpPEA8+dTzNgUAvn53caCEQNMXPa+RGAKgPxcW0BgR73AhOrw6wkgP2YwzrxIwVn//LeQpa+KmShiQGm2V/FMUBzI/tcQJUy4E2zMVv0Yg5Mf8n0xRAlYm3CBxmzBH/TihXxfOKLnjOQw+SB7Iwemihhg4tnmIzXI900lMv6WqGBY+eHRJjtk/9sKjaKmIaT7WB47Jitk/9tIdl58yAnxnHUXhQmy9PFtiPTCOTGRuWZbojBADt6+4b9HDAThOUsIkxqy//UNngQR+NoEc/oQJiXkYOXRxMJTFIjgfEWJSQXZX3hqOg4ci0CsrBdUmBSQg8VQQf+aKFyw4owoxuZDyMaoraTu3NALVtqbh5b2AWTplzdOnJb4s/bmgTbvQTb6I8X81xA0YoDN3S3OaMhSb2OJCjEmLoby8xHda6MgS2+b8ssg+mJauUj/IALyI/daiMAPSKtRS5QIyJ/nmxYfC0Q/LJCl4RPPGtGCh+HjMhyyV3lJSFgJ76/hkCvrX7eXT6wVA+TmX7eWVzb0kCXvSX3VR4K80EEZCtlzXnJIEsvjhEZGQiE/yy84gfgCy6H7JqGQi6R2qZKXBS1kKfdcQQAGMXJhgzIMsr9+0SFJBuW6Twn59qpDkgzK9hsl5NeLTiC+4LCN6RDI0uhlhyQZlGHH1kIg+97LDkmiSa9PBfneftkh6Q/KEHcgBPLthYck8exCLM8tZGPxEsGrKDEXtyGtW8jB92tr8vs20hMC+cpD0ndfaSDfX7q3kv56a3luIVevDnkbHbiFTHZIQkQk0fGAvikgE3RcoQHbXrE4rkAjuR0W2H4MOUiot0JsoNm0O6nKcsvtbB1oJqVQ88by3EB+JgKJTOQsJ9WmJMuSJMmSXnXtNTATGRnmTXTgBvJHuHcODROs7ZZeCAD3Qn7Wm52xYhpYdBjCuImj30CKnSX9C5KV3ETLa2eARyEfu9uZohBMkcfXbwblDaSw3gr941OV+dLN58MADxrV8tW/ccU/5CWKE5rXjt015Keg3oqRUl/n7KoWqsIrTq3V2c4riqhjl8b1oLyG3Ip4ETJUZ7qstcI7abg+m5PidKgKmUPxdRz9GjL2dhY0DGu+7E50WsATqO52ll7ZiM2Jh/chS/FcAZ9wTObCAivhgbNQnXSmdSOerwDLpbuQbyr/o8lsX8llD3Mhp5DvNquTmL6C+nEX8lfhezREpuEsq3pBigF4Ai0UqvYc+5w8zYHK711Ij+Oh/lxYH3dlajNDBUrm0Gyuoio8mNC7B1lyOB6pDrcTKa+JAzyC5mW3uOYYQNgp3YH8qHNAVopZtymLVOMBUm66k2KFvUWw/nEHcsFjd6ABZtNijWbeZwAkHkLWzjkK1xlbdXUHknMbHUIEyvOt7QrSJ3lMtbv1YvhAm2jIUozYOUTYmo2XE/mep0qpQ/dv7JQB4vdmr7bVLyD5ttFPl5kwVMqzaU3it7NaXiKTZFmFR28A86w5sdOLhPyyOP52ynh28lD8g5mKNbfp3dZzFeb1zthSThdrgmjCWGFvE7S+IiF/ORQJlUle73pl9bhYgr5nUMm5uk7vGchSQa8uHfLF418L+3+tv2Z+wuOf4N8oyNKUZ52lZGXSy/Razmkrp0u/0DDb047bKjz28QJPLrudmWf9AStlZ9r1+4Oc5dAkMH5KEZDvQx7vwocMRlMhu/Qcslg6/g8yLK9Yc++uR3yfPGuP28bJkJKlaMXbdvRdjyeQPK0avkdA8m2j7yF3DZ7Y27V1ugVEONVhrjtphs+hmtZ0u9u5dba6Cr5g+184PJRLk7D8FgG54jFk8AQZcErVWnFcPlv8EsXMvGWnemWKiJlp1ZbjC9UbiCxFO+7FQo1PkwCtwiFLG67QxwXkboi1XLIoNI8dMPAVnLF94vQJu9NhXTlNP8RaWWP7dinKp0lgnN8xOIPsz3lmSXgNGbRMarYm28qFKQFqe7h1yeLCj9H9zetnsSsyVRAzlW2FLUU5NYnn/VDIHteQDIXcKbRQ/XPAWd5Bn4mwZKdtcHbJlBDC2dYtRKy1OSFhuRcK+cYXqIuA3PdKvTu21DOdkV55WvMH+n3gOnB214s4+gmy8csVco3S5EGIo1bLkdF3kzcDEovkT4b6feeIU5PA/G2EQA44vfMHkNJuatnZ0VNzseHb3Jr+cLHNq0l0ltnwDJIvUPdIk0dO194e04OhYDLUaRYsvJo831Y/QfY4Y+dUkNJuCs1ug8PtVq7m0kYteTUJjF4IJOfJFjpN7hucn1Sgf+h/Qr/o5NUkMBe3kA3ebXQGSNLiPSTLVzg1ib4bt5A8a0nApskjJNNXeEPB5VvI/n9cj+LTJBskZ8P+699A8p5seVpNnp11OUJyn2x5Wk2ezrocITmH5BNrElrXkCXubfSn1SQwS1eQ3CdbnleTJx/9ALnhPlLzvJpEmytI7ttZT6xJ7FxClnjtDqMma/UUNQnVwQXkJ/+TOCDrtVQ0CZTPC8hRjCclDsnbMqiMLiB5ttEPT3peTR621XeQgxn/nt3zahLg2eAM8o3/2OBTa3IfR99Bcm2j7+WJNQnUxRnkD//BoGfWJMA/J8gBV+z8FSDngyPkRwy789TdFc8+jpCrGEOSSZNayprcp5AIIEdxzn8yQXb2kPTnt2JpEuDRATLWFTQ2Te4hO0yQMTRpBNfTfMherJO8yUPGaBwe9vaQn/xLkGfXJLQ+95Bc2+hHeWpNAmO1gxzEShDBqMl2upoEhp/TDsROEMEB2U5Pk0EKCQLZizMkuTTJCBmreVYvgPyMdy2MDbKcsiaDmzAgboIIRk0GkOX0NBmkkACxvHNfkoeM1TzfRweZfqwh+fSahOU+gezx7tnt5ck1Cf7rEUi+ky1HIZqkbzEHpBZTk8D8zYBGzCEJlS79IWV2SFnrxoREXgPwbqOfZNit0lIyQ2qt7jBm86DVAP3YV1+x4nWbdK1mhNT07liNfaHT7AMRCSKwNe5Q9VkmSFnLjnmKH95AroCQBBEQWuNqXixkvjUuC7nPjb6BoAQREFjbwsOma92y/8sUkFphKaqQFSwDYbkxoaH+6ZSQ3UeQum0JK4SAPFASlxwTGrNO8/65UCpIudlxxNV6QE4JZN4r4pJTYODV7hlaGkhNz46BuCah+ru/1OK6vBQhECm5bCFSm1o3OCV5B1KWJjlVYMmO4EIT8I8sx/QOL8WobydR13r2kFYUpCy7S4Edi4jiH2AO4q4/QqvyQDBbtsIpHkBqzaUDRGYGhHB6iLsKTwMKldmfFMZxF1KWbUdwuQc07J+27npl0RUywSzs4O4dSDnvOqKT1uDyx8XpD1Xw8yE2h+6NBYqElCXXM0WnlILq1+VhpV/xyZyIoXV1mQZSLrhbylryDALR4RJl/KOgd8QoL92Li6KhkMSkFusJZFsNOQo6WCfwHoid4rnjHgapVe1hEhVljfXgBjKhegQIzG1di4bU9M5coH9zEnxWp+DsrpZIz+ckEFle59BnryFlqTYW54lfvFY9u7p9BtlYJPCy4IXW2NXCILXqNFY1+TuvBOcZUC8ubv8klmFRzQV9VrPPILXCVk0qq3z0xW3uO2k0bwXLgiQfIG3NXzImV+ppf7QlFNIvupzUe4E567ROmmzWnOSyj8LZvSwu8XbWHwiGXra4gywKXTJey4XRCYHMLBIsv0gM7Sw4MaTOrCTTnxrXVRhuc0kmmsN2Z0uTrbdqPs4lORi+cD57X4zh49SnmXfRy650BZZpci5n3mLusPxTgSCk9ktYlYnV6xZ+CS/9Elr55WUrTgEQWnEztIZP33tNXUIQVmMisgxcgp5PggJnLGXgxMd80hCohBacii6yuXrB2fLG03kEmfl+uez95m0q+0eQGefFKmqgWWTt22jIQf2lPB/Ujq5jHA2ZeROxYZ+WYCusoNZjyMbidUwsVEOq2tBAvpLno9wtun0PMjPgv1bJI5A7xgzDPR0qyMx7nPtNrA0FnUmW75gGroTW1qSEzHymt+yCoKoVcnz5ASM8HUrIzCK1qtQEUtZ5ICGK8nRoITPJBZyv28oLeVsfhBkys06JkhcSXVci4IHsz7gpYVhYLvSz4B8XJKr0BUDy1PpFfvZTiJRy+yoBNsJqu3yWCDT4DFltCyA+yIh6vsyQHJ6PVyzOjPqyk83Wio55St5qTbs18pk9Vs5S3Xo2+aw7VTAH5H1PhwHS93wYKYuy5q1dPZ/Pa4Xq8phHcj5pyhoRqVU7nOjDVrcVfNbMWuyQEIbGdHggiefD+AcuatpfS5MndqegyQV7Nw3BsS7LeX3iFvKyVN3d2YRW1k/t7pLPNJcd0pjf8+bYIDPvjIvLoubvsDoGRmpHlvWtH2bAQ0mWq2MyBJVcU5ZbwfFe0JUkySaDVNn6B0UYIfHsvqfDBslqfAik3FJ9NGh2NM3POwhRVZYnThBVMeZVWasZ/lFU8sPyP//ZpldghaQyOgyQmRXTIUMCqXm7KBFUC0EvROu81BrvP8NbXcrXyWRiE+XuR+d/tsaqyUeeDitkhikhc1GTq4efja7m3+0wbU2uHa7644ora1vDzz6kHbhwhRHSvC66FB+y5DFQ+obn0L/xOO/nUDCrcqF4fAQmQzVr4nVVzh9CvBC0mAyPuaYxrGyQZNlF34Cilp8ecw47eTIWMdTl5vT4BKNYkFsm8lqydBrtNY0BElEaHTbIzBv9VjuBHB8hK3nZHRqqLrfGJ0hiTHUDTQty8/RUmwES3ovpxIDMrFggvXPI6tqwQiGJEeaEvC2KKgayMaKlvNCk42sSKQTysrs2TV+ThRNklxoSohGFN8cFmRl8U+72E8OzPTc82Qo0m7K+PBoeRAzPxETzc8MDJ7SQEIYUYxYFSV2Hgkwh2cPfw59CbMV3CuTOwQeG7Yms/RlwNpHzR/XuJ1QayCG90WGHpE2m5Xs8+1sBmAxGv+0GUWh1vlclnjalPPFeVeIMTPbfMad5ynmS2tPhhMysaBgDj6cT3AvAxJzIEz8ZhtKUpU47cPWQMyGeDlE1GpMlSC44OmS0qzItJIvR4YHMjGiuQPsOutStmKbZtv1O6OMaOU3WO0NkmtibFGQpWNkoXUlublXTNIZZjRLyvxFrm5khGzQnnAlkU5Pczl/HLciyvfN7VTsvF6rZoj1pSbK0DYKduE50qrvdYpassyZUY9JYsxhWPsjMgOKcD7Gu9jbIyC9r+e0hdqtuC0EdAr9u6HTv8JMF5e6zvLS28xRxVxxSAF48ZOb98W6XD0k6YKFQaNrlk+ZRe1kln+luzjp+CM35xP+9bhltJ7WHq3Oshh8LEA1JEVb3ISEyQbmMzPPfhYaptNuKeXFKkfxe20LkI8N8WJ0aKl+P2ycEsjR6tLj0IQF9SBKG/mKYKCPqpUdMSOL5PIhs7SFFCwRsnk4syIeeT1KQjJ5OPMjMx/2YTzKQl8WykofMfN0dRYlAQszq6cSFzGzunfOx8/mucEj6mI4wyMzwrrkXv6tJsXslHrJ0L+Yj/pQ5mnEZ1piQmV47xXM+h0utaUNmvtI753NVGjRFyMeejzDh83REQGYG02RveByFMaYjFDLTHyKYguxv0v8jyMzHTE1BZjGMji//AxiIoDFQMKh/AAAAAElFTkSuQmCC;" vertex="1" parent="1">
          <mxGeometry x="456.08000000000004" y="881.0699999999999" width="42.65" height="41.33" as="geometry" />
        </mxCell>
        <mxCell id="wC8_cDmadlpLExYwXLmD-90" value="" style="shape=image;verticalLabelPosition=bottom;labelBackgroundColor=#ffffff;verticalAlign=top;aspect=fixed;imageAspect=0;image=data:image/png,iVBORw0KGgoAAAANSUhEUgAAAOQAAADdCAMAAACc/C7aAAAAt1BMVEUybOX////u7u7x8O4vauXD0Ow3b+U9dunz8u4qaOXo6u4qaOSPqOn18+4mZuXs7e6ouuogY+T3+v5LfOZDd+ZVguba4e7AzutQf+b6+/7l6O7g5O1Lfea5yeu0xeuswOvZ5Prm7fzw9P1pkeuhufLQ3Pl9nuhdiufT2+3g6PvT4PnK1/jJ1eyIpelbh+nAz/d0l+yuw/SApO+dtOoQX+W7y/ZvleyLq/CivPObs/J8nO2ku+qVsOqC2cbPAAARyklEQVR4nNWdaXuqOhCAI0QgRFEU9wW3Cm3Var3aSv3/v+sG3BU0CYGjc7708VTI20kmk0kyAzIpy8d6+NZI+Z0g1bcNPocGxobzNUj1tWlC9r/mEAEiGA9X7ym+OD3I/mINEQSBQIyGi/Qw04IkiAjvEQMhmL+9lF6eDuT7xgEXiAEmmG3SwUwDsr+p3yIGnRbUf/opNCB5yMGPCmAIYoAJgeIlb2kThmz0f/4zwgEPgv77fk944kwUcvDxAx4g+mLA749E1Zkg5OBzqlAg+r3WAN+fCWImBjn4+lbpEHeYyvirn1RbEoIcrMYMiLtOq3irhLSZCGRpMbcwG6IvSF0vEsFMAnIxU8KmRQrBymxUEt8g8ZALK2pWpBEIrJHwJgmGHPwCMwZigGmi7UDsxCkSsvH+WzZiIgZiWKN3kb1WHGTjY9SOq8WDQNPavInDFAXZeNvUhWjxgGmUN5+iMMVANt5+6gbHpPEA8+dTzNgUAvn53caCEQNMXPa+RGAKgPxcW0BgR73AhOrw6wkgP2YwzrxIwVn//LeQpa+KmShiQGm2V/FMUBzI/tcQJUy4E2zMVv0Yg5Mf8n0xRAlYm3CBxmzBH/TihXxfOKLnjOQw+SB7Iwemihhg4tnmIzXI900lMv6WqGBY+eHRJjtk/9sKjaKmIaT7WB47Jitk/9tIdl58yAnxnHUXhQmy9PFtiPTCOTGRuWZbojBADt6+4b9HDAThOUsIkxqy//UNngQR+NoEc/oQJiXkYOXRxMJTFIjgfEWJSQXZX3hqOg4ci0CsrBdUmBSQg8VQQf+aKFyw4owoxuZDyMaoraTu3NALVtqbh5b2AWTplzdOnJb4s/bmgTbvQTb6I8X81xA0YoDN3S3OaMhSb2OJCjEmLoby8xHda6MgS2+b8ssg+mJauUj/IALyI/daiMAPSKtRS5QIyJ/nmxYfC0Q/LJCl4RPPGtGCh+HjMhyyV3lJSFgJ76/hkCvrX7eXT6wVA+TmX7eWVzb0kCXvSX3VR4K80EEZCtlzXnJIEsvjhEZGQiE/yy84gfgCy6H7JqGQi6R2qZKXBS1kKfdcQQAGMXJhgzIMsr9+0SFJBuW6Twn59qpDkgzK9hsl5NeLTiC+4LCN6RDI0uhlhyQZlGHH1kIg+97LDkmiSa9PBfneftkh6Q/KEHcgBPLthYck8exCLM8tZGPxEsGrKDEXtyGtW8jB92tr8vs20hMC+cpD0ndfaSDfX7q3kv56a3luIVevDnkbHbiFTHZIQkQk0fGAvikgE3RcoQHbXrE4rkAjuR0W2H4MOUiot0JsoNm0O6nKcsvtbB1oJqVQ88by3EB+JgKJTOQsJ9WmJMuSJMmSXnXtNTATGRnmTXTgBvJHuHcODROs7ZZeCAD3Qn7Wm52xYhpYdBjCuImj30CKnSX9C5KV3ETLa2eARyEfu9uZohBMkcfXbwblDaSw3gr941OV+dLN58MADxrV8tW/ccU/5CWKE5rXjt015Keg3oqRUl/n7KoWqsIrTq3V2c4riqhjl8b1oLyG3Ip4ETJUZ7qstcI7abg+m5PidKgKmUPxdRz9GjL2dhY0DGu+7E50WsATqO52ll7ZiM2Jh/chS/FcAZ9wTObCAivhgbNQnXSmdSOerwDLpbuQbyr/o8lsX8llD3Mhp5DvNquTmL6C+nEX8lfhezREpuEsq3pBigF4Ai0UqvYc+5w8zYHK711Ij+Oh/lxYH3dlajNDBUrm0Gyuoio8mNC7B1lyOB6pDrcTKa+JAzyC5mW3uOYYQNgp3YH8qHNAVopZtymLVOMBUm66k2KFvUWw/nEHcsFjd6ABZtNijWbeZwAkHkLWzjkK1xlbdXUHknMbHUIEyvOt7QrSJ3lMtbv1YvhAm2jIUozYOUTYmo2XE/mep0qpQ/dv7JQB4vdmr7bVLyD5ttFPl5kwVMqzaU3it7NaXiKTZFmFR28A86w5sdOLhPyyOP52ynh28lD8g5mKNbfp3dZzFeb1zthSThdrgmjCWGFvE7S+IiF/ORQJlUle73pl9bhYgr5nUMm5uk7vGchSQa8uHfLF418L+3+tv2Z+wuOf4N8oyNKUZ52lZGXSy/Razmkrp0u/0DDb047bKjz28QJPLrudmWf9AStlZ9r1+4Oc5dAkMH5KEZDvQx7vwocMRlMhu/Qcslg6/g8yLK9Yc++uR3yfPGuP28bJkJKlaMXbdvRdjyeQPK0avkdA8m2j7yF3DZ7Y27V1ugVEONVhrjtphs+hmtZ0u9u5dba6Cr5g+184PJRLk7D8FgG54jFk8AQZcErVWnFcPlv8EsXMvGWnemWKiJlp1ZbjC9UbiCxFO+7FQo1PkwCtwiFLG67QxwXkboi1XLIoNI8dMPAVnLF94vQJu9NhXTlNP8RaWWP7dinKp0lgnN8xOIPsz3lmSXgNGbRMarYm28qFKQFqe7h1yeLCj9H9zetnsSsyVRAzlW2FLUU5NYnn/VDIHteQDIXcKbRQ/XPAWd5Bn4mwZKdtcHbJlBDC2dYtRKy1OSFhuRcK+cYXqIuA3PdKvTu21DOdkV55WvMH+n3gOnB214s4+gmy8csVco3S5EGIo1bLkdF3kzcDEovkT4b6feeIU5PA/G2EQA44vfMHkNJuatnZ0VNzseHb3Jr+cLHNq0l0ltnwDJIvUPdIk0dO194e04OhYDLUaRYsvJo831Y/QfY4Y+dUkNJuCs1ug8PtVq7m0kYteTUJjF4IJOfJFjpN7hucn1Sgf+h/Qr/o5NUkMBe3kA3ebXQGSNLiPSTLVzg1ib4bt5A8a0nApskjJNNXeEPB5VvI/n9cj+LTJBskZ8P+699A8p5seVpNnp11OUJyn2x5Wk2ezrocITmH5BNrElrXkCXubfSn1SQwS1eQ3CdbnleTJx/9ALnhPlLzvJpEmytI7ttZT6xJ7FxClnjtDqMma/UUNQnVwQXkJ/+TOCDrtVQ0CZTPC8hRjCclDsnbMqiMLiB5ttEPT3peTR621XeQgxn/nt3zahLg2eAM8o3/2OBTa3IfR99Bcm2j7+WJNQnUxRnkD//BoGfWJMA/J8gBV+z8FSDngyPkRwy789TdFc8+jpCrGEOSSZNayprcp5AIIEdxzn8yQXb2kPTnt2JpEuDRATLWFTQ2Te4hO0yQMTRpBNfTfMherJO8yUPGaBwe9vaQn/xLkGfXJLQ+95Bc2+hHeWpNAmO1gxzEShDBqMl2upoEhp/TDsROEMEB2U5Pk0EKCQLZizMkuTTJCBmreVYvgPyMdy2MDbKcsiaDmzAgboIIRk0GkOX0NBmkkACxvHNfkoeM1TzfRweZfqwh+fSahOU+gezx7tnt5ck1Cf7rEUi+ky1HIZqkbzEHpBZTk8D8zYBGzCEJlS79IWV2SFnrxoREXgPwbqOfZNit0lIyQ2qt7jBm86DVAP3YV1+x4nWbdK1mhNT07liNfaHT7AMRCSKwNe5Q9VkmSFnLjnmKH95AroCQBBEQWuNqXixkvjUuC7nPjb6BoAQREFjbwsOma92y/8sUkFphKaqQFSwDYbkxoaH+6ZSQ3UeQum0JK4SAPFASlxwTGrNO8/65UCpIudlxxNV6QE4JZN4r4pJTYODV7hlaGkhNz46BuCah+ru/1OK6vBQhECm5bCFSm1o3OCV5B1KWJjlVYMmO4EIT8I8sx/QOL8WobydR13r2kFYUpCy7S4Edi4jiH2AO4q4/QqvyQDBbtsIpHkBqzaUDRGYGhHB6iLsKTwMKldmfFMZxF1KWbUdwuQc07J+27npl0RUywSzs4O4dSDnvOqKT1uDyx8XpD1Xw8yE2h+6NBYqElCXXM0WnlILq1+VhpV/xyZyIoXV1mQZSLrhbylryDALR4RJl/KOgd8QoL92Li6KhkMSkFusJZFsNOQo6WCfwHoid4rnjHgapVe1hEhVljfXgBjKhegQIzG1di4bU9M5coH9zEnxWp+DsrpZIz+ckEFle59BnryFlqTYW54lfvFY9u7p9BtlYJPCy4IXW2NXCILXqNFY1+TuvBOcZUC8ubv8klmFRzQV9VrPPILXCVk0qq3z0xW3uO2k0bwXLgiQfIG3NXzImV+ppf7QlFNIvupzUe4E567ROmmzWnOSyj8LZvSwu8XbWHwiGXra4gywKXTJey4XRCYHMLBIsv0gM7Sw4MaTOrCTTnxrXVRhuc0kmmsN2Z0uTrbdqPs4lORi+cD57X4zh49SnmXfRy650BZZpci5n3mLusPxTgSCk9ktYlYnV6xZ+CS/9Elr55WUrTgEQWnEztIZP33tNXUIQVmMisgxcgp5PggJnLGXgxMd80hCohBacii6yuXrB2fLG03kEmfl+uez95m0q+0eQGefFKmqgWWTt22jIQf2lPB/Ujq5jHA2ZeROxYZ+WYCusoNZjyMbidUwsVEOq2tBAvpLno9wtun0PMjPgv1bJI5A7xgzDPR0qyMx7nPtNrA0FnUmW75gGroTW1qSEzHymt+yCoKoVcnz5ASM8HUrIzCK1qtQEUtZ5ICGK8nRoITPJBZyv28oLeVsfhBkys06JkhcSXVci4IHsz7gpYVhYLvSz4B8XJKr0BUDy1PpFfvZTiJRy+yoBNsJqu3yWCDT4DFltCyA+yIh6vsyQHJ6PVyzOjPqyk83Wio55St5qTbs18pk9Vs5S3Xo2+aw7VTAH5H1PhwHS93wYKYuy5q1dPZ/Pa4Xq8phHcj5pyhoRqVU7nOjDVrcVfNbMWuyQEIbGdHggiefD+AcuatpfS5MndqegyQV7Nw3BsS7LeX3iFvKyVN3d2YRW1k/t7pLPNJcd0pjf8+bYIDPvjIvLoubvsDoGRmpHlvWtH2bAQ0mWq2MyBJVcU5ZbwfFe0JUkySaDVNn6B0UYIfHsvqfDBslqfAik3FJ9NGh2NM3POwhRVZYnThBVMeZVWasZ/lFU8sPyP//ZpldghaQyOgyQmRXTIUMCqXm7KBFUC0EvROu81BrvP8NbXcrXyWRiE+XuR+d/tsaqyUeeDitkhikhc1GTq4efja7m3+0wbU2uHa7644ora1vDzz6kHbhwhRHSvC66FB+y5DFQ+obn0L/xOO/nUDCrcqF4fAQmQzVr4nVVzh9CvBC0mAyPuaYxrGyQZNlF34Cilp8ecw47eTIWMdTl5vT4BKNYkFsm8lqydBrtNY0BElEaHTbIzBv9VjuBHB8hK3nZHRqqLrfGJ0hiTHUDTQty8/RUmwES3ovpxIDMrFggvXPI6tqwQiGJEeaEvC2KKgayMaKlvNCk42sSKQTysrs2TV+ThRNklxoSohGFN8cFmRl8U+72E8OzPTc82Qo0m7K+PBoeRAzPxETzc8MDJ7SQEIYUYxYFSV2Hgkwh2cPfw59CbMV3CuTOwQeG7Yms/RlwNpHzR/XuJ1QayCG90WGHpE2m5Xs8+1sBmAxGv+0GUWh1vlclnjalPPFeVeIMTPbfMad5ynmS2tPhhMysaBgDj6cT3AvAxJzIEz8ZhtKUpU47cPWQMyGeDlE1GpMlSC44OmS0qzItJIvR4YHMjGiuQPsOutStmKbZtv1O6OMaOU3WO0NkmtibFGQpWNkoXUlublXTNIZZjRLyvxFrm5khGzQnnAlkU5Pczl/HLciyvfN7VTsvF6rZoj1pSbK0DYKduE50qrvdYpassyZUY9JYsxhWPsjMgOKcD7Gu9jbIyC9r+e0hdqtuC0EdAr9u6HTv8JMF5e6zvLS28xRxVxxSAF48ZOb98W6XD0k6YKFQaNrlk+ZRe1kln+luzjp+CM35xP+9bhltJ7WHq3Oshh8LEA1JEVb3ISEyQbmMzPPfhYaptNuKeXFKkfxe20LkI8N8WJ0aKl+P2ycEsjR6tLj0IQF9SBKG/mKYKCPqpUdMSOL5PIhs7SFFCwRsnk4syIeeT1KQjJ5OPMjMx/2YTzKQl8WykofMfN0dRYlAQszq6cSFzGzunfOx8/mucEj6mI4wyMzwrrkXv6tJsXslHrJ0L+Yj/pQ5mnEZ1piQmV47xXM+h0utaUNmvtI753NVGjRFyMeejzDh83REQGYG02RveByFMaYjFDLTHyKYguxv0v8jyMzHTE1BZjGMji//AxiIoDFQMKh/AAAAAElFTkSuQmCC;" vertex="1" parent="1">
          <mxGeometry x="399.38" y="881.07" width="42.65" height="41.33" as="geometry" />
        </mxCell>
        <mxCell id="wC8_cDmadlpLExYwXLmD-91" value="" style="endArrow=classic;html=1;fontSize=4;entryX=0.5;entryY=0;entryDx=0;entryDy=0;exitX=0.5;exitY=1;exitDx=0;exitDy=0;" edge="1" parent="1" source="wC8_cDmadlpLExYwXLmD-86" target="wC8_cDmadlpLExYwXLmD-88">
          <mxGeometry width="50" height="50" relative="1" as="geometry">
            <mxPoint x="572.03" y="960" as="sourcePoint" />
            <mxPoint x="622.03" y="910" as="targetPoint" />
            <Array as="points">
              <mxPoint x="363.03" y="810" />
            </Array>
          </mxGeometry>
        </mxCell>
        <mxCell id="wC8_cDmadlpLExYwXLmD-92" value="" style="endArrow=classic;html=1;fontSize=4;exitX=0.5;exitY=1;exitDx=0;exitDy=0;" edge="1" parent="1" source="wC8_cDmadlpLExYwXLmD-86">
          <mxGeometry width="50" height="50" relative="1" as="geometry">
            <mxPoint x="422.03" y="790" as="sourcePoint" />
            <mxPoint x="421.03" y="880" as="targetPoint" />
            <Array as="points" />
          </mxGeometry>
        </mxCell>
        <mxCell id="wC8_cDmadlpLExYwXLmD-93" value="" style="endArrow=classic;html=1;fontSize=4;exitX=0.5;exitY=1;exitDx=0;exitDy=0;entryX=0.5;entryY=0;entryDx=0;entryDy=0;" edge="1" parent="1" source="wC8_cDmadlpLExYwXLmD-86" target="wC8_cDmadlpLExYwXLmD-89">
          <mxGeometry width="50" height="50" relative="1" as="geometry">
            <mxPoint x="572.03" y="960" as="sourcePoint" />
            <mxPoint x="622.03" y="910" as="targetPoint" />
            <Array as="points">
              <mxPoint x="477.03" y="810" />
            </Array>
          </mxGeometry>
        </mxCell>
        <mxCell id="wC8_cDmadlpLExYwXLmD-94" value="" style="shape=image;verticalLabelPosition=bottom;labelBackgroundColor=#ffffff;verticalAlign=top;aspect=fixed;imageAspect=0;image=data:image/png,iVBORw0KGgoAAAANSUhEUgAABLAAAASwBAMAAAAZD678AAAABGdBTUEAALGPC/xhBQAAAAFzUkdCAK7OHOkAAAAYUExURUdwTHLfzwNATABASwJATXLf0ANBTS6AgTW2NsAAAAAFdFJOUwCAxT+FfVq5sgAADXxJREFUeNrs3d1O4lAUBlBCG5+jUdPrBkmviRKeY4Kk7/8Ig86o0B9o7dmOY9a6JNSL45e9N4dDu1gAAAAAAAAAAAAAAAAAAAAAAAAAAAAAAAAAAAAAAAAAAAAAAAAAAAAAAAAAAAAAAAAAAAAAAAAAAAAAAAAAAAAAAAAAAAAAAAAAAAAAAAAAAAAAAAAAAAAAAAAAAAAAAAAAAAAAAAAAAAAAAAAAAAAAAAAAAAAAAAAAAAAAAAAAAAAAAAAAAAAAAAAAAAAAAAAAAAAAAAAAAAAAAAAAAAAAAAAAAAAAAAAAAAAAAAAAAAAAAAAAAAAAAAAAAAAAAAAAAAAAAAAAAAAAAAAAAAAAAAAAAAAAAAAAAAAAAAAAAAAAAAAA/O8euiwK85VN296iIFgIFoIFgoVgIVggWAgWP8iDYBGhKQSL9JZNUwkWye2a5iBYpJa9xOVOsEjfCY82gkXyTjicF8FiTic8ehYsUrp5S0whWCT0EZ1KsEgm/4jMQbBIpj7JzJ1gkb4T9u45CBZzO2FvaASL2Z2wb89BsPiUdmwKwSKBZSc3lWAx366Tm4NgMVvWdN0JFuk7YXvPQbBI0gnbyREs0nTC1p6DYDHdjWARoewP1kawmCPvz5UZi3nq/mD9EiwiOmElWAR0wsNCsAjohMXZm9w1mamaEZ0QQjohTLYb0Qlhsqz3U6F1IaIZPlsWIj4XbqwK85U2qfiSZqgTksRKJ+QL9hx0QlLtOQwfbIAZlr7OIboZ+jqHkGZYWA0imqFOSEQz1AlJ2wxLnZAIuYMNjDH5oHrt6xwigvV6xcbCkTpYua9ziAjWYqUTEhGsxU4nJCJYmWUjIlggWAgWggWChWAhWCBYCBaC9ebOOhIQrFqRIyBYuZPKRASr9NsKAoJV+zUYAcHK3cmBiGCV9igICFbtblkEBCt3fz8iglW6NzcBwardfoaAYOWef0JEsEq3+CMgWLWbkhIQrNxxGyKCVbrxOwHBWnlUBQHByj1wlYhglR6MSUCwVh7lS0Cwcg8fJyJYvY/yNb7zbr1texpx1bL/sfa2spgn6w+W8Z2Zdv3BMr4zz0AvNL4zk15IiNr4ToR8oGRtLA2z9O9kNb+sDLPcqFhE6N/KckMjhjrafmA7oV2LdmZ3Jgfr5nqwlhohKSpW0b5UIySiYnW3sjRCEsxY3a0sjZAUFat9rdNYJJmxWunTCElUsTKNkIAZ63wrSyMkVcU6jZ9GSLIZ63QrSyMkXcX62MrSCEk4Y71vZe0rK0nCivV2uUZI0hnrbwA1QhJXrEwjJGDG+rOVVVhGEleslwT6lSrJZ6yXrSyNkPQVa1FrhATMWIvMGjKrYqlMfGXFgpAZC0I+FYKKhRkLFQvMWKhYmLFAxcKMhYoFZixULMxY8GbgsXJ55+VtZbEAAAAAgJ/loevl5az7cnXh7dAy8Uvo7svuNcOEYN0IFioW/3PFKgQLFQszFiqWYGHGQsXCjCVYqFiYsVCxBAszFioWZizBQsXCjIWKJViYsVCxMGMJFioWZixULMHCjIWKhRkLVCzMWKhYYMZCxcKMBSoWKhYqFrybfdfkyhoCAAAAAAAAAAAAAAAAAAAAAAAAAAAAAAAAAAAAAAAAAAAAAAAAAAAAAAAAAD9G1rwrrAaChWAhWCBY/KvQbG/LY2D2t9sHwSKVdfmRmWa/rQSLBPLTWL1G60mwmO2x6TpUgsW84WrX9NlXgsWcXJVNv/1GsEifq75kCRbz+uBANxQsRrqUq+MEL1h8yqq57E6w+EwjbK6pBIvUjbDbDAWLMZbNdYVgMVU5Ilh7wSKgYJ0nSLBIVLDOS5ZgkapgNc1GsEhfsFQspslHFiwzFpPUnQjdPz0cs7N+9KmQz8uGT/Zlj/0TlmAxfXQ/+1ZwbeedT2p9m/M0MIBtJgcrW7/82md/O/SDjJN3bh9vj3/p9v76W08ver1myiV8pYunGN4L2vNiYrBO2+j9xX/+2e+CDtW1QbBo//l70fr+nwmfu29Y9RxuuB6sdXmpDg6/8ZiTMcFaXzuUz7f6TNj7Lyp7AnctWKsr57l6Px5cKlrnwVpdPNPDd1AOnmA4qWlTjyavrp4U/PtnyrE/CzoL1mrMFXyfzYb9UFErFpOCtRxxBvU1suXvdu5mt20jCsCoYQvapyiyTptCawMBtC7SQG9AaevYpfQEJF+/SRrEssz5UyiHpM9ZupTkgh8uh9Q4eRuhT8JaZL2C8SyxQuvw+6uisBbJrxpj86o/wuOwVqndYvx6y/TAurq6LQor1Mt9dlc9i6ajsNY5b86InmI9nHUFfRe9HYjccsa2Qz+E3/R9/yvunMvRrt1vBwnrJncOFfztRqRWI2v0a/f7q0HC2uT+QUb0DzgeSsOyyhrt2v1ukLAW2XNoGe2kOCw3hmNyHbtrOyusdfYcWpQMoHRYnpKO9abwdoiwbgpOfskAygjLtXBE1meufoNhrQtO/qbgWpgR1oPTOcqnDQ+DhLUqWAgtc/90Iy8s94XjfNpwN0RYT9dNf324vfrwMXgtjC+y7krDssgakTPX7sGw1j0z58kT9ne9n/7np08fPn2MLbJywvrb+RzjY6zbIcJa9Z3nm9BC6PuF+J/vH/303367j4Z1/+VFNyd7ue6c0LmGddP/RfIisCZfnm6/2gSvbOv+cbaxeh+lRfiJ5FlhXQcGzia8yHp/lZx4z8P6cZl8cpn1iHSMYd0PEdY6vaY/WWS9D5ceXrwd1XnttnDkYf07RFir0EneBBZZD7m3qevQdq3VuUOXC7oeNqyb4Hrnuv9zFs/eeBl4i3Vo9bX0vGH+YS2Ct/43uWNlkRHWQ+j+w/OGCYW17L009Yd1Hc5nlTtWAr/ROtjPSlizD2sdfrd17tlfpcMKLd+ENdewNuFnlde5mxA2/ev/dfA3XdrfMJA3w/nt6F49cMjbH0d8Pvrp748v/OPxp6veY08+6XP8V3rb/xsdzaXPoRcc/yoDeHVhVcPZPZ6UQ+CQ7Y8j6uMfP76wSfzw9JPq+K/0+Hn7wI/r4P9DXQ1JWL8grP6zGQmrSn5QPKw2+N7CGndY+0EnVsTzsHZd23tkoLcmlKywph9W75jYnRPWrgseGZhYlbBGH1Y16MQ6J6wucmTGFVJY4w+r+RUTq91nhmVivY6wfmJi7XO7MrHmEVb9QhNrX+W+oH9iHYQ1gbDa5POGS06s/NFmYr2SsAZZY7V7E2uuYW2Tt4UXvCvcm1ivIqzmhSfWdm9izTasXXL1frmJtTex5htWtU9dCy82sXZ7E+uVhNVccHdD/Cq875r83Q3CmkJYbepaeN7uhrrsk0t2N5hYkwhrm7oWnjexDkVhNUX7sYQ1hbCerHTqn5xYbUlYgQpNrHmEVcW3SpVNrDa5V6I3zaYyseYXVpsYWSUTa1uwet8FSjGxZhLWdh9fZZVMrG3BIqswLBNramHtEvuGSyZWxobUnvc9mFhzDOvkAXj9MxMrugunbbLCak2smYR1ssegCf7n9MSKPcffnZz2wrBMrMmFdfrVSpP1XWL/8W34qhpeSx1CH2hiTTqsKrIpvQtdJQMTaxsstD097+lFuok18bCe77frum/xdJHlV6Cf0Oxrc0dQa2LNJqzMHcU5E6sKbGRoz7mvNLEmHlZyi3DBxNo+m31ftH1N9P91f2s/1ozC2g43sRLTL/BooulP3MSaeFjVcBMrMf0O8Z1grR2k8wprO9jESr1VE0jw693Cs38axMSaeljVcBOryv77+nTNJtbkw9oNNrFSdwIln2liTT6srBvDKmti5S/fTaxXEFbGyAp91VOXLNjqkphNrOmHlV7x1FXexIpPoqbkI02sGYSVmh+H4ISrCxqt0wXWrYk1q7DiZUXOZlPwThkFNq2JNa+wdm1BV/F/qjhrmdZ/3KEysWYWVmQBf4i102S/U51xXFOZWHMLK3gN66Lp1LmNHjI+sK5MrBmG1VvWoYk/q28yr6tdxgceqsrEmmNYPaOmSx1X5zXaZBx2qCoTa55hnXwVfOjS3y42OTcDXU7KXVWZWLMN6+uW5G97kg/hqrIj/f+Nui7jqK6rRkZYCEtYwhKWsISFsIQlLGEJS1gIS1jCEpawhIWwhCUsYQlLWAhLWMISlrCEhbCEJSxhCUtYCEtYwhKWsISFsIQlLGEJS1gIS1jCEpawhIWwhCUsYQlLWAhLWMISlrCEhbCEJSxhCUtYCEtYwhKWsISFsIQlLGEJS1gIK+wNL+IKAAAAAAAAAIAxsaHFtpmLsAXPRj9hCUtYCAthCUtYwkJYCEtYwhIWwkJYwhKWsBAWwhKWsGybwb82AwAAAAAAAAAAAAAAAAAAAAAAAAAAAAAAAAAAAAAAAAAAAAAAAAAAAAAAAAAAAAAAAAAAAAAAAAAAAAAAAAAAAAAAAAAAAAAAAAAAAAAAAAAAAAAAAAAAAAAAAAAAAAAAAAAAAAAAAAAAAAAAAAAAAAAAAAAAAAAAAAAAAAAAAAAAAAAAAAAAAAAAAAAAAAAAAAAAAAAAAAAAAAAAAAAAAAAAAAAAAAAAAAAAAAAAAAAAAAAAAAAAAAAAAAAAAAAAAAAAAAAAAAAAAAAAAAAAAAAAAAAAAC/gP+IFZBeuVRtBAAAAAElFTkSuQmCC;" vertex="1" parent="1">
          <mxGeometry x="381.08000000000004" y="935.75" width="70" height="70" as="geometry" />
        </mxCell>
        <mxCell id="wC8_cDmadlpLExYwXLmD-95" value="" style="endArrow=classic;html=1;fontSize=4;entryX=0.5;entryY=0;entryDx=0;entryDy=0;exitX=0.5;exitY=1;exitDx=0;exitDy=0;" edge="1" parent="1" source="wC8_cDmadlpLExYwXLmD-41" target="wC8_cDmadlpLExYwXLmD-43">
          <mxGeometry width="50" height="50" relative="1" as="geometry">
            <mxPoint x="340" y="1020" as="sourcePoint" />
            <mxPoint x="390" y="970" as="targetPoint" />
          </mxGeometry>
        </mxCell>
        <mxCell id="wC8_cDmadlpLExYwXLmD-96" value="" style="endArrow=classic;html=1;fontSize=4;entryX=0.5;entryY=0;entryDx=0;entryDy=0;exitX=0.5;exitY=1;exitDx=0;exitDy=0;" edge="1" parent="1" source="wC8_cDmadlpLExYwXLmD-41" target="wC8_cDmadlpLExYwXLmD-86">
          <mxGeometry width="50" height="50" relative="1" as="geometry">
            <mxPoint x="344.20000000000005" y="665" as="sourcePoint" />
            <mxPoint x="238.68000000000006" y="750" as="targetPoint" />
          </mxGeometry>
        </mxCell>
        <mxCell id="wC8_cDmadlpLExYwXLmD-97" value="Service node" style="text;html=1;strokeColor=none;fillColor=none;align=center;verticalAlign=middle;whiteSpace=wrap;rounded=0;" vertex="1" parent="1">
          <mxGeometry x="90" y="635" width="90" height="20" as="geometry" />
        </mxCell>
        <mxCell id="wC8_cDmadlpLExYwXLmD-99" value="" style="shape=image;verticalLabelPosition=bottom;labelBackgroundColor=#ffffff;verticalAlign=top;aspect=fixed;imageAspect=0;image=https://qiita-user-contents.imgix.net/https%3A%2F%2Fqiita-image-store.s3.amazonaws.com%2F0%2F309176%2F3832a7ee-4dd2-230b-57e0-4d6c5205362b.png?ixlib=rb-4.0.0&amp;auto=format&amp;gif-q=60&amp;q=75&amp;s=1d34f747a2f11a51367c4a269952d5a6;" vertex="1" parent="1">
          <mxGeometry x="104.05" y="585" width="50" height="50" as="geometry" />
        </mxCell>
        <mxCell id="wC8_cDmadlpLExYwXLmD-101" value="" style="shape=flexArrow;endArrow=classic;html=1;fontSize=4;exitX=0.781;exitY=1.003;exitDx=0;exitDy=0;width=5.714285714285714;endSize=6.542857142857144;entryX=0.416;entryY=0.005;entryDx=0;entryDy=0;entryPerimeter=0;exitPerimeter=0;" edge="1" parent="1" source="wC8_cDmadlpLExYwXLmD-32" target="wC8_cDmadlpLExYwXLmD-34">
          <mxGeometry width="50" height="50" relative="1" as="geometry">
            <mxPoint x="310" y="830" as="sourcePoint" />
            <mxPoint x="185" y="600" as="targetPoint" />
          </mxGeometry>
        </mxCell>
        <mxCell id="wC8_cDmadlpLExYwXLmD-102" value="" style="shape=image;verticalLabelPosition=bottom;labelBackgroundColor=#ffffff;verticalAlign=top;aspect=fixed;imageAspect=0;image=https://qiita-user-contents.imgix.net/https%3A%2F%2Fqiita-image-store.s3.amazonaws.com%2F0%2F309176%2F3832a7ee-4dd2-230b-57e0-4d6c5205362b.png?ixlib=rb-4.0.0&amp;auto=format&amp;gif-q=60&amp;q=75&amp;s=1d34f747a2f11a51367c4a269952d5a6;" vertex="1" parent="1">
          <mxGeometry x="130" y="390" width="50" height="50" as="geometry" />
        </mxCell>
        <mxCell id="wC8_cDmadlpLExYwXLmD-103" value="CD node" style="text;html=1;strokeColor=none;fillColor=none;align=center;verticalAlign=middle;whiteSpace=wrap;rounded=0;" vertex="1" parent="1">
          <mxGeometry x="120" y="449.99999999999994" width="90" height="20" as="geometry" />
        </mxCell>
        <mxCell id="wC8_cDmadlpLExYwXLmD-106" value="" style="shape=flexArrow;endArrow=classic;startArrow=classic;html=1;fontSize=4;entryX=0.5;entryY=1;entryDx=0;entryDy=0;" edge="1" parent="1" target="wC8_cDmadlpLExYwXLmD-22">
          <mxGeometry width="100" height="100" relative="1" as="geometry">
            <mxPoint x="432.03" y="420" as="sourcePoint" />
            <mxPoint x="532.03" y="320" as="targetPoint" />
          </mxGeometry>
        </mxCell>
        <mxCell id="wC8_cDmadlpLExYwXLmD-108" value="" style="shape=flexArrow;endArrow=classic;html=1;fontSize=4;width=6.857142857142857;endSize=5.662857142857143;exitX=0.5;exitY=1;exitDx=0;exitDy=0;entryX=0.79;entryY=0.003;entryDx=0;entryDy=0;entryPerimeter=0;" edge="1" parent="1" source="wC8_cDmadlpLExYwXLmD-12" target="wC8_cDmadlpLExYwXLmD-32">
          <mxGeometry width="50" height="50" relative="1" as="geometry">
            <mxPoint x="362.03" y="235" as="sourcePoint" />
            <mxPoint x="412.03" y="185" as="targetPoint" />
          </mxGeometry>
        </mxCell>
        <mxCell id="wC8_cDmadlpLExYwXLmD-109" value="" style="shape=flexArrow;endArrow=classic;startArrow=classic;html=1;fontSize=4;exitX=1;exitY=0.75;exitDx=0;exitDy=0;" edge="1" parent="1" source="wC8_cDmadlpLExYwXLmD-8">
          <mxGeometry width="100" height="100" relative="1" as="geometry">
            <mxPoint x="83.72999999999996" y="515.5699999999999" as="sourcePoint" />
            <mxPoint x="310" y="410" as="targetPoint" />
          </mxGeometry>
        </mxCell>
        <mxCell id="wC8_cDmadlpLExYwXLmD-110" value="- pull image" style="text;html=1;strokeColor=none;fillColor=none;align=left;verticalAlign=middle;whiteSpace=wrap;rounded=0;strokeWidth=1;fontSize=4;" vertex="1" parent="1">
          <mxGeometry x="559.0500000000001" y="300" width="80" height="10" as="geometry" />
        </mxCell>
        <mxCell id="wC8_cDmadlpLExYwXLmD-111" value="- pull manifest file" style="text;html=1;strokeColor=none;fillColor=none;align=left;verticalAlign=middle;whiteSpace=wrap;rounded=0;strokeWidth=1;fontSize=4;" vertex="1" parent="1">
          <mxGeometry x="270.0000000000001" y="300" width="80" height="10" as="geometry" />
        </mxCell>
        <mxCell id="wC8_cDmadlpLExYwXLmD-112" value="-deploy on k8s" style="text;html=1;strokeColor=none;fillColor=none;align=left;verticalAlign=middle;whiteSpace=wrap;rounded=0;strokeWidth=1;fontSize=4;" vertex="1" parent="1">
          <mxGeometry x="376.08000000000004" y="540.57" width="80" height="10" as="geometry" />
        </mxCell>
        <mxCell id="wC8_cDmadlpLExYwXLmD-113" value="" style="endArrow=classic;html=1;fontSize=4;entryX=0.5;entryY=0;entryDx=0;entryDy=0;exitX=0.5;exitY=1;exitDx=0;exitDy=0;" edge="1" parent="1" source="wC8_cDmadlpLExYwXLmD-87" target="wC8_cDmadlpLExYwXLmD-58">
          <mxGeometry width="50" height="50" relative="1" as="geometry">
            <mxPoint x="377.5" y="675" as="sourcePoint" />
            <mxPoint x="430.71000000000004" y="750" as="targetPoint" />
            <Array as="points">
              <mxPoint x="422" y="950" />
              <mxPoint x="530" y="950" />
              <mxPoint x="530" y="750" />
              <mxPoint x="530" y="700" />
              <mxPoint x="648" y="700" />
            </Array>
          </mxGeometry>
        </mxCell>
        <mxCell id="wC8_cDmadlpLExYwXLmD-114" value="" style="endArrow=classic;html=1;fontSize=4;exitX=0.5;exitY=1;exitDx=0;exitDy=0;" edge="1" parent="1" source="wC8_cDmadlpLExYwXLmD-44">
          <mxGeometry width="50" height="50" relative="1" as="geometry">
            <mxPoint x="410" y="820" as="sourcePoint" />
            <mxPoint x="430" y="950" as="targetPoint" />
            <Array as="points">
              <mxPoint x="230" y="950" />
            </Array>
          </mxGeometry>
        </mxCell>
      </root>
    </mxGraphModel>
  </diagram>
</mxfile>
